SplineFontDB: 3.2
FontName: Poppins-SemiBold
FullName: Poppins SemiBold
FamilyName: Poppins SemiBold
Weight: Demi
Copyright: Copyright 2020 The Poppins Project Authors (https://github.com/itfoundry/Poppins)
Version: 4.004
ItalicAngle: 0
UnderlinePosition: -100
UnderlineWidth: 50
Ascent: 800
Descent: 200
InvalidEm: 0
sfntRevision: 0x00040106
LayerCount: 2
Layer: 0 1 "Back" 1
Layer: 1 1 "Fore" 0
XUID: [1021 809 -1304484988 548]
StyleMap: 0x0040
FSType: 0
OS2Version: 4
OS2_WeightWidthSlopeOnly: 0
OS2_UseTypoMetrics: 1
CreationTime: 1551825221
ModificationTime: 1613347520
PfmFamily: 81
TTFWeight: 600
TTFWidth: 5
LineGap: 100
VLineGap: 0
Panose: 0 0 7 0 0 0 0 0 0 0
OS2TypoAscent: 1050
OS2TypoAOffset: 0
OS2TypoDescent: -350
OS2TypoDOffset: 0
OS2TypoLinegap: 100
OS2WinAscent: 1135
OS2WinAOffset: 0
OS2WinDescent: 627
OS2WinDOffset: 0
HheadAscent: 1050
HheadAOffset: 0
HheadDescent: -350
HheadDOffset: 0
OS2SubXSize: 650
OS2SubYSize: 600
OS2SubXOff: 0
OS2SubYOff: 75
OS2SupXSize: 650
OS2SupYSize: 600
OS2SupXOff: 0
OS2SupYOff: 350
OS2StrikeYSize: 50
OS2StrikeYPos: 332
OS2CapHeight: 701
OS2XHeight: 554
OS2Vendor: 'ITFO'
OS2CodePages: 20000093.00000000
OS2UnicodeRanges: 00008007.00000000.00000000.00000000
Lookup: 4 0 0 "'nukt' Nukta Forms lookup 0" { "'nukt' Nukta Forms lookup 0 subtable"  } ['nukt' ('DFLT' <'dflt' > 'dev2' <'dflt' > 'deva' <'dflt' > ) ]
Lookup: 4 0 0 "'akhn' Akhand lookup 1" { "'akhn' Akhand lookup 1 subtable"  } ['akhn' ('DFLT' <'dflt' > 'dev2' <'dflt' > 'deva' <'dflt' > ) ]
Lookup: 6 0 0 "'akhn' Akhand in Devanagari2 lookup 2" { "'akhn' Akhand in Devanagari2 lookup 2 subtable"  } ['akhn' ('DFLT' <'dflt' > 'dev2' <'dflt' > ) ]
Lookup: 4 0 0 "'rphf' Reph Form lookup 3" { "'rphf' Reph Form lookup 3 subtable"  } ['rphf' ('DFLT' <'dflt' > 'dev2' <'dflt' > 'deva' <'dflt' > ) ]
Lookup: 4 0 0 "'rkrf' Rakar Forms in Devanagari2 lookup 4" { "'rkrf' Rakar Forms in Devanagari2 lookup 4 subtable"  } ['rkrf' ('DFLT' <'dflt' > 'dev2' <'dflt' > ) ]

StartChar: .notdef
Encoding: 65536 -1 0
Width: 500
Flags: W
LayerCount: 2
Fore
SplineSet
0 700 m 1,0,-1
 500 700 l 1,1,-1
 500 0 l 1,2,-1
 0 0 l 1,3,-1
 0 700 l 1,0,-1
420 650 m 1,4,-1
 80 650 l 1,5,-1
 250 395 l 1,6,-1
 420 650 l 1,4,-1
50 95 m 1,7,-1
 220 350 l 1,8,-1
 50 605 l 1,9,-1
 50 95 l 1,7,-1
450 95 m 1,10,-1
 450 605 l 1,11,-1
 280 350 l 1,12,-1
 450 95 l 1,10,-1
420 50 m 1,13,-1
 250 305 l 1,14,-1
 80 50 l 1,15,-1
 420 50 l 1,13,-1
EndSplineSet
EndChar

StartChar: dvA
Encoding: 2309 2309 4
Width: 835
Flags: W
LayerCount: 2
Fore
SplineSet
855 740 m 1,0,-1
 855 632 l 1,1,-1
 744 632 l 1,2,-1
 744 0 l 1,3,-1
 615 0 l 1,4,-1
 615 287 l 1,5,-1
 498 288 l 1,6,7
 501 269 501 269 501 251 c 0,8,9
 501 163 501 163 445 110 c 128,-1,10
 389 57 389 57 296 57 c 0,11,12
 228 57 228 57 175.5 83 c 128,-1,13
 123 109 123 109 94 156.5 c 128,-1,14
 65 204 65 204 65 265 c 1,15,-1
 186 265 l 1,16,17
 186 223 186 223 214 195.5 c 128,-1,18
 242 168 242 168 287 168 c 256,19,20
 332 168 332 168 358 194.5 c 128,-1,21
 384 221 384 221 384 263 c 0,22,23
 384 304 384 304 356 332.5 c 128,-1,24
 328 361 328 361 273 361 c 2,25,-1
 230 361 l 1,26,-1
 230 465 l 1,27,-1
 273 465 l 2,28,29
 321 465 321 465 348 490 c 128,-1,30
 375 515 375 515 375 551 c 0,31,32
 375 591 375 591 349.5 615.5 c 128,-1,33
 324 640 324 640 286 640 c 0,34,35
 245 640 245 640 218 616 c 128,-1,36
 191 592 191 592 191 554 c 1,37,-1
 72 554 l 1,38,39
 72 612 72 612 99 656.5 c 128,-1,40
 126 701 126 701 174.5 725 c 128,-1,41
 223 749 223 749 286 749 c 0,42,43
 378 749 378 749 434 700 c 128,-1,44
 490 651 490 651 490 569 c 0,45,46
 490 514 490 514 461 473.5 c 128,-1,47
 432 433 432 433 379 417 c 1,48,-1
 379 415 l 1,49,50
 405 410 405 410 429 394 c 1,51,-1
 615 394 l 1,52,-1
 615 740 l 1,53,-1
 855 740 l 1,0,-1
EndSplineSet
EndChar

StartChar: dvAA
Encoding: 2310 2310 5
Width: 1139
Flags: W
LayerCount: 2
Fore
SplineSet
1165 632 m 1,0,-1
 1054 632 l 1,1,-1
 1054 0 l 1,2,-1
 925 0 l 1,3,-1
 925 632 l 1,4,-1
 744 632 l 1,5,-1
 744 0 l 1,6,-1
 615 0 l 1,7,-1
 615 287 l 1,8,-1
 498 288 l 1,9,10
 501 269 501 269 501 251 c 0,11,12
 501 163 501 163 445 110 c 128,-1,13
 389 57 389 57 296 57 c 0,14,15
 228 57 228 57 175.5 83 c 128,-1,16
 123 109 123 109 94 156.5 c 128,-1,17
 65 204 65 204 65 265 c 1,18,-1
 186 265 l 1,19,20
 186 223 186 223 214 195.5 c 128,-1,21
 242 168 242 168 287 168 c 256,22,23
 332 168 332 168 358 194.5 c 128,-1,24
 384 221 384 221 384 263 c 0,25,26
 384 304 384 304 356 332.5 c 128,-1,27
 328 361 328 361 273 361 c 2,28,-1
 230 361 l 1,29,-1
 230 465 l 1,30,-1
 273 465 l 2,31,32
 321 465 321 465 348 490 c 128,-1,33
 375 515 375 515 375 551 c 0,34,35
 375 591 375 591 349.5 615.5 c 128,-1,36
 324 640 324 640 286 640 c 0,37,38
 245 640 245 640 218 616 c 128,-1,39
 191 592 191 592 191 554 c 1,40,-1
 72 554 l 1,41,42
 72 612 72 612 99 656.5 c 128,-1,43
 126 701 126 701 174.5 725 c 128,-1,44
 223 749 223 749 286 749 c 0,45,46
 378 749 378 749 434 700 c 128,-1,47
 490 651 490 651 490 569 c 0,48,49
 490 514 490 514 461 473.5 c 128,-1,50
 432 433 432 433 379 417 c 1,51,-1
 379 415 l 1,52,53
 405 410 405 410 429 394 c 1,54,-1
 615 394 l 1,55,-1
 615 740 l 1,56,-1
 1165 740 l 1,57,-1
 1165 632 l 1,0,-1
EndSplineSet
EndChar

StartChar: dvI
Encoding: 2311 2311 6
Width: 579
Flags: W
AnchorPoint: "Anchor-0" 351 740 basechar 0
LayerCount: 2
Fore
SplineSet
223.5 435 m 128,-1,1
 198 421 198 421 198 388 c 0,2,3
 198 358 198 358 219.5 343.5 c 128,-1,4
 241 329 241 329 277 329 c 2,5,-1
 321 329 l 2,6,7
 409 329 409 329 468 287.5 c 128,-1,8
 527 246 527 246 527 153 c 0,9,10
 527 79 527 79 480.5 31.5 c 128,-1,11
 434 -16 434 -16 351 -16 c 0,12,13
 297 -16 297 -16 261.5 5 c 128,-1,14
 226 26 226 26 208 51 c 1,15,-1
 208 -81 l 1,16,-1
 86 -81 l 1,17,-1
 86 175 l 1,18,-1
 202 175 l 1,19,20
 206 131 206 131 235.5 105.5 c 128,-1,21
 265 80 265 80 314 80 c 0,22,23
 358 80 358 80 381.5 101.5 c 128,-1,24
 405 123 405 123 405 156 c 0,25,26
 405 199 405 199 375 218.5 c 128,-1,27
 345 238 345 238 297 238 c 2,28,-1
 238 238 l 2,29,30
 167 241 167 241 118 278 c 128,-1,31
 69 315 69 315 69 389 c 0,32,33
 69 467 69 467 121 504.5 c 128,-1,34
 173 542 173 542 252 542 c 2,35,-1
 343 542 l 1,36,-1
 343 632 l 1,37,-1
 -27 632 l 1,38,-1
 -27 740 l 1,39,-1
 606 740 l 1,40,-1
 606 632 l 1,41,-1
 467 632 l 1,42,-1
 467 449 l 1,43,-1
 286 449 l 2,44,0
 249 449 249 449 223.5 435 c 128,-1,1
EndSplineSet
EndChar

StartChar: dvII
Encoding: 2312 2312 7
Width: 579
Flags: W
LayerCount: 2
Fore
SplineSet
599 825 m 1,0,1
 600 863 600 863 582.5 885.5 c 128,-1,2
 565 908 565 908 534 908 c 0,3,4
 499 908 499 908 482 883 c 128,-1,5
 465 858 465 858 465 809 c 2,6,-1
 465 740 l 1,7,-1
 606 740 l 1,8,-1
 606 632 l 1,9,-1
 467 632 l 1,10,-1
 467 449 l 1,11,-1
 286 449 l 2,12,13
 249 449 249 449 223.5 435 c 128,-1,14
 198 421 198 421 198 388 c 0,15,16
 198 358 198 358 219.5 343.5 c 128,-1,17
 241 329 241 329 277 329 c 2,18,-1
 321 329 l 2,19,20
 409 329 409 329 468 287.5 c 128,-1,21
 527 246 527 246 527 153 c 0,22,23
 527 79 527 79 480.5 31.5 c 128,-1,24
 434 -16 434 -16 351 -16 c 0,25,26
 297 -16 297 -16 261.5 5 c 128,-1,27
 226 26 226 26 208 51 c 1,28,-1
 208 -81 l 1,29,-1
 86 -81 l 1,30,-1
 86 175 l 1,31,-1
 202 175 l 1,32,33
 206 131 206 131 235.5 105.5 c 128,-1,34
 265 80 265 80 314 80 c 0,35,36
 358 80 358 80 381.5 101.5 c 128,-1,37
 405 123 405 123 405 156 c 0,38,39
 405 199 405 199 375 218.5 c 128,-1,40
 345 238 345 238 297 238 c 2,41,-1
 238 238 l 2,42,43
 167 241 167 241 118 278 c 128,-1,44
 69 315 69 315 69 389 c 0,45,46
 69 467 69 467 121 504.5 c 128,-1,47
 173 542 173 542 252 542 c 2,48,-1
 343 542 l 1,49,-1
 343 632 l 1,50,-1
 -27 632 l 1,51,-1
 -27 740 l 1,52,-1
 345 740 l 1,53,-1
 345 808 l 2,54,55
 345 898 345 898 389 957 c 128,-1,56
 433 1016 433 1016 531 1016 c 0,57,58
 620 1016 620 1016 668 964.5 c 128,-1,59
 716 913 716 913 712 825 c 1,60,-1
 599 825 l 1,0,1
EndSplineSet
EndChar

StartChar: dvU
Encoding: 2313 2313 8
Width: 569
Flags: W
AnchorPoint: "Anchor-0" 359 740 basechar 0
LayerCount: 2
Fore
SplineSet
461.5 455 m 128,-1,1
 434 415 434 415 390 406 c 1,2,-1
 390 404 l 1,3,4
 447 389 447 389 481.5 338.5 c 128,-1,5
 516 288 516 288 516 220 c 0,6,7
 516 156 516 156 489 107 c 128,-1,8
 462 58 462 58 411.5 30.5 c 128,-1,9
 361 3 361 3 291 3 c 0,10,11
 219 3 219 3 163 31.5 c 128,-1,12
 107 60 107 60 75.5 112.5 c 128,-1,13
 44 165 44 165 44 234 c 1,14,-1
 167 234 l 1,15,16
 167 184 167 184 200.5 151.5 c 128,-1,17
 234 119 234 119 285 119 c 0,18,19
 335 119 335 119 364.5 150 c 128,-1,20
 394 181 394 181 394 230 c 0,21,22
 394 277 394 277 365 311 c 128,-1,23
 336 345 336 345 278 345 c 2,24,-1
 223 345 l 1,25,-1
 223 458 l 1,26,-1
 260 458 l 2,27,28
 310 458 310 458 337.5 485.5 c 128,-1,29
 365 513 365 513 365 562 c 2,30,-1
 365 632 l 1,31,-1
 -21 632 l 1,32,-1
 -21 740 l 1,33,-1
 590 740 l 1,34,-1
 590 632 l 1,35,-1
 489 632 l 1,36,-1
 489 555 l 2,37,0
 489 495 489 495 461.5 455 c 128,-1,1
EndSplineSet
EndChar

StartChar: dvUU
Encoding: 2314 2314 9
Width: 857
Flags: W
AnchorPoint: "Anchor-0" 489 740 basechar 0
LayerCount: 2
Fore
SplineSet
461.5 455 m 128,-1,1
 434 415 434 415 390 406 c 1,2,-1
 390 404 l 1,3,-1
 579 404 l 2,4,5
 686 404 686 404 749 355 c 128,-1,6
 812 306 812 306 812 207 c 0,7,8
 812 120 812 120 760.5 71 c 128,-1,9
 709 22 709 22 620 22 c 0,10,11
 598 22 598 22 566 27 c 1,12,-1
 566 125 l 1,13,14
 577 124 577 124 598 124 c 0,15,16
 639 124 639 124 663.5 145.5 c 128,-1,17
 688 167 688 167 688 212 c 256,18,19
 688 257 688 257 658.5 279 c 128,-1,20
 629 301 629 301 581 301 c 2,21,-1
 497 301 l 1,22,23
 515 262 515 262 515 213 c 0,24,25
 515 153 515 153 488 105 c 128,-1,26
 461 57 461 57 410.5 30 c 128,-1,27
 360 3 360 3 291 3 c 0,28,29
 219 3 219 3 163 31.5 c 128,-1,30
 107 60 107 60 75.5 112.5 c 128,-1,31
 44 165 44 165 44 234 c 1,32,-1
 167 234 l 1,33,34
 167 184 167 184 200.5 151.5 c 128,-1,35
 234 119 234 119 285 119 c 0,36,37
 335 119 335 119 364.5 150 c 128,-1,38
 394 181 394 181 394 230 c 0,39,40
 394 277 394 277 365 311 c 128,-1,41
 336 345 336 345 278 345 c 2,42,-1
 223 345 l 1,43,-1
 223 458 l 1,44,-1
 260 458 l 2,45,46
 310 458 310 458 337.5 485.5 c 128,-1,47
 365 513 365 513 365 562 c 2,48,-1
 365 632 l 1,49,-1
 -21 632 l 1,50,-1
 -21 740 l 1,51,-1
 877 740 l 1,52,-1
 877 632 l 1,53,-1
 489 632 l 1,54,-1
 489 555 l 2,55,0
 489 495 489 495 461.5 455 c 128,-1,1
EndSplineSet
EndChar

StartChar: dvvR
Encoding: 2315 2315 10
Width: 1040
Flags: W
AnchorPoint: "Anchor-0" 604 740 basechar 0
LayerCount: 2
Fore
SplineSet
604 632 m 1,0,-1
 604 446 l 1,1,-1
 762 446 l 2,2,3
 833 446 833 446 833 508 c 2,4,-1
 833 553 l 1,5,-1
 944 553 l 1,6,-1
 944 202 l 1,7,-1
 921 202 l 2,8,9
 874 202 874 202 849.5 178.5 c 128,-1,10
 825 155 825 155 825 118 c 0,11,12
 825 76 825 76 852.5 56 c 128,-1,13
 880 36 880 36 926 36 c 0,14,15
 951 36 951 36 983 44 c 1,16,-1
 983 -59 l 1,17,18
 943 -67 943 -67 908 -67 c 0,19,20
 817 -67 817 -67 759 -21.5 c 128,-1,21
 701 24 701 24 701 106 c 0,22,23
 701 170 701 170 736.5 213 c 128,-1,24
 772 256 772 256 833 272 c 1,25,-1
 833 361 l 1,26,27
 795 344 795 344 743 344 c 2,28,-1
 604 344 l 1,29,-1
 604 0 l 1,30,-1
 485 0 l 1,31,-1
 485 209 l 1,32,-1
 265 0 l 1,33,-1
 102 0 l 1,34,-1
 102 6 l 1,35,-1
 484 337 l 1,36,37
 472 382 472 382 436 409 c 128,-1,38
 400 436 400 436 349 436 c 0,39,40
 279 436 279 436 237 392.5 c 128,-1,41
 195 349 195 349 195 277 c 1,42,-1
 66 277 l 1,43,44
 66 356 66 356 96 417 c 128,-1,45
 126 478 126 478 181.5 511.5 c 128,-1,46
 237 545 237 545 311 545 c 0,47,48
 425 545 425 545 485 465 c 1,49,-1
 485 632 l 1,50,-1
 -21 632 l 1,51,-1
 -21 740 l 1,52,-1
 1061 740 l 1,53,-1
 1061 632 l 1,54,-1
 604 632 l 1,0,-1
EndSplineSet
EndChar

StartChar: dvvRR
Encoding: 2400 2400 11
Width: 1014
Flags: W
AnchorPoint: "Anchor-0" 604 740 basechar 0
LayerCount: 2
Fore
SplineSet
604 632 m 1,0,-1
 604 446 l 1,1,-1
 762 446 l 2,2,3
 833 446 833 446 833 508 c 2,4,-1
 833 553 l 1,5,-1
 944 553 l 1,6,-1
 944 199 l 1,7,-1
 907 199 l 2,8,9
 827 199 827 199 827 140 c 0,10,11
 827 111 827 111 850.5 97 c 128,-1,12
 874 83 874 83 910 83 c 2,13,-1
 963 83 l 1,14,-1
 963 -13 l 1,15,-1
 914 -13 l 2,16,17
 826 -13 826 -13 826 -74 c 0,18,19
 826 -106 826 -106 852 -119.5 c 128,-1,20
 878 -133 878 -133 918 -133 c 0,21,22
 967 -133 967 -133 1018 -118 c 1,23,-1
 1018 -214 l 1,24,25
 996 -223 996 -223 963 -228.5 c 128,-1,26
 930 -234 930 -234 898 -234 c 0,27,28
 816 -234 816 -234 759.5 -197.5 c 128,-1,29
 703 -161 703 -161 703 -87 c 0,30,31
 703 -42 703 -42 730 -10 c 128,-1,32
 757 22 757 22 799 31 c 1,33,-1
 799 35 l 1,34,35
 756 45 756 45 729.5 72.5 c 128,-1,36
 703 100 703 100 703 147 c 0,37,38
 703 204 703 204 741 234 c 128,-1,39
 779 264 779 264 833 269 c 1,40,-1
 833 361 l 1,41,42
 795 344 795 344 743 344 c 2,43,-1
 604 344 l 1,44,-1
 604 0 l 1,45,-1
 485 0 l 1,46,-1
 485 209 l 1,47,-1
 265 0 l 1,48,-1
 102 0 l 1,49,-1
 102 6 l 1,50,-1
 484 337 l 1,51,52
 472 382 472 382 436 409 c 128,-1,53
 400 436 400 436 349 436 c 0,54,55
 279 436 279 436 237 392.5 c 128,-1,56
 195 349 195 349 195 277 c 1,57,-1
 66 277 l 1,58,59
 66 356 66 356 96 417 c 128,-1,60
 126 478 126 478 181.5 511.5 c 128,-1,61
 237 545 237 545 311 545 c 0,62,63
 425 545 425 545 485 465 c 1,64,-1
 485 632 l 1,65,-1
 -21 632 l 1,66,-1
 -21 740 l 1,67,-1
 1062 740 l 1,68,-1
 1062 632 l 1,69,-1
 604 632 l 1,0,-1
EndSplineSet
EndChar

StartChar: dvvL
Encoding: 2316 2316 12
Width: 904
Flags: W
AnchorPoint: "Anchor-0" 701 740 basechar 0
LayerCount: 2
Fore
SplineSet
701 632 m 1,0,-1
 701 526 l 1,1,2
 766 506 766 506 805.5 447 c 128,-1,3
 845 388 845 388 845 299 c 0,4,5
 845 247 845 247 829 199 c 1,6,-1
 822 199 l 2,7,8
 765 199 765 199 737.5 175.5 c 128,-1,9
 710 152 710 152 710 114 c 0,10,11
 710 73 710 73 738.5 53.5 c 128,-1,12
 767 34 767 34 813 34 c 0,13,14
 847 34 847 34 871 41 c 1,15,-1
 871 -62 l 1,16,17
 831 -69 831 -69 797 -69 c 0,18,19
 703 -69 703 -69 644.5 -23.5 c 128,-1,20
 586 22 586 22 586 108 c 0,21,22
 586 166 586 166 622 209 c 128,-1,23
 658 252 658 252 714 266 c 1,24,25
 716 277 716 277 716 300 c 0,26,27
 716 354 716 354 689.5 388 c 128,-1,28
 663 422 663 422 615 422 c 0,29,30
 562 422 562 422 535.5 382.5 c 128,-1,31
 509 343 509 343 509 279 c 2,32,-1
 509 254 l 1,33,-1
 401 254 l 1,34,-1
 401 279 l 2,35,36
 401 342 401 342 375 382 c 128,-1,37
 349 422 349 422 298 422 c 0,38,39
 246 422 246 422 218 387.5 c 128,-1,40
 190 353 190 353 190 297 c 0,41,42
 190 232 190 232 223.5 196.5 c 128,-1,43
 257 161 257 161 317 161 c 1,44,-1
 344 163 l 1,45,-1
 344 50 l 1,46,47
 331 49 331 49 310 49 c 0,48,49
 190 49 190 49 124.5 117 c 128,-1,50
 59 185 59 185 59 299 c 0,51,52
 59 375 59 375 88 428.5 c 128,-1,53
 117 482 117 482 167.5 509 c 128,-1,54
 218 536 218 536 280 536 c 0,55,56
 348 536 348 536 390.5 500 c 128,-1,57
 433 464 433 464 452 409 c 1,58,-1
 455 409 l 1,59,60
 470 451 470 451 500 483 c 128,-1,61
 530 515 530 515 576 528 c 1,62,-1
 576 632 l 1,63,-1
 -21 632 l 1,64,-1
 -21 740 l 1,65,-1
 924 740 l 1,66,-1
 924 632 l 1,67,-1
 701 632 l 1,0,-1
EndSplineSet
EndChar

StartChar: dvvLL
Encoding: 2401 2401 13
Width: 913
Flags: W
AnchorPoint: "Anchor-0" 701 740 basechar 0
LayerCount: 2
Fore
SplineSet
701 632 m 1,0,-1
 701 526 l 1,1,2
 766 506 766 506 805.5 447 c 128,-1,3
 845 388 845 388 845 299 c 0,4,5
 845 247 845 247 829 199 c 1,6,-1
 796 199 l 2,7,8
 716 199 716 199 716 140 c 0,9,10
 716 111 716 111 739.5 97 c 128,-1,11
 763 83 763 83 799 83 c 2,12,-1
 853 83 l 1,13,-1
 853 -13 l 1,14,-1
 804 -13 l 2,15,16
 715 -13 715 -13 715 -74 c 0,17,18
 715 -106 715 -106 741 -119.5 c 128,-1,19
 767 -133 767 -133 807 -133 c 0,20,21
 834 -133 834 -133 862 -128 c 128,-1,22
 890 -123 890 -123 907 -118 c 1,23,-1
 907 -214 l 1,24,25
 885 -223 885 -223 852 -228.5 c 128,-1,26
 819 -234 819 -234 788 -234 c 0,27,28
 705 -234 705 -234 648.5 -197.5 c 128,-1,29
 592 -161 592 -161 592 -86 c 0,30,31
 592 -42 592 -42 619 -10 c 128,-1,32
 646 22 646 22 688 31 c 1,33,-1
 688 35 l 1,34,35
 645 45 645 45 618.5 72.5 c 128,-1,36
 592 100 592 100 592 147 c 0,37,38
 592 202 592 202 627 231 c 128,-1,39
 662 260 662 260 714 268 c 1,40,41
 716 288 716 288 716 300 c 0,42,43
 716 354 716 354 689.5 388 c 128,-1,44
 663 422 663 422 615 422 c 0,45,46
 562 422 562 422 535.5 382.5 c 128,-1,47
 509 343 509 343 509 279 c 2,48,-1
 509 254 l 1,49,-1
 401 254 l 1,50,-1
 401 279 l 2,51,52
 401 342 401 342 375 382 c 128,-1,53
 349 422 349 422 298 422 c 0,54,55
 246 422 246 422 218 387.5 c 128,-1,56
 190 353 190 353 190 297 c 0,57,58
 190 232 190 232 223.5 196.5 c 128,-1,59
 257 161 257 161 317 161 c 1,60,-1
 344 163 l 1,61,-1
 344 50 l 1,62,63
 331 49 331 49 310 49 c 0,64,65
 190 49 190 49 124.5 117 c 128,-1,66
 59 185 59 185 59 299 c 0,67,68
 59 375 59 375 88 428.5 c 128,-1,69
 117 482 117 482 167.5 509 c 128,-1,70
 218 536 218 536 280 536 c 0,71,72
 348 536 348 536 390.5 500 c 128,-1,73
 433 464 433 464 452 409 c 1,74,-1
 455 409 l 1,75,76
 470 451 470 451 500 483 c 128,-1,77
 530 515 530 515 576 528 c 1,78,-1
 576 632 l 1,79,-1
 -21 632 l 1,80,-1
 -21 740 l 1,81,-1
 931 740 l 1,82,-1
 931 632 l 1,83,-1
 701 632 l 1,0,-1
EndSplineSet
EndChar

StartChar: dvE
Encoding: 2319 2319 14
Width: 652
Flags: W
AnchorPoint: "Anchor-0" 408 740 basechar 0
LayerCount: 2
Fore
SplineSet
673 632 m 1,0,-1
 576 632 l 1,1,-1
 576 539 l 2,2,3
 576 435 576 435 535 382 c 128,-1,4
 494 329 494 329 400 329 c 0,5,6
 377 329 377 329 351 332 c 1,7,-1
 351 448 l 1,8,9
 358 447 358 447 372 447 c 0,10,11
 413 447 413 447 432 470.5 c 128,-1,12
 451 494 451 494 451 543 c 2,13,-1
 451 632 l 1,14,-1
 219 632 l 1,15,-1
 219 266 l 2,16,17
 219 200 219 200 250 164.5 c 128,-1,18
 281 129 281 129 337 129 c 0,19,20
 390 129 390 129 420 160 c 128,-1,21
 450 191 450 191 450 246 c 1,22,-1
 576 246 l 1,23,24
 576 139 576 139 512.5 79 c 128,-1,25
 449 19 449 19 340 19 c 0,26,27
 217 19 217 19 153.5 87 c 128,-1,28
 90 155 90 155 90 271 c 2,29,-1
 89 632 l 1,30,-1
 -21 632 l 1,31,-1
 -21 740 l 1,32,-1
 673 740 l 1,33,-1
 673 632 l 1,0,-1
EndSplineSet
EndChar

StartChar: dvAI
Encoding: 2320 2320 15
Width: 652
Flags: W
AnchorPoint: "Anchor-0" 707 740 basechar 0
LayerCount: 2
Fore
SplineSet
673 632 m 1,0,-1
 576 632 l 1,1,-1
 576 539 l 2,2,3
 576 435 576 435 535 382 c 128,-1,4
 494 329 494 329 400 329 c 0,5,6
 377 329 377 329 351 332 c 1,7,-1
 351 448 l 1,8,9
 358 447 358 447 372 447 c 0,10,11
 413 447 413 447 432 470.5 c 128,-1,12
 451 494 451 494 451 543 c 2,13,-1
 451 632 l 1,14,-1
 219 632 l 1,15,-1
 219 266 l 2,16,17
 219 200 219 200 250 164.5 c 128,-1,18
 281 129 281 129 337 129 c 0,19,20
 390 129 390 129 420 160 c 128,-1,21
 450 191 450 191 450 246 c 1,22,-1
 576 246 l 1,23,24
 576 139 576 139 512.5 79 c 128,-1,25
 449 19 449 19 340 19 c 0,26,27
 217 19 217 19 153.5 87 c 128,-1,28
 90 155 90 155 90 271 c 2,29,-1
 89 632 l 1,30,-1
 -21 632 l 1,31,-1
 -21 740 l 1,32,-1
 447 740 l 1,33,34
 403 808 403 808 375.5 838.5 c 128,-1,35
 348 869 348 869 320 878.5 c 128,-1,36
 292 888 292 888 243 888 c 2,37,-1
 194 888 l 1,38,-1
 194 993 l 1,39,-1
 240 993 l 2,40,41
 320 992 320 992 366.5 976 c 128,-1,42
 413 960 413 960 458.5 907.5 c 128,-1,43
 504 855 504 855 570 740 c 1,44,-1
 673 740 l 1,45,-1
 673 632 l 1,0,-1
EndSplineSet
EndChar

StartChar: dvO
Encoding: 2323 2323 16
Width: 1144
Flags: W
AnchorPoint: "Anchor-0" 1190 740 basechar 0
LayerCount: 2
Fore
SplineSet
1165 740 m 1,0,-1
 1165 632 l 1,1,-1
 1054 632 l 1,2,-1
 1054 0 l 1,3,-1
 925 0 l 1,4,-1
 925 632 l 1,5,-1
 744 632 l 1,6,-1
 744 0 l 1,7,-1
 615 0 l 1,8,-1
 615 287 l 1,9,-1
 498 288 l 1,10,11
 501 269 501 269 501 251 c 0,12,13
 501 163 501 163 445 110 c 128,-1,14
 389 57 389 57 296 57 c 0,15,16
 228 57 228 57 175.5 83 c 128,-1,17
 123 109 123 109 94 156.5 c 128,-1,18
 65 204 65 204 65 265 c 1,19,-1
 186 265 l 1,20,21
 186 223 186 223 214 195.5 c 128,-1,22
 242 168 242 168 287 168 c 256,23,24
 332 168 332 168 358 194.5 c 128,-1,25
 384 221 384 221 384 263 c 0,26,27
 384 304 384 304 356 332.5 c 128,-1,28
 328 361 328 361 273 361 c 2,29,-1
 230 361 l 1,30,-1
 230 465 l 1,31,-1
 273 465 l 2,32,33
 321 465 321 465 348 490 c 128,-1,34
 375 515 375 515 375 551 c 0,35,36
 375 591 375 591 349.5 615.5 c 128,-1,37
 324 640 324 640 286 640 c 0,38,39
 245 640 245 640 218 616 c 128,-1,40
 191 592 191 592 191 554 c 1,41,-1
 72 554 l 1,42,43
 72 612 72 612 99 656.5 c 128,-1,44
 126 701 126 701 174.5 725 c 128,-1,45
 223 749 223 749 286 749 c 0,46,47
 378 749 378 749 434 700 c 128,-1,48
 490 651 490 651 490 569 c 0,49,50
 490 514 490 514 461 473.5 c 128,-1,51
 432 433 432 433 379 417 c 1,52,-1
 379 415 l 1,53,54
 405 410 405 410 429 394 c 1,55,-1
 615 394 l 1,56,-1
 615 740 l 1,57,-1
 925 740 l 1,58,59
 881 808 881 808 853.5 838.5 c 128,-1,60
 826 869 826 869 798 878.5 c 128,-1,61
 770 888 770 888 721 888 c 2,62,-1
 672 888 l 1,63,-1
 672 993 l 1,64,-1
 718 993 l 2,65,66
 798 992 798 992 844.5 976 c 128,-1,67
 891 960 891 960 936.5 907.5 c 128,-1,68
 982 855 982 855 1048 740 c 1,69,-1
 1165 740 l 1,0,-1
EndSplineSet
EndChar

StartChar: dvAU
Encoding: 2324 2324 17
Width: 1144
Flags: W
AnchorPoint: "Anchor-0" 1196 740 basechar 0
LayerCount: 2
Fore
SplineSet
1165 740 m 1,0,-1
 1165 632 l 1,1,-1
 1054 632 l 1,2,-1
 1054 0 l 1,3,-1
 925 0 l 1,4,-1
 925 632 l 1,5,-1
 744 632 l 1,6,-1
 744 0 l 1,7,-1
 615 0 l 1,8,-1
 615 287 l 1,9,-1
 498 288 l 1,10,11
 501 269 501 269 501 251 c 0,12,13
 501 163 501 163 445 110 c 128,-1,14
 389 57 389 57 296 57 c 0,15,16
 228 57 228 57 175.5 83 c 128,-1,17
 123 109 123 109 94 156.5 c 128,-1,18
 65 204 65 204 65 265 c 1,19,-1
 186 265 l 1,20,21
 186 223 186 223 214 195.5 c 128,-1,22
 242 168 242 168 287 168 c 256,23,24
 332 168 332 168 358 194.5 c 128,-1,25
 384 221 384 221 384 263 c 0,26,27
 384 304 384 304 356 332.5 c 128,-1,28
 328 361 328 361 273 361 c 2,29,-1
 230 361 l 1,30,-1
 230 465 l 1,31,-1
 273 465 l 2,32,33
 321 465 321 465 348 490 c 128,-1,34
 375 515 375 515 375 551 c 0,35,36
 375 591 375 591 349.5 615.5 c 128,-1,37
 324 640 324 640 286 640 c 0,38,39
 245 640 245 640 218 616 c 128,-1,40
 191 592 191 592 191 554 c 1,41,-1
 72 554 l 1,42,43
 72 612 72 612 99 656.5 c 128,-1,44
 126 701 126 701 174.5 725 c 128,-1,45
 223 749 223 749 286 749 c 0,46,47
 378 749 378 749 434 700 c 128,-1,48
 490 651 490 651 490 569 c 0,49,50
 490 514 490 514 461 473.5 c 128,-1,51
 432 433 432 433 379 417 c 1,52,-1
 379 415 l 1,53,54
 405 410 405 410 429 394 c 1,55,-1
 615 394 l 1,56,-1
 615 740 l 1,57,-1
 933 740 l 1,58,59
 873 781 873 781 846.5 795.5 c 128,-1,60
 820 810 820 810 794 814 c 128,-1,61
 768 818 768 818 710 818 c 2,62,-1
 660 818 l 1,63,-1
 660 899 l 1,64,-1
 707 899 l 2,65,66
 763 899 763 899 790 895.5 c 128,-1,67
 817 892 817 892 844.5 878.5 c 128,-1,68
 872 865 872 865 913 833 c 1,69,70
 875 901 875 901 844 932 c 128,-1,71
 813 963 813 963 785.5 970.5 c 128,-1,72
 758 978 758 978 712 978 c 2,73,-1
 660 978 l 1,74,-1
 660 1060 l 1,75,-1
 710 1060 l 2,76,77
 790 1060 790 1060 831.5 1042.5 c 128,-1,78
 873 1025 873 1025 919 960.5 c 128,-1,79
 965 896 965 896 1045 740 c 1,80,-1
 1165 740 l 1,0,-1
EndSplineSet
EndChar

StartChar: dvmAA
Encoding: 2366 2366 21
Width: 309
Flags: W
LayerCount: 2
Fore
SplineSet
90 0 m 1,0,-1
 90 632 l 1,1,-1
 -21 632 l 1,2,-1
 -21 740 l 1,3,-1
 330 740 l 1,4,-1
 330 632 l 1,5,-1
 219 632 l 1,6,-1
 219 0 l 1,7,-1
 90 0 l 1,0,-1
EndSplineSet
EndChar

StartChar: dvmI
Encoding: 2367 2367 22
Width: 309
Flags: W
LayerCount: 2
Fore
SplineSet
704 983 m 128,-1,1
 796 948 796 948 848 882 c 128,-1,2
 900 816 900 816 900 728 c 2,3,-1
 900 711 l 1,4,-1
 771 711 l 1,5,-1
 771 726 l 2,6,7
 771 789 771 789 731.5 830.5 c 128,-1,8
 692 872 692 872 629 892 c 128,-1,9
 566 912 566 912 495 912 c 0,10,11
 382 912 382 912 302.5 871 c 128,-1,12
 223 830 223 830 218 740 c 1,13,-1
 330 740 l 1,14,-1
 330 632 l 1,15,-1
 219 632 l 1,16,-1
 219 0 l 1,17,-1
 90 0 l 1,18,-1
 90 632 l 1,19,-1
 -21 632 l 1,20,-1
 -21 740 l 1,21,-1
 90 740 l 1,22,23
 93 828 93 828 145.5 890.5 c 128,-1,24
 198 953 198 953 288.5 985.5 c 128,-1,25
 379 1018 379 1018 495 1018 c 0,26,0
 612 1018 612 1018 704 983 c 128,-1,1
EndSplineSet
Substitution2: "Single Substitution lookup 48 subtable" dvmI.a24
Substitution2: "Single Substitution lookup 47 subtable" dvmI.a23
Substitution2: "Single Substitution lookup 46 subtable" dvmI.a22
Substitution2: "Single Substitution lookup 45 subtable" dvmI.a21
Substitution2: "Single Substitution lookup 44 subtable" dvmI.a20
Substitution2: "Single Substitution lookup 43 subtable" dvmI.a19
Substitution2: "Single Substitution lookup 42 subtable" dvmI.a18
Substitution2: "Single Substitution lookup 41 subtable" dvmI.a17
Substitution2: "Single Substitution lookup 40 subtable" dvmI.a16
Substitution2: "Single Substitution lookup 39 subtable" dvmI.a15
Substitution2: "Single Substitution lookup 38 subtable" dvmI.a14
Substitution2: "Single Substitution lookup 37 subtable" dvmI.a13
Substitution2: "Single Substitution lookup 36 subtable" dvmI.a12
Substitution2: "Single Substitution lookup 35 subtable" dvmI.a11
Substitution2: "Single Substitution lookup 34 subtable" dvmI.a10
Substitution2: "Single Substitution lookup 33 subtable" dvmI.a09
Substitution2: "Single Substitution lookup 32 subtable" dvmI.a08
Substitution2: "Single Substitution lookup 31 subtable" dvmI.a07
Substitution2: "Single Substitution lookup 30 subtable" dvmI.a06
Substitution2: "Single Substitution lookup 29 subtable" dvmI.a05
Substitution2: "Single Substitution lookup 28 subtable" dvmI.a04
Substitution2: "Single Substitution lookup 27 subtable" dvmI.a03
Substitution2: "Single Substitution lookup 26 subtable" dvmI.a02
Substitution2: "Single Substitution lookup 25 subtable" dvmI.a01
EndChar

StartChar: dvmII
Encoding: 2368 2368 23
Width: 309
Flags: W
LayerCount: 2
Fore
SplineSet
330 740 m 1,0,-1
 330 632 l 1,1,-1
 219 632 l 1,2,-1
 219 0 l 1,3,-1
 90 0 l 1,4,-1
 90 632 l 1,5,-1
 -21 632 l 1,6,-1
 -21 740 l 1,7,-1
 94 740 l 1,8,-1
 94 780 l 2,9,10
 94 834 94 834 74 871.5 c 128,-1,11
 54 909 54 909 1 909 c 0,12,13
 -53 909 -53 909 -73.5 871.5 c 128,-1,14
 -94 834 -94 834 -94 780 c 2,15,-1
 -94 711 l 1,16,-1
 -219 711 l 1,17,-1
 -219 773 l 2,18,19
 -219 886 -219 886 -166.5 952 c 128,-1,20
 -114 1018 -114 1018 1 1018 c 0,21,22
 219 1018 219 1018 219 773 c 2,23,-1
 219 740 l 1,24,-1
 330 740 l 1,0,-1
EndSplineSet
Substitution2: "Single Substitution lookup 51 subtable" dvmII.aLong
EndChar

StartChar: dvmU
Encoding: 2369 2369 24
Width: 0
GlyphClass: 4
Flags: W
AnchorPoint: "Anchor-2" -90 0 mark 0
LayerCount: 2
Fore
SplineSet
-51 -275 m 128,-1,1
 -108 -324 -108 -324 -206 -324 c 0,2,3
 -313 -324 -313 -324 -384 -269 c 128,-1,4
 -455 -214 -455 -214 -453 -101 c 1,5,-1
 -339 -101 l 1,6,7
 -341 -163 -341 -163 -305 -193.5 c 128,-1,8
 -269 -224 -269 -224 -209 -224 c 0,9,10
 -160 -224 -160 -224 -132 -202 c 128,-1,11
 -104 -180 -104 -180 -104 -140 c 0,12,13
 -104 -107 -104 -107 -126 -85 c 128,-1,14
 -148 -63 -148 -63 -189 -63 c 2,15,-1
 -219 -63 l 1,16,-1
 -219 38 l 1,17,-1
 -189 38 l 2,18,19
 -94 38 -94 38 -44 -10.5 c 128,-1,20
 6 -59 6 -59 6 -141 c 0,21,0
 6 -226 6 -226 -51 -275 c 128,-1,1
EndSplineSet
EndChar

StartChar: dvmUU
Encoding: 2370 2370 25
Width: 0
GlyphClass: 4
Flags: W
AnchorPoint: "Anchor-2" -90 0 mark 0
LayerCount: 2
Fore
SplineSet
-185 -312 m 0,1,2
 -263 -312 -263 -312 -314.5 -268 c 128,-1,3
 -366 -224 -366 -224 -366 -143 c 0,4,5
 -366 -61 -366 -61 -308.5 -13.5 c 128,-1,6
 -251 34 -251 34 -159 34 c 0,7,8
 -25 34 -25 34 37 -48 c 128,-1,9
 99 -130 99 -130 99 -259 c 0,10,11
 99 -276 99 -276 97 -306 c 1,12,-1
 -8 -306 l 1,13,-1
 -8 -252 l 2,14,15
 -8 -161 -8 -161 -47.5 -112 c 128,-1,16
 -87 -63 -87 -63 -160 -63 c 0,17,18
 -205 -63 -205 -63 -234 -84.5 c 128,-1,19
 -263 -106 -263 -106 -263 -144 c 0,20,21
 -263 -179 -263 -179 -238 -199 c 128,-1,22
 -213 -219 -213 -219 -177 -219 c 0,23,24
 -158 -219 -158 -219 -147 -218 c 1,25,-1
 -147 -311 l 1,26,0
 -160 -312 -160 -312 -185 -312 c 0,1,2
EndSplineSet
EndChar

StartChar: dvmvR
Encoding: 2371 2371 26
Width: 0
GlyphClass: 4
Flags: W
AnchorPoint: "Anchor-2" -90 0 mark 0
LayerCount: 2
Fore
SplineSet
-137 -326 m 0,1,2
 -224 -326 -224 -326 -285 -281.5 c 128,-1,3
 -346 -237 -346 -237 -346 -144 c 0,4,5
 -346 -64 -346 -64 -291 -14.5 c 128,-1,6
 -236 35 -236 35 -139 35 c 0,7,8
 -99 35 -99 35 -90 34 c 1,9,-1
 -90 -54 l 1,10,-1
 -129 -54 l 2,11,12
 -173 -54 -173 -54 -197 -78 c 128,-1,13
 -221 -102 -221 -102 -221 -139 c 0,14,15
 -221 -183 -221 -183 -191.5 -203 c 128,-1,16
 -162 -223 -162 -223 -116 -223 c 0,17,18
 -78 -223 -78 -223 -37 -211 c 1,19,-1
 -37 -311 l 1,20,0
 -82 -326 -82 -326 -137 -326 c 0,1,2
EndSplineSet
Substitution2: "Single Substitution lookup 13 subtable" dvReph
EndChar

StartChar: dvmvRR
Encoding: 2372 2372 27
Width: 0
GlyphClass: 4
Flags: W
AnchorPoint: "Anchor-2" -90 0 mark 0
LayerCount: 2
Fore
SplineSet
-59 -463 m 128,-1,1
 -92 -468 -92 -468 -124 -468 c 0,2,3
 -206 -468 -206 -468 -263 -432.5 c 128,-1,4
 -320 -397 -320 -397 -320 -323 c 0,5,6
 -320 -276 -320 -276 -293 -244.5 c 128,-1,7
 -266 -213 -266 -213 -223 -204 c 1,8,-1
 -223 -200 l 1,9,10
 -266 -190 -266 -190 -292.5 -162.5 c 128,-1,11
 -319 -135 -319 -135 -319 -88 c 0,12,13
 -319 -24 -319 -24 -272.5 5.5 c 128,-1,14
 -226 35 -226 35 -165 35 c 2,15,-1
 -90 35 l 1,16,-1
 -90 -36 l 1,17,-1
 -115 -36 l 2,18,19
 -195 -36 -195 -36 -195 -95 c 0,20,21
 -195 -125 -195 -125 -172 -138.5 c 128,-1,22
 -149 -152 -149 -152 -113 -152 c 2,23,-1
 -59 -152 l 1,24,-1
 -59 -248 l 1,25,-1
 -107 -248 l 2,26,27
 -196 -248 -196 -248 -196 -309 c 0,28,29
 -196 -341 -196 -341 -170 -354.5 c 128,-1,30
 -144 -368 -144 -368 -104 -368 c 0,31,32
 -76 -368 -76 -368 -47.5 -363 c 128,-1,33
 -19 -358 -19 -358 -5 -353 c 1,34,-1
 -5 -450 l 1,35,0
 -26 -458 -26 -458 -59 -463 c 128,-1,1
EndSplineSet
Substitution2: "Single Substitution lookup 13 subtable" dvReph
EndChar

StartChar: dvmvL
Encoding: 2402 2402 28
Width: 0
GlyphClass: 4
Flags: W
AnchorPoint: "Anchor-2" -90 0 mark 0
LayerCount: 2
Fore
SplineSet
158 -386 m 1,1,-1
 158 -467 l 1,2,3
 130 -472 130 -472 103 -472 c 0,4,5
 31 -472 31 -472 -13.5 -437.5 c 128,-1,6
 -58 -403 -58 -403 -58 -339 c 0,7,8
 -58 -295 -58 -295 -31.5 -263 c 128,-1,9
 -5 -231 -5 -231 37 -220 c 1,10,11
 38 -213 38 -213 38 -199 c 0,12,13
 38 -159 38 -159 19.5 -134.5 c 128,-1,14
 1 -110 1 -110 -34 -110 c 0,15,16
 -72 -110 -72 -110 -91 -138.5 c 128,-1,17
 -110 -167 -110 -167 -110 -213 c 2,18,-1
 -110 -231 l 1,19,-1
 -194 -231 l 1,20,-1
 -194 -213 l 2,21,22
 -194 -167 -194 -167 -212.5 -138.5 c 128,-1,23
 -231 -110 -231 -110 -268 -110 c 256,24,25
 -305 -110 -305 -110 -325.5 -134.5 c 128,-1,26
 -346 -159 -346 -159 -346 -200 c 0,27,28
 -346 -246 -346 -246 -321.5 -271.5 c 128,-1,29
 -297 -297 -297 -297 -255 -297 c 0,30,31
 -240 -297 -240 -297 -234 -295 c 1,32,-1
 -234 -383 l 1,33,34
 -244 -384 -244 -384 -259 -384 c 0,35,36
 -349 -384 -349 -384 -398 -333.5 c 128,-1,37
 -447 -283 -447 -283 -447 -199 c 0,38,39
 -447 -114 -447 -114 -400 -67.5 c 128,-1,40
 -353 -21 -353 -21 -283 -21 c 0,41,42
 -232 -21 -232 -21 -200.5 -47 c 128,-1,43
 -169 -73 -169 -73 -155 -114 c 1,44,-1
 -152 -114 l 1,45,46
 -138 -74 -138 -74 -104 -47.5 c 128,-1,47
 -70 -21 -70 -21 -18 -21 c 0,48,49
 26 -21 26 -21 62 -41.5 c 128,-1,50
 98 -62 98 -62 119.5 -102.5 c 128,-1,51
 141 -143 141 -143 141 -199 c 0,52,53
 141 -233 141 -233 129 -272 c 1,54,-1
 123 -272 l 2,55,56
 80 -272 80 -272 59.5 -289 c 128,-1,57
 39 -306 39 -306 39 -333 c 0,58,59
 39 -361 39 -361 60.5 -376 c 128,-1,60
 82 -391 82 -391 114 -391 c 0,61,0
 143 -391 143 -391 158 -386 c 1,1,-1
EndSplineSet
Substitution2: "Single Substitution lookup 13 subtable" dvReph
EndChar

StartChar: dvmvLL
Encoding: 2403 2403 29
Width: 0
GlyphClass: 4
Flags: W
AnchorPoint: "Anchor-2" -90 0 mark 0
LayerCount: 2
Fore
SplineSet
151.5 -512.5 m 128,-1,1
 172 -509 172 -509 184 -505 c 1,2,-1
 184 -580 l 1,3,4
 168 -586 168 -586 143.5 -589.5 c 128,-1,5
 119 -593 119 -593 95 -593 c 0,6,7
 33 -593 33 -593 -9 -567 c 128,-1,8
 -51 -541 -51 -541 -51 -485 c 0,9,10
 -51 -450 -51 -450 -31 -426.5 c 128,-1,11
 -11 -403 -11 -403 20 -396 c 1,12,-1
 20 -394 l 1,13,14
 -12 -387 -12 -387 -31.5 -365.5 c 128,-1,15
 -51 -344 -51 -344 -51 -309 c 0,16,17
 -51 -268 -51 -268 -26 -246 c 128,-1,18
 -1 -224 -1 -224 37 -218 c 1,19,20
 38 -212 38 -212 38 -199 c 0,21,22
 38 -159 38 -159 19.5 -134.5 c 128,-1,23
 1 -110 1 -110 -34 -110 c 0,24,25
 -72 -110 -72 -110 -91 -138.5 c 128,-1,26
 -110 -167 -110 -167 -110 -213 c 2,27,-1
 -110 -231 l 1,28,-1
 -194 -231 l 1,29,-1
 -194 -213 l 2,30,31
 -194 -167 -194 -167 -212.5 -138.5 c 128,-1,32
 -231 -110 -231 -110 -268 -110 c 256,33,34
 -305 -110 -305 -110 -325.5 -134.5 c 128,-1,35
 -346 -159 -346 -159 -346 -200 c 0,36,37
 -346 -246 -346 -246 -321.5 -271.5 c 128,-1,38
 -297 -297 -297 -297 -255 -297 c 0,39,40
 -240 -297 -240 -297 -234 -295 c 1,41,-1
 -234 -383 l 1,42,43
 -244 -384 -244 -384 -259 -384 c 0,44,45
 -349 -384 -349 -384 -398 -333.5 c 128,-1,46
 -447 -283 -447 -283 -447 -199 c 0,47,48
 -447 -114 -447 -114 -400 -67.5 c 128,-1,49
 -353 -21 -353 -21 -283 -21 c 0,50,51
 -232 -21 -232 -21 -200.5 -47 c 128,-1,52
 -169 -73 -169 -73 -155 -114 c 1,53,-1
 -152 -114 l 1,54,55
 -138 -74 -138 -74 -104 -47.5 c 128,-1,56
 -70 -21 -70 -21 -18 -21 c 0,57,58
 26 -21 26 -21 62 -41.5 c 128,-1,59
 98 -62 98 -62 119.5 -102.5 c 128,-1,60
 141 -143 141 -143 141 -199 c 0,61,62
 141 -233 141 -233 129 -272 c 1,63,-1
 103 -272 l 2,64,65
 45 -272 45 -272 45 -314 c 0,66,67
 45 -335 45 -335 61.5 -345 c 128,-1,68
 78 -355 78 -355 106 -355 c 2,69,-1
 144 -355 l 1,70,-1
 144 -430 l 1,71,-1
 109 -430 l 2,72,73
 44 -430 44 -430 44 -474 c 0,74,75
 44 -516 44 -516 110 -516 c 0,76,0
 131 -516 131 -516 151.5 -512.5 c 128,-1,1
EndSplineSet
Substitution2: "Single Substitution lookup 13 subtable" dvReph
EndChar

StartChar: dvmE
Encoding: 2375 2375 30
Width: 0
GlyphClass: 4
Flags: W
AnchorPoint: "Anchor-0" -91 740 mark 0
LayerCount: 2
Fore
SplineSet
-213 736 m 1,0,1
 -258 806 -258 806 -286 837 c 128,-1,2
 -314 868 -314 868 -342.5 878 c 128,-1,3
 -371 888 -371 888 -420 888 c 2,4,-1
 -469 888 l 1,5,-1
 -469 993 l 1,6,-1
 -423 993 l 2,7,8
 -343 992 -343 992 -296 976 c 128,-1,9
 -249 960 -249 960 -203 906.5 c 128,-1,10
 -157 853 -157 853 -91 736 c 1,11,-1
 -213 736 l 1,0,1
EndSplineSet
EndChar

StartChar: dvmAI
Encoding: 2376 2376 31
Width: 0
GlyphClass: 4
Flags: W
AnchorPoint: "Anchor-0" -90 740 mark 0
LayerCount: 2
Fore
SplineSet
-307.5 1042.5 m 128,-1,1
 -266 1025 -266 1025 -219.5 960 c 128,-1,2
 -173 895 -173 895 -92 737 c 1,3,-1
 -202 737 l 1,4,5
 -265 780 -265 780 -292 795 c 128,-1,6
 -319 810 -319 810 -345 814 c 128,-1,7
 -371 818 -371 818 -429 818 c 2,8,-1
 -479 818 l 1,9,-1
 -479 899 l 1,10,-1
 -432 899 l 2,11,12
 -376 899 -376 899 -349 895.5 c 128,-1,13
 -322 892 -322 892 -294.5 878.5 c 128,-1,14
 -267 865 -267 865 -226 833 c 1,15,16
 -264 901 -264 901 -295 932 c 128,-1,17
 -326 963 -326 963 -353.5 970.5 c 128,-1,18
 -381 978 -381 978 -427 978 c 2,19,-1
 -479 978 l 1,20,-1
 -479 1060 l 1,21,-1
 -429 1060 l 2,22,0
 -349 1060 -349 1060 -307.5 1042.5 c 128,-1,1
EndSplineSet
EndChar

StartChar: dvmO
Encoding: 2379 2379 32
Width: 310
Flags: W
LayerCount: 2
Fore
SplineSet
330 740 m 1,0,-1
 330 632 l 1,1,-1
 219 632 l 1,2,-1
 219 0 l 1,3,-1
 90 0 l 1,4,-1
 90 632 l 1,5,-1
 -21 632 l 1,6,-1
 -21 740 l 1,7,-1
 94 740 l 1,8,9
 50 808 50 808 22.5 838.5 c 128,-1,10
 -5 869 -5 869 -33 878.5 c 128,-1,11
 -61 888 -61 888 -110 888 c 2,12,-1
 -159 888 l 1,13,-1
 -159 993 l 1,14,-1
 -113 993 l 2,15,16
 -33 992 -33 992 13.5 976 c 128,-1,17
 60 960 60 960 105.5 907.5 c 128,-1,18
 151 855 151 855 217 740 c 1,19,-1
 330 740 l 1,0,-1
EndSplineSet
EndChar

StartChar: dvmAU
Encoding: 2380 2380 33
Width: 309
Flags: W
LayerCount: 2
Fore
SplineSet
330 740 m 1,0,-1
 330 632 l 1,1,-1
 219 632 l 1,2,-1
 219 0 l 1,3,-1
 90 0 l 1,4,-1
 90 632 l 1,5,-1
 -21 632 l 1,6,-1
 -21 740 l 1,7,-1
 100 740 l 1,8,9
 40 781 40 781 13.5 795.5 c 128,-1,10
 -13 810 -13 810 -39 814 c 128,-1,11
 -65 818 -65 818 -123 818 c 2,12,-1
 -173 818 l 1,13,-1
 -173 899 l 1,14,-1
 -126 899 l 2,15,16
 -70 899 -70 899 -43 895.5 c 128,-1,17
 -16 892 -16 892 11.5 878.5 c 128,-1,18
 39 865 39 865 80 833 c 1,19,20
 42 901 42 901 11 932 c 128,-1,21
 -20 963 -20 963 -47.5 970.5 c 128,-1,22
 -75 978 -75 978 -121 978 c 2,23,-1
 -173 978 l 1,24,-1
 -173 1060 l 1,25,-1
 -123 1060 l 2,26,27
 -43 1060 -43 1060 -1.5 1042.5 c 128,-1,28
 40 1025 40 1025 86 960.5 c 128,-1,29
 132 896 132 896 212 740 c 1,30,-1
 330 740 l 1,0,-1
EndSplineSet
EndChar

StartChar: dvmEcandra
Encoding: 2373 2373 34
Width: 0
GlyphClass: 4
Flags: W
AnchorPoint: "Anchor-0" -90 740 mark 0
LayerCount: 2
Fore
SplineSet
7.5 868.5 m 128,-1,1
 -49 814 -49 814 -161 814 c 256,2,3
 -273 814 -273 814 -330 868.5 c 128,-1,4
 -387 923 -387 923 -387 1011 c 1,5,-1
 -276 1011 l 1,6,7
 -276 968 -276 968 -247.5 939 c 128,-1,8
 -219 910 -219 910 -161 910 c 0,9,10
 -104 910 -104 910 -75 939 c 128,-1,11
 -46 968 -46 968 -46 1011 c 1,12,-1
 64 1011 l 1,13,0
 64 923 64 923 7.5 868.5 c 128,-1,1
EndSplineSet
EndChar

StartChar: dvKA
Encoding: 2325 2325 36
Width: 976
Flags: W
AnchorPoint: "Anchor-3" 557 0 basechar 0
AnchorPoint: "Anchor-2" 557 0 basechar 0
AnchorPoint: "Anchor-1" 568 709 basechar 0
AnchorPoint: "Anchor-0" 557 740 basechar 0
LayerCount: 2
Fore
SplineSet
557 632 m 1,0,-1
 557 459 l 1,1,2
 579 497 579 497 618.5 519.5 c 128,-1,3
 658 542 658 542 712 542 c 0,4,5
 774 542 774 542 820.5 512 c 128,-1,6
 867 482 867 482 892 430 c 128,-1,7
 917 378 917 378 917 313 c 0,8,9
 917 242 917 242 890.5 190.5 c 128,-1,10
 864 139 864 139 817 112 c 128,-1,11
 770 85 770 85 710 85 c 0,12,13
 675 85 675 85 644 92 c 1,14,-1
 644 194 l 1,15,16
 656 190 656 190 675 190 c 0,17,18
 724 190 724 190 755 222 c 128,-1,19
 786 254 786 254 786 310 c 0,20,21
 786 363 786 363 754 397 c 128,-1,22
 722 431 722 431 672 431 c 0,23,24
 616 431 616 431 586.5 393 c 128,-1,25
 557 355 557 355 557 301 c 2,26,-1
 557 0 l 1,27,-1
 433 0 l 1,28,-1
 433 162 l 1,29,30
 410 122 410 122 368 99.5 c 128,-1,31
 326 77 326 77 268 77 c 0,32,33
 205 77 205 77 158 106 c 128,-1,34
 111 135 111 135 85 188 c 128,-1,35
 59 241 59 241 59 310 c 256,36,37
 59 379 59 379 85.5 431.5 c 128,-1,38
 112 484 112 484 160.5 513 c 128,-1,39
 209 542 209 542 273 542 c 0,40,41
 329 542 329 542 369 520.5 c 128,-1,42
 409 499 409 499 433 461 c 1,43,-1
 433 632 l 1,44,-1
 -21 632 l 1,45,-1
 -21 740 l 1,46,-1
 996 740 l 1,47,-1
 996 632 l 1,48,-1
 557 632 l 1,0,-1
377.5 203 m 128,-1,50
 405 221 405 221 419 249.5 c 128,-1,51
 433 278 433 278 433 309 c 0,52,53
 433 359 433 359 401.5 395.5 c 128,-1,54
 370 432 370 432 312 432 c 0,55,56
 260 432 260 432 225 398 c 128,-1,57
 190 364 190 364 190 309 c 0,58,59
 190 253 190 253 224 219 c 128,-1,60
 258 185 258 185 311 185 c 0,61,49
 350 185 350 185 377.5 203 c 128,-1,50
EndSplineSet
EndChar

StartChar: dvKHA
Encoding: 2326 2326 37
Width: 950
Flags: W
AnchorPoint: "Anchor-1" 845 704 basechar 0
LayerCount: 2
Fore
SplineSet
971 740 m 1,0,-1
 971 632 l 1,1,-1
 860 632 l 1,2,-1
 860 0 l 1,3,-1
 732 0 l 1,4,-1
 732 181 l 1,5,6
 689 121 689 121 601 121 c 0,7,8
 590 121 590 121 568 123 c 1,9,10
 534 65 534 65 476.5 30 c 128,-1,11
 419 -5 419 -5 342 -5 c 0,12,13
 217 -5 217 -5 144.5 66 c 128,-1,14
 72 137 72 137 72 264 c 2,15,-1
 72 401 l 1,16,-1
 102 401 l 2,17,18
 169 401 169 401 204 433 c 128,-1,19
 239 465 239 465 239 539 c 2,20,-1
 239 632 l 1,21,-1
 -21 632 l 1,22,-1
 -21 740 l 1,23,-1
 971 740 l 1,0,-1
469 170 m 1,25,26
 439 198 439 198 423 238.5 c 128,-1,27
 407 279 407 279 407 328 c 0,28,29
 407 387 407 387 432 433.5 c 128,-1,30
 457 480 457 480 501.5 506 c 128,-1,31
 546 532 546 532 601 532 c 0,32,33
 687 532 687 532 732 472 c 1,34,-1
 732 632 l 1,35,-1
 369 632 l 1,36,-1
 369 522 l 2,37,38
 369 422 369 422 323 369 c 128,-1,39
 277 316 277 316 200 310 c 1,40,-1
 200 249 l 2,41,42
 200 185 200 185 238.5 145.5 c 128,-1,43
 277 106 277 106 345 106 c 0,44,24
 428 106 428 106 469 170 c 1,25,26
705 252 m 128,-1,46
 732 284 732 284 732 327 c 256,47,48
 732 370 732 370 705.5 401.5 c 128,-1,49
 679 433 679 433 629 433 c 0,50,51
 583 433 583 433 552.5 404.5 c 128,-1,52
 522 376 522 376 522 328 c 0,53,54
 522 277 522 277 552.5 248.5 c 128,-1,55
 583 220 583 220 629 220 c 0,56,45
 678 220 678 220 705 252 c 128,-1,46
EndSplineSet
EndChar

StartChar: dvGA
Encoding: 2327 2327 38
Width: 789
Flags: W
AnchorPoint: "Anchor-1" 679 706 basechar 0
LayerCount: 2
Fore
SplineSet
809 740 m 1,0,-1
 809 632 l 1,1,-1
 698 632 l 1,2,-1
 698 0 l 1,3,-1
 569 0 l 1,4,-1
 569 632 l 1,5,-1
 424 632 l 1,6,-1
 424 390 l 2,7,8
 424 301 424 301 377 245.5 c 128,-1,9
 330 190 330 190 234 190 c 0,10,11
 141 190 141 190 90.5 241 c 128,-1,12
 40 292 40 292 40 383 c 0,13,14
 40 404 40 404 41 414 c 1,15,-1
 166 414 l 1,16,-1
 166 383 l 2,17,18
 166 347 166 347 181.5 323.5 c 128,-1,19
 197 300 197 300 231 300 c 0,20,21
 294 300 294 300 294 384 c 2,22,-1
 294 632 l 1,23,-1
 -21 632 l 1,24,-1
 -21 740 l 1,25,-1
 809 740 l 1,0,-1
EndSplineSet
EndChar

StartChar: dvGHA
Encoding: 2328 2328 39
Width: 703
Flags: W
AnchorPoint: "Anchor-1" 623 708 basechar 0
LayerCount: 2
Fore
SplineSet
724 632 m 1,0,-1
 614 632 l 1,1,-1
 614 0 l 1,2,-1
 484 0 l 1,3,-1
 484 189 l 1,4,5
 453 145 453 145 403 121.5 c 128,-1,6
 353 98 353 98 291 98 c 0,7,8
 195 98 195 98 133.5 146 c 128,-1,9
 72 194 72 194 72 281 c 0,10,11
 72 339 72 339 106 378 c 128,-1,12
 140 417 140 417 189 428 c 1,13,-1
 189 431 l 1,14,15
 142 442 142 442 114 476.5 c 128,-1,16
 86 511 86 511 86 574 c 2,17,-1
 86 632 l 1,18,-1
 -21 632 l 1,19,-1
 -21 740 l 1,20,-1
 724 740 l 1,21,-1
 724 632 l 1,0,-1
484 632 m 1,22,-1
 215 632 l 1,23,-1
 215 580 l 2,24,25
 215 533 215 533 240.5 508 c 128,-1,26
 266 483 266 483 323 483 c 2,27,-1
 365 483 l 1,28,-1
 365 379 l 1,29,-1
 313 379 l 2,30,31
 258 379 258 379 230.5 355.5 c 128,-1,32
 203 332 203 332 203 294 c 0,33,34
 203 250 203 250 236 227 c 128,-1,35
 269 204 269 204 322 204 c 0,36,37
 367 204 367 204 404 223 c 128,-1,38
 441 242 441 242 462.5 277.5 c 128,-1,39
 484 313 484 313 484 358 c 2,40,-1
 484 632 l 1,22,-1
EndSplineSet
EndChar

StartChar: dvNGA
Encoding: 2329 2329 40
Width: 686
Flags: W
AnchorPoint: "Anchor-3" 377 -18 basechar 0
AnchorPoint: "Anchor-2" 386 -113 basechar 0
AnchorPoint: "Anchor-1" 456 711 basechar 0
AnchorPoint: "Anchor-0" 471 740 basechar 0
LayerCount: 2
Fore
SplineSet
707 740 m 1,0,-1
 707 632 l 1,1,-1
 471 632 l 1,2,-1
 471 449 l 1,3,-1
 289 449 l 2,4,5
 252 449 252 449 227 435.5 c 128,-1,6
 202 422 202 422 202 389 c 0,7,8
 202 358 202 358 224 343.5 c 128,-1,9
 246 329 246 329 280 329 c 2,10,-1
 325 329 l 2,11,12
 411 329 411 329 470.5 287.5 c 128,-1,13
 530 246 530 246 530 156 c 0,14,15
 530 76 530 76 473 29 c 128,-1,16
 416 -18 416 -18 311 -18 c 0,17,18
 200 -18 200 -18 131 33.5 c 128,-1,19
 62 85 62 85 58 175 c 1,20,-1
 187 175 l 1,21,22
 188 131 188 131 220.5 105.5 c 128,-1,23
 253 80 253 80 307 80 c 0,24,25
 355 80 355 80 381.5 101 c 128,-1,26
 408 122 408 122 408 157 c 0,27,28
 408 199 408 199 378.5 218.5 c 128,-1,29
 349 238 349 238 301 238 c 2,30,-1
 264 238 l 2,31,32
 187 238 187 238 130 272.5 c 128,-1,33
 73 307 73 307 73 393 c 0,34,35
 73 467 73 467 124.5 503.5 c 128,-1,36
 176 540 176 540 255 540 c 2,37,-1
 346 540 l 1,38,-1
 346 632 l 1,39,-1
 -21 632 l 1,40,-1
 -21 740 l 1,41,-1
 707 740 l 1,0,-1
651.5 428.5 m 128,-1,43
 672 408 672 408 672 378 c 0,44,45
 672 349 672 349 651.5 328.5 c 128,-1,46
 631 308 631 308 601 308 c 256,47,48
 571 308 571 308 550.5 328.5 c 128,-1,49
 530 349 530 349 530 378 c 0,50,51
 530 408 530 408 550.5 428.5 c 128,-1,52
 571 449 571 449 601 449 c 256,53,42
 631 449 631 449 651.5 428.5 c 128,-1,43
EndSplineSet
EndChar

StartChar: dvCA
Encoding: 2330 2330 41
Width: 746
Flags: W
AnchorPoint: "Anchor-1" 623 708 basechar 0
LayerCount: 2
Fore
SplineSet
767 632 m 1,0,-1
 656 632 l 1,1,-1
 656 0 l 1,2,-1
 527 0 l 1,3,-1
 527 176 l 1,4,5
 498 135 498 135 451 112 c 128,-1,6
 404 89 404 89 346 89 c 0,7,8
 287 89 287 89 240 112 c 128,-1,9
 193 135 193 135 165.5 179 c 128,-1,10
 138 223 138 223 138 283 c 0,11,12
 138 324 138 324 154 358.5 c 128,-1,13
 170 393 170 393 200 416 c 1,14,-1
 50 416 l 1,15,-1
 50 518 l 1,16,-1
 417 518 l 1,17,-1
 417 416 l 1,18,-1
 378 416 l 2,19,20
 325 416 325 416 292.5 385 c 128,-1,21
 260 354 260 354 260 305 c 0,22,23
 260 254 260 254 295.5 225 c 128,-1,24
 331 196 331 196 384 196 c 0,25,26
 449 197 449 197 488 243 c 128,-1,27
 527 289 527 289 527 361 c 2,28,-1
 527 632 l 1,29,-1
 -21 632 l 1,30,-1
 -21 740 l 1,31,-1
 767 740 l 1,32,-1
 767 632 l 1,0,-1
EndSplineSet
EndChar

StartChar: dvCHA
Encoding: 2331 2331 42
Width: 821
Flags: W
AnchorPoint: "Anchor-3" 472 23 basechar 0
AnchorPoint: "Anchor-2" 480 -74 basechar 0
AnchorPoint: "Anchor-1" 623 708 basechar 0
AnchorPoint: "Anchor-0" 642 740 basechar 0
LayerCount: 2
Fore
SplineSet
642 632 m 1,0,-1
 642 535 l 1,1,2
 704 518 704 518 740.5 465.5 c 128,-1,3
 777 413 777 413 777 332 c 0,4,5
 777 238 777 238 731.5 168 c 128,-1,6
 686 98 686 98 601 60.5 c 128,-1,7
 516 23 516 23 400 23 c 0,8,9
 248 23 248 23 157 79.5 c 128,-1,10
 66 136 66 136 66 244 c 0,11,12
 66 306 66 306 98.5 346 c 128,-1,13
 131 386 131 386 187 402 c 1,14,-1
 187 405 l 1,15,16
 141 415 141 415 112.5 450 c 128,-1,17
 84 485 84 485 84 548 c 2,18,-1
 84 632 l 1,19,-1
 -21 632 l 1,20,-1
 -21 740 l 1,21,-1
 842 740 l 1,22,-1
 842 632 l 1,23,-1
 642 632 l 1,0,-1
523 632 m 1,24,-1
 213 632 l 1,25,-1
 213 553 l 2,26,27
 213 457 213 457 313 457 c 2,28,-1
 333 457 l 1,29,-1
 333 353 l 1,30,-1
 315 353 l 2,31,32
 257 353 257 353 227 326 c 128,-1,33
 197 299 197 299 197 256 c 0,34,35
 197 196 197 196 248.5 164.5 c 128,-1,36
 300 133 300 133 401 133 c 0,37,38
 524 133 524 133 594 186.5 c 128,-1,39
 664 240 664 240 664 337 c 0,40,41
 664 388 664 388 640.5 418 c 128,-1,42
 617 448 617 448 582 448 c 0,43,44
 549 448 549 448 526 424 c 128,-1,45
 503 400 503 400 503 355 c 0,46,47
 503 319 503 319 518 272 c 1,48,-1
 411 272 l 1,49,50
 395 315 395 315 395 369 c 0,51,52
 395 439 395 439 430 480.5 c 128,-1,53
 465 522 465 522 523 536 c 1,54,-1
 523 632 l 1,24,-1
EndSplineSet
EndChar

StartChar: dvJA
Encoding: 2332 2332 43
Width: 852
Flags: W
AnchorPoint: "Anchor-1" 734 705 basechar 0
LayerCount: 2
Fore
SplineSet
873 632 m 1,0,-1
 762 632 l 1,1,-1
 762 0 l 1,2,-1
 633 0 l 1,3,-1
 633 382 l 1,4,-1
 490 382 l 1,5,-1
 490 327 l 2,6,7
 490 264 490 264 464 215.5 c 128,-1,8
 438 167 438 167 389.5 139.5 c 128,-1,9
 341 112 341 112 276 112 c 0,10,11
 173 112 173 112 116.5 171 c 128,-1,12
 60 230 60 230 60 327 c 2,13,-1
 60 492 l 1,14,-1
 191 492 l 1,15,-1
 191 330 l 2,16,17
 191 282 191 282 213.5 253.5 c 128,-1,18
 236 225 236 225 276 225 c 0,19,20
 318 225 318 225 341 253 c 128,-1,21
 364 281 364 281 364 330 c 2,22,-1
 364 492 l 1,23,-1
 633 492 l 1,24,-1
 633 632 l 1,25,-1
 -21 632 l 1,26,-1
 -21 740 l 1,27,-1
 873 740 l 1,28,-1
 873 632 l 1,0,-1
EndSplineSet
EndChar

StartChar: dvJHA
Encoding: 2333 2333 44
Width: 862
Flags: W
AnchorPoint: "Anchor-1" 734 705 basechar 0
LayerCount: 2
Fore
SplineSet
882 632 m 1,0,-1
 771 632 l 1,1,-1
 771 0 l 1,2,-1
 645 0 l 1,3,-1
 645 232 l 1,4,-1
 497 232 l 1,5,6
 524 195 524 195 524 140 c 0,7,8
 524 73 524 73 480 30.5 c 128,-1,9
 436 -12 436 -12 356 -12 c 0,10,11
 265 -12 265 -12 212 50 c 1,12,-1
 212 -81 l 1,13,-1
 90 -81 l 1,14,-1
 90 170 l 1,15,-1
 206 170 l 1,16,17
 210 132 210 132 239 107.5 c 128,-1,18
 268 83 268 83 317 83 c 0,19,20
 360 83 360 83 382.5 104 c 128,-1,21
 405 125 405 125 405 156 c 0,22,23
 405 195 405 195 377.5 216.5 c 128,-1,24
 350 238 350 238 297 238 c 2,25,-1
 238 238 l 2,26,27
 167 241 167 241 118 278 c 128,-1,28
 69 315 69 315 69 389 c 0,29,30
 69 467 69 467 121 504.5 c 128,-1,31
 173 542 173 542 252 542 c 2,32,-1
 343 542 l 1,33,-1
 343 632 l 1,34,-1
 -21 632 l 1,35,-1
 -21 740 l 1,36,-1
 882 740 l 1,37,-1
 882 632 l 1,0,-1
645 329 m 1,38,-1
 645 632 l 1,39,-1
 467 632 l 1,40,-1
 467 449 l 1,41,-1
 286 449 l 2,42,43
 249 449 249 449 223.5 435 c 128,-1,44
 198 421 198 421 198 388 c 0,45,46
 198 358 198 358 219.5 343.5 c 128,-1,47
 241 329 241 329 277 329 c 2,48,-1
 321 329 l 1,49,-1
 645 329 l 1,38,-1
EndSplineSet
EndChar

StartChar: dvNYA
Encoding: 2334 2334 45
Width: 825
Flags: W
AnchorPoint: "Anchor-1" 734 705 basechar 0
LayerCount: 2
Fore
SplineSet
846 632 m 1,0,-1
 735 632 l 1,1,-1
 735 0 l 1,2,-1
 606 0 l 1,3,-1
 606 256 l 1,4,-1
 516 256 l 1,5,6
 502 169 502 169 441.5 118 c 128,-1,7
 381 67 381 67 288 67 c 0,8,9
 191 67 191 67 129 119 c 128,-1,10
 67 171 67 171 59 254 c 1,11,-1
 181 254 l 1,12,13
 190 220 190 220 218.5 198 c 128,-1,14
 247 176 247 176 289 176 c 0,15,16
 344 176 344 176 374 213 c 128,-1,17
 404 250 404 250 404 306 c 0,18,19
 404 360 404 360 373.5 397 c 128,-1,20
 343 434 343 434 289 434 c 0,21,22
 247 434 247 434 218.5 411.5 c 128,-1,23
 190 389 190 389 181 356 c 1,24,-1
 59 356 l 1,25,26
 67 440 67 440 128.5 492 c 128,-1,27
 190 544 190 544 288 544 c 0,28,29
 379 544 379 544 438.5 495.5 c 128,-1,30
 498 447 498 447 514 365 c 1,31,-1
 606 365 l 1,32,-1
 606 632 l 1,33,-1
 -21 632 l 1,34,-1
 -21 740 l 1,35,-1
 846 740 l 1,36,-1
 846 632 l 1,0,-1
EndSplineSet
EndChar

StartChar: dvTTA
Encoding: 2335 2335 46
Width: 648
Flags: W
AnchorPoint: "Anchor-3" 407 28 basechar 0
AnchorPoint: "Anchor-2" 415 -67 basechar 0
AnchorPoint: "Anchor-1" 456 711 basechar 0
AnchorPoint: "Anchor-0" 479 740 basechar 0
LayerCount: 2
Fore
SplineSet
236 393.5 m 128,-1,1
 189 355 189 355 189 283 c 0,2,3
 189 220 189 220 230.5 180 c 128,-1,4
 272 140 272 140 338 140 c 0,5,6
 406 140 406 140 447.5 182 c 128,-1,7
 489 224 489 224 489 290 c 1,8,-1
 612 290 l 1,9,10
 612 212 612 212 578.5 152.5 c 128,-1,11
 545 93 545 93 483.5 60.5 c 128,-1,12
 422 28 422 28 340 28 c 0,13,14
 259 28 259 28 195 60 c 128,-1,15
 131 92 131 92 95 150 c 128,-1,16
 59 208 59 208 59 283 c 0,17,18
 59 363 59 363 94.5 421 c 128,-1,19
 130 479 130 479 195.5 510 c 128,-1,20
 261 541 261 541 349 541 c 2,21,-1
 354 541 l 1,22,-1
 354 632 l 1,23,-1
 -21 632 l 1,24,-1
 -21 740 l 1,25,-1
 668 740 l 1,26,-1
 668 632 l 1,27,-1
 480 632 l 1,28,-1
 480 432 l 1,29,-1
 357 432 l 2,30,0
 283 432 283 432 236 393.5 c 128,-1,1
EndSplineSet
EndChar

StartChar: dvTTHA
Encoding: 2336 2336 47
Width: 673
Flags: W
AnchorPoint: "Anchor-3" 402 36 basechar 0
AnchorPoint: "Anchor-2" 410 -59 basechar 0
AnchorPoint: "Anchor-1" 456 711 basechar 0
AnchorPoint: "Anchor-0" 402 740 basechar 0
LayerCount: 2
Fore
SplineSet
399 632 m 1,0,-1
 399 538 l 1,1,2
 493 521 493 521 553.5 456 c 128,-1,3
 614 391 614 391 614 290 c 0,4,5
 614 214 614 214 577.5 156 c 128,-1,6
 541 98 541 98 478 67 c 128,-1,7
 415 36 415 36 336 36 c 0,8,9
 258 36 258 36 195 67 c 128,-1,10
 132 98 132 98 95.5 156 c 128,-1,11
 59 214 59 214 59 290 c 0,12,13
 59 391 59 391 118.5 455.5 c 128,-1,14
 178 520 178 520 271 538 c 1,15,-1
 271 632 l 1,16,-1
 -21 632 l 1,17,-1
 -21 740 l 1,18,-1
 693 740 l 1,19,-1
 693 632 l 1,20,-1
 399 632 l 1,0,-1
444.5 394.5 m 128,-1,22
 403 435 403 435 336 435 c 0,23,24
 271 435 271 435 229.5 394.5 c 128,-1,25
 188 354 188 354 188 290 c 256,26,27
 188 226 188 226 229.5 185 c 128,-1,28
 271 144 271 144 336 144 c 0,29,30
 403 144 403 144 444.5 185 c 128,-1,31
 486 226 486 226 486 290 c 256,32,21
 486 354 486 354 444.5 394.5 c 128,-1,22
EndSplineSet
EndChar

StartChar: dvDDA
Encoding: 2337 2337 48
Width: 569
Flags: W
AnchorPoint: "Anchor-3" 377 -18 basechar 0
AnchorPoint: "Anchor-2" 385 -114 basechar 0
AnchorPoint: "Anchor-1" 456 711 basechar 0
AnchorPoint: "Anchor-0" 467 740 basechar 0
LayerCount: 2
Fore
SplineSet
227 435.5 m 128,-1,1
 202 422 202 422 202 389 c 0,2,3
 202 358 202 358 224 343.5 c 128,-1,4
 246 329 246 329 280 329 c 2,5,-1
 325 329 l 2,6,7
 411 329 411 329 470.5 287.5 c 128,-1,8
 530 246 530 246 530 156 c 0,9,10
 530 76 530 76 473 29 c 128,-1,11
 416 -18 416 -18 311 -18 c 0,12,13
 200 -18 200 -18 131 33.5 c 128,-1,14
 62 85 62 85 58 175 c 1,15,-1
 187 175 l 1,16,17
 188 131 188 131 220.5 105.5 c 128,-1,18
 253 80 253 80 307 80 c 0,19,20
 355 80 355 80 381.5 101 c 128,-1,21
 408 122 408 122 408 157 c 0,22,23
 408 199 408 199 378.5 218.5 c 128,-1,24
 349 238 349 238 301 238 c 2,25,-1
 264 238 l 2,26,27
 187 238 187 238 130 272.5 c 128,-1,28
 73 307 73 307 73 393 c 0,29,30
 73 467 73 467 124.5 503.5 c 128,-1,31
 176 540 176 540 255 540 c 2,32,-1
 343 540 l 1,33,-1
 343 632 l 1,34,-1
 -21 632 l 1,35,-1
 -21 740 l 1,36,-1
 589 740 l 1,37,-1
 589 632 l 1,38,-1
 467 632 l 1,39,-1
 467 449 l 1,40,-1
 289 449 l 2,41,0
 252 449 252 449 227 435.5 c 128,-1,1
EndSplineSet
EndChar

StartChar: dvDDHA
Encoding: 2338 2338 49
Width: 650
Flags: W
AnchorPoint: "Anchor-3" 437 -2 basechar 0
AnchorPoint: "Anchor-2" 445 -98 basechar 0
AnchorPoint: "Anchor-1" 456 711 basechar 0
AnchorPoint: "Anchor-0" 497 740 basechar 0
LayerCount: 2
Fore
SplineSet
242 410 m 128,-1,1
 184 362 184 362 184 272 c 0,2,3
 184 192 184 192 235 141.5 c 128,-1,4
 286 91 286 91 376 91 c 0,5,6
 438 91 438 91 478.5 120 c 128,-1,7
 519 149 519 149 519 198 c 0,8,9
 519 230 519 230 498.5 251 c 128,-1,10
 478 272 478 272 447 272 c 0,11,12
 419 272 419 272 400 254.5 c 128,-1,13
 381 237 381 237 381 209 c 0,14,15
 381 199 381 199 384 191 c 1,16,-1
 291 191 l 1,17,18
 287 215 287 215 287 227 c 0,19,20
 287 292 287 292 333 328.5 c 128,-1,21
 379 365 379 365 452 365 c 0,22,23
 534 365 534 365 581.5 319 c 128,-1,24
 629 273 629 273 629 198 c 0,25,26
 629 105 629 105 561.5 51.5 c 128,-1,27
 494 -2 494 -2 373 -2 c 0,28,29
 284 -2 284 -2 212.5 31.5 c 128,-1,30
 141 65 141 65 100 128 c 128,-1,31
 59 191 59 191 59 276 c 0,32,33
 59 363 59 363 97 424 c 128,-1,34
 135 485 135 485 201 516 c 128,-1,35
 267 547 267 547 351 547 c 2,36,-1
 378 547 l 1,37,-1
 378 632 l 1,38,-1
 -21 632 l 1,39,-1
 -21 740 l 1,40,-1
 670 740 l 1,41,-1
 670 632 l 1,42,-1
 500 632 l 1,43,-1
 500 458 l 1,44,-1
 392 458 l 2,45,0
 300 458 300 458 242 410 c 128,-1,1
EndSplineSet
EndChar

StartChar: dvNNA
Encoding: 2339 2339 50
Width: 880
Flags: W
AnchorPoint: "Anchor-1" 790 704 basechar 0
LayerCount: 2
Fore
SplineSet
901 632 m 1,0,-1
 790 632 l 1,1,-1
 790 0 l 1,2,-1
 661 0 l 1,3,-1
 661 632 l 1,4,-1
 504 632 l 1,5,-1
 504 372 l 2,6,7
 504 277 504 277 449.5 218 c 128,-1,8
 395 159 395 159 294 159 c 0,9,10
 194 159 194 159 139.5 219 c 128,-1,11
 85 279 85 279 85 372 c 2,12,-1
 85 632 l 1,13,-1
 -21 632 l 1,14,-1
 -21 740 l 1,15,-1
 901 740 l 1,16,-1
 901 632 l 1,0,-1
377 632 m 1,17,-1
 211 632 l 1,18,-1
 211 360 l 2,19,20
 211 319 211 319 233.5 293.5 c 128,-1,21
 256 268 256 268 295 268 c 256,22,23
 334 268 334 268 355.5 293 c 128,-1,24
 377 318 377 318 377 360 c 2,25,-1
 377 632 l 1,17,-1
EndSplineSet
EndChar

StartChar: dvTA
Encoding: 2340 2340 51
Width: 703
Flags: W
AnchorPoint: "Anchor-1" 623 708 basechar 0
LayerCount: 2
Fore
SplineSet
723 632 m 1,0,-1
 613 632 l 1,1,-1
 613 0 l 1,2,-1
 483 0 l 1,3,-1
 483 383 l 1,4,-1
 350 383 l 2,5,6
 276 383 276 383 233 347 c 128,-1,7
 190 311 190 311 190 244 c 0,8,9
 190 178 190 178 228 140.5 c 128,-1,10
 266 103 266 103 339 103 c 2,11,-1
 359 103 l 1,12,-1
 359 2 l 1,13,-1
 319 2 l 2,14,15
 203 2 203 2 131 64 c 128,-1,16
 59 126 59 126 59 247 c 0,17,18
 59 371 59 371 138 432.5 c 128,-1,19
 217 494 217 494 344 494 c 2,20,-1
 483 494 l 1,21,-1
 483 632 l 1,22,-1
 -21 632 l 1,23,-1
 -21 740 l 1,24,-1
 723 740 l 1,25,-1
 723 632 l 1,0,-1
EndSplineSet
EndChar

StartChar: dvTHA
Encoding: 2341 2341 52
Width: 783
Flags: W
AnchorPoint: "Anchor-1" 679 706 basechar 0
LayerCount: 2
Fore
SplineSet
804 740 m 1,0,-1
 804 632 l 1,1,-1
 693 632 l 1,2,-1
 693 0 l 1,3,-1
 564 0 l 1,4,-1
 564 204 l 1,5,6
 541 156 541 156 483 122.5 c 128,-1,7
 425 89 425 89 343 89 c 0,8,9
 259 89 259 89 196 123 c 128,-1,10
 133 157 133 157 98.5 220 c 128,-1,11
 64 283 64 283 64 369 c 0,12,13
 64 406 64 406 69 433 c 1,14,-1
 160 433 l 2,15,16
 248 433 248 433 300.5 460.5 c 128,-1,17
 353 488 353 488 353 556 c 0,18,19
 353 592 353 592 332 615.5 c 128,-1,20
 311 639 311 639 275 639 c 0,21,22
 237 639 237 639 215 615.5 c 128,-1,23
 193 592 193 592 193 552 c 0,24,25
 193 538 193 538 197 514 c 1,26,-1
 80 514 l 1,27,28
 76 540 76 540 76 555 c 0,29,30
 76 616 76 616 102.5 660 c 128,-1,31
 129 704 129 704 174.5 726.5 c 128,-1,32
 220 749 220 749 276 749 c 0,33,34
 334 749 334 749 379 724.5 c 128,-1,35
 424 700 424 700 449 655 c 128,-1,36
 474 610 474 610 474 552 c 0,37,38
 474 452 474 452 404.5 396 c 128,-1,39
 335 340 335 340 210 340 c 2,40,-1
 189 340 l 1,41,42
 192 276 192 276 235.5 236 c 128,-1,43
 279 196 279 196 362 196 c 0,44,45
 418 196 418 196 464 220 c 128,-1,46
 510 244 510 244 537 291 c 128,-1,47
 564 338 564 338 564 403 c 2,48,-1
 564 740 l 1,49,-1
 804 740 l 1,0,-1
EndSplineSet
EndChar

StartChar: dvDA
Encoding: 2342 2342 53
Width: 611
Flags: W
AnchorPoint: "Anchor-3" 541 -27 basechar 0
AnchorPoint: "Anchor-2" 541 -27 basechar 0
AnchorPoint: "Anchor-1" 511 710 basechar 0
AnchorPoint: "Anchor-0" 506 740 basechar 0
LayerCount: 2
Fore
SplineSet
232 396 m 128,-1,1
 191 362 191 362 191 301 c 0,2,3
 191 246 191 246 224 213.5 c 128,-1,4
 257 181 257 181 312 181 c 0,5,6
 357 181 357 181 389.5 209 c 128,-1,7
 422 237 422 237 422 289 c 1,8,-1
 541 289 l 1,9,-1
 541 -27 l 1,10,-1
 415 -27 l 1,11,-1
 415 138 l 1,12,13
 393 109 393 109 357 93.5 c 128,-1,14
 321 78 321 78 275 78 c 0,15,16
 215 78 215 78 166 104 c 128,-1,17
 117 130 117 130 88 181 c 128,-1,18
 59 232 59 232 59 305 c 0,19,20
 59 380 59 380 93.5 433.5 c 128,-1,21
 128 487 128 487 188.5 514 c 128,-1,22
 249 541 249 541 326 541 c 2,23,-1
 376 541 l 1,24,-1
 376 632 l 1,25,-1
 -21 632 l 1,26,-1
 -21 740 l 1,27,-1
 632 740 l 1,28,-1
 631 632 l 1,29,-1
 506 632 l 1,30,-1
 506 430 l 1,31,-1
 339 430 l 2,32,0
 273 430 273 430 232 396 c 128,-1,1
EndSplineSet
EndChar

StartChar: dvDHA
Encoding: 2343 2343 54
Width: 724
Flags: W
AnchorPoint: "Anchor-1" 623 708 basechar 0
LayerCount: 2
Fore
SplineSet
751 632 m 1,0,-1
 642 632 l 1,1,-1
 642 0 l 1,2,-1
 513 0 l 1,3,-1
 513 185 l 1,4,5
 481 137 481 137 426.5 111 c 128,-1,6
 372 85 372 85 300 85 c 0,7,8
 204 85 204 85 141 132 c 128,-1,9
 78 179 78 179 78 264 c 0,10,11
 78 324 78 324 113 361.5 c 128,-1,12
 148 399 148 399 195 408 c 1,13,-1
 195 412 l 1,14,15
 142 426 142 426 106 468 c 128,-1,16
 70 510 70 510 70 577 c 0,17,18
 70 654 70 654 120.5 701.5 c 128,-1,19
 171 749 171 749 251 749 c 0,20,21
 333 749 333 749 379.5 703.5 c 128,-1,22
 426 658 426 658 426 584 c 0,23,24
 426 568 426 568 424 546 c 1,25,-1
 328 546 l 1,26,-1
 329 568 l 2,27,28
 329 600 329 600 309 620.5 c 128,-1,29
 289 641 289 641 255 641 c 256,30,31
 221 641 221 641 200.5 619 c 128,-1,32
 180 597 180 597 180 563 c 0,33,34
 180 515 180 515 218.5 489.5 c 128,-1,35
 257 464 257 464 316 464 c 2,36,-1
 375 464 l 1,37,-1
 375 360 l 1,38,-1
 322 360 l 2,39,40
 268 360 268 360 238.5 338 c 128,-1,41
 209 316 209 316 209 278 c 0,42,43
 209 236 209 236 242.5 214 c 128,-1,44
 276 192 276 192 332 192 c 0,45,46
 413 192 413 192 463 243 c 128,-1,47
 513 294 513 294 513 377 c 2,48,-1
 513 740 l 1,49,-1
 751 740 l 1,50,-1
 751 632 l 1,0,-1
EndSplineSet
EndChar

StartChar: dvNA
Encoding: 2344 2344 55
Width: 810
Flags: W
AnchorPoint: "Anchor-1" 679 706 basechar 0
LayerCount: 2
Fore
SplineSet
831 632 m 1,0,-1
 720 632 l 1,1,-1
 720 0 l 1,2,-1
 591 0 l 1,3,-1
 591 391 l 1,4,-1
 440 391 l 1,5,6
 475 343 475 343 475 276 c 0,7,8
 475 217 475 217 448 174 c 128,-1,9
 421 131 421 131 374.5 109 c 128,-1,10
 328 87 328 87 271 87 c 0,11,12
 211 87 211 87 162 112 c 128,-1,13
 113 137 113 137 84 183.5 c 128,-1,14
 55 230 55 230 55 293 c 0,15,16
 55 359 55 359 85 405.5 c 128,-1,17
 115 452 115 452 166.5 475.5 c 128,-1,18
 218 499 218 499 282 499 c 2,19,-1
 591 499 l 1,20,-1
 591 632 l 1,21,-1
 -21 632 l 1,22,-1
 -21 740 l 1,23,-1
 831 740 l 1,24,-1
 831 632 l 1,0,-1
344 223.5 m 128,-1,26
 372 251 372 251 372 294 c 0,27,28
 372 336 372 336 344 363.5 c 128,-1,29
 316 391 316 391 273 391 c 0,30,31
 228 391 228 391 199.5 363.5 c 128,-1,32
 171 336 171 336 171 293 c 256,33,34
 171 250 171 250 199.5 223 c 128,-1,35
 228 196 228 196 273 196 c 0,36,25
 316 196 316 196 344 223.5 c 128,-1,26
EndSplineSet
EndChar

StartChar: dvPA
Encoding: 2346 2346 56
Width: 668
Flags: W
AnchorPoint: "Anchor-1" 568 709 basechar 0
LayerCount: 2
Fore
SplineSet
689 632 m 1,0,-1
 578 632 l 1,1,-1
 578 0 l 1,2,-1
 450 0 l 1,3,-1
 450 241 l 1,4,5
 397 174 397 174 294 174 c 0,6,7
 188 174 188 174 131 243.5 c 128,-1,8
 74 313 74 313 74 428 c 2,9,-1
 74 632 l 1,10,-1
 -21 632 l 1,11,-1
 -21 740 l 1,12,-1
 689 740 l 1,13,-1
 689 632 l 1,0,-1
450 632 m 1,14,-1
 204 632 l 1,15,-1
 204 428 l 2,16,17
 204 360 204 360 234.5 321.5 c 128,-1,18
 265 283 265 283 327 283 c 0,19,20
 385 283 385 283 417.5 320.5 c 128,-1,21
 450 358 450 358 450 414 c 2,22,-1
 450 632 l 1,14,-1
EndSplineSet
EndChar

StartChar: dvPHA
Encoding: 2347 2347 57
Width: 985
Flags: W
AnchorPoint: "Anchor-3" 561 0 basechar 0
AnchorPoint: "Anchor-2" 561 0 basechar 0
AnchorPoint: "Anchor-1" 568 709 basechar 0
AnchorPoint: "Anchor-0" 561 740 basechar 0
LayerCount: 2
Fore
SplineSet
561 632 m 1,0,-1
 561 460 l 1,1,2
 585 498 585 498 626 520 c 128,-1,3
 667 542 667 542 723 542 c 0,4,5
 784 542 784 542 830 512.5 c 128,-1,6
 876 483 876 483 901.5 432 c 128,-1,7
 927 381 927 381 927 317 c 0,8,9
 927 245 927 245 900.5 192.5 c 128,-1,10
 874 140 874 140 826.5 112.5 c 128,-1,11
 779 85 779 85 719 85 c 0,12,13
 681 85 681 85 649 94 c 1,14,-1
 649 194 l 1,15,16
 667 189 667 189 686 189 c 0,17,18
 735 189 735 189 765.5 222 c 128,-1,19
 796 255 796 255 796 310 c 0,20,21
 796 363 796 363 764 397 c 128,-1,22
 732 431 732 431 682 431 c 0,23,24
 622 431 622 431 591.5 390 c 128,-1,25
 561 349 561 349 561 287 c 2,26,-1
 561 0 l 1,27,-1
 432 0 l 1,28,-1
 432 239 l 1,29,30
 383 174 383 174 286 174 c 0,31,32
 184 174 184 174 129 242 c 128,-1,33
 74 310 74 310 74 422 c 2,34,-1
 74 632 l 1,35,-1
 -21 632 l 1,36,-1
 -21 740 l 1,37,-1
 1006 740 l 1,38,-1
 1006 632 l 1,39,-1
 561 632 l 1,0,-1
432 632 m 1,40,-1
 204 632 l 1,41,-1
 204 422 l 2,42,43
 204 357 204 357 232.5 320 c 128,-1,44
 261 283 261 283 318 283 c 0,45,46
 372 283 372 283 402 318.5 c 128,-1,47
 432 354 432 354 432 408 c 2,48,-1
 432 632 l 1,40,-1
EndSplineSet
EndChar

StartChar: dvBA
Encoding: 2348 2348 58
Width: 689
Flags: W
AnchorPoint: "Anchor-1" 568 709 basechar 0
LayerCount: 2
Fore
SplineSet
709 740 m 1,0,-1
 709 632 l 1,1,-1
 599 632 l 1,2,-1
 599 0 l 1,3,-1
 474 0 l 1,4,-1
 474 151 l 1,5,6
 449 114 449 114 405 92.5 c 128,-1,7
 361 71 361 71 303 71 c 0,8,9
 234 71 234 71 178.5 101.5 c 128,-1,10
 123 132 123 132 91 187.5 c 128,-1,11
 59 243 59 243 59 314 c 0,12,13
 59 384 59 384 90.5 438 c 128,-1,14
 122 492 122 492 177 522 c 128,-1,15
 232 552 232 552 301 552 c 0,16,17
 358 552 358 552 401.5 531 c 128,-1,18
 445 510 445 510 474 474 c 1,19,-1
 474 632 l 1,20,-1
 -21 632 l 1,21,-1
 -21 740 l 1,22,-1
 709 740 l 1,0,-1
227 433 m 1,24,-1
 464 242 l 1,25,26
 481 278 481 278 481 315 c 0,27,28
 481 355 481 355 463 390 c 128,-1,29
 445 425 445 425 410.5 446 c 128,-1,30
 376 467 376 467 328 467 c 0,31,23
 269 467 269 467 227 433 c 1,24,-1
193 234 m 128,-1,33
 214 200 214 200 250 182 c 128,-1,34
 286 164 286 164 328 164 c 0,35,36
 388 164 388 164 430 199 c 1,37,-1
 191 390 l 1,38,39
 172 355 172 355 172 314 c 0,40,32
 172 268 172 268 193 234 c 128,-1,33
EndSplineSet
EndChar

StartChar: dvBHA
Encoding: 2349 2349 59
Width: 831
Flags: W
AnchorPoint: "Anchor-1" 734 705 basechar 0
LayerCount: 2
Fore
SplineSet
852 740 m 1,0,-1
 852 632 l 1,1,-1
 740 632 l 1,2,-1
 740 0 l 1,3,-1
 611 0 l 1,4,-1
 611 355 l 1,5,-1
 472 355 l 1,6,-1
 472 296 l 2,7,8
 472 192 472 192 419.5 134 c 128,-1,9
 367 76 367 76 270 76 c 0,10,11
 209 76 209 76 162 100 c 128,-1,12
 115 124 115 124 89 168 c 128,-1,13
 63 212 63 212 63 269 c 0,14,15
 63 361 63 361 123 410.5 c 128,-1,16
 183 460 183 460 277 460 c 2,17,-1
 351 460 l 1,18,-1
 351 543 l 2,19,20
 351 588 351 588 334.5 613.5 c 128,-1,21
 318 639 318 639 283 639 c 0,22,23
 252 639 252 639 233 617 c 128,-1,24
 214 595 214 595 214 559 c 0,25,26
 214 541 214 541 218 525 c 1,27,-1
 88 525 l 1,28,29
 84 547 84 547 84 564 c 0,30,31
 84 647 84 647 134.5 698 c 128,-1,32
 185 749 185 749 278 749 c 0,33,34
 380 749 380 749 426 687 c 128,-1,35
 472 625 472 625 472 520 c 2,36,-1
 472 460 l 1,37,-1
 611 460 l 1,38,-1
 611 740 l 1,39,-1
 852 740 l 1,0,-1
351 355 m 1,40,-1
 280 355 l 2,41,42
 236 355 236 355 209.5 332.5 c 128,-1,43
 183 310 183 310 183 270 c 0,44,45
 183 231 183 231 207 208 c 128,-1,46
 231 185 231 185 268 185 c 0,47,48
 308 185 308 185 329.5 213 c 128,-1,49
 351 241 351 241 351 289 c 2,50,-1
 351 355 l 1,40,-1
EndSplineSet
EndChar

StartChar: dvMA
Encoding: 2350 2350 60
Width: 822
Flags: W
AnchorPoint: "Anchor-1" 734 705 basechar 0
LayerCount: 2
Fore
SplineSet
842 632 m 1,0,-1
 731 632 l 1,1,-1
 731 0 l 1,2,-1
 601 0 l 1,3,-1
 601 355 l 1,4,-1
 452 355 l 1,5,-1
 452 296 l 2,6,7
 452 192 452 192 399.5 134 c 128,-1,8
 347 76 347 76 249 76 c 0,9,10
 156 76 156 76 99.5 129 c 128,-1,11
 43 182 43 182 43 269 c 0,12,13
 43 361 43 361 102.5 410.5 c 128,-1,14
 162 460 162 460 256 460 c 2,15,-1
 332 460 l 1,16,-1
 332 632 l 1,17,-1
 -21 632 l 1,18,-1
 -21 740 l 1,19,-1
 842 740 l 1,20,-1
 842 632 l 1,0,-1
601 632 m 1,21,-1
 452 632 l 1,22,-1
 452 460 l 1,23,-1
 601 460 l 1,24,-1
 601 632 l 1,21,-1
332 355 m 1,25,-1
 260 355 l 2,26,27
 216 355 216 355 189.5 332.5 c 128,-1,28
 163 310 163 310 163 270 c 0,29,30
 163 231 163 231 186.5 208 c 128,-1,31
 210 185 210 185 247 185 c 0,32,33
 287 185 287 185 309.5 213 c 128,-1,34
 332 241 332 241 332 289 c 2,35,-1
 332 355 l 1,25,-1
EndSplineSet
EndChar

StartChar: dvYA
Encoding: 2351 2351 61
Width: 749
Flags: W
AnchorPoint: "Anchor-1" 623 708 basechar 0
LayerCount: 2
Fore
SplineSet
770 632 m 1,0,-1
 659 632 l 1,1,-1
 659 0 l 1,2,-1
 530 0 l 1,3,-1
 530 179 l 1,4,5
 499 139 499 139 448 116 c 128,-1,6
 397 93 397 93 329 93 c 0,7,8
 201 93 201 93 130.5 169 c 128,-1,9
 60 245 60 245 60 375 c 0,10,11
 60 393 60 393 64 431 c 1,12,-1
 76 431 l 2,13,14
 160 431 160 431 197.5 467 c 128,-1,15
 235 503 235 503 235 578 c 2,16,-1
 235 632 l 1,17,-1
 -21 632 l 1,18,-1
 -21 740 l 1,19,-1
 770 740 l 1,20,-1
 770 632 l 1,0,-1
530 632 m 1,21,-1
 363 632 l 1,22,-1
 363 555 l 2,23,24
 363 468 363 468 319.5 418.5 c 128,-1,25
 276 369 276 369 188 362 c 1,26,27
 188 289 188 289 232.5 245 c 128,-1,28
 277 201 277 201 356 201 c 0,29,30
 434 201 434 201 482 249 c 128,-1,31
 530 297 530 297 530 372 c 2,32,-1
 530 632 l 1,21,-1
EndSplineSet
EndChar

StartChar: dvRA
Encoding: 2352 2352 62
Width: 533
Flags: W
AnchorPoint: "Anchor-1" 456 711 basechar 0
AnchorPoint: "Anchor-0" 455 740 basechar 0
LayerCount: 2
Fore
SplineSet
198 314 m 1,0,-1
 198 201 l 2,1,2
 198 156 198 156 218.5 128.5 c 128,-1,3
 239 101 239 101 279 101 c 0,4,5
 316 101 316 101 337.5 126.5 c 128,-1,6
 359 152 359 152 359 194 c 2,7,-1
 359 219 l 1,8,-1
 483 219 l 1,9,10
 484 210 484 210 484 198 c 0,11,12
 484 103 484 103 430 47 c 128,-1,13
 376 -9 376 -9 281 -9 c 0,14,15
 179 -9 179 -9 124.5 51 c 128,-1,16
 70 111 70 111 70 207 c 2,17,-1
 70 419 l 1,18,-1
 173 419 l 2,19,20
 253 419 253 419 289.5 455.5 c 128,-1,21
 326 492 326 492 326 563 c 2,22,-1
 326 632 l 1,23,-1
 -21 632 l 1,24,-1
 -21 740 l 1,25,-1
 553 740 l 1,26,-1
 553 632 l 1,27,-1
 455 632 l 1,28,-1
 455 563 l 2,29,30
 455 314 455 314 220 314 c 2,31,-1
 198 314 l 1,0,-1
EndSplineSet
Substitution2: "Single Substitution lookup 51 subtable" dvvLL
Substitution2: "Single Substitution lookup 50 subtable" dvvL
Substitution2: "Single Substitution lookup 49 subtable" dvvRR
Substitution2: "Single Substitution lookup 48 subtable" dvvR
EndChar

StartChar: dvLA
Encoding: 2354 2354 63
Width: 910
Flags: W
AnchorPoint: "Anchor-3" 708 44 basechar 0
AnchorPoint: "Anchor-2" 718 -47 basechar 0
AnchorPoint: "Anchor-1" 679 706 basechar 0
AnchorPoint: "Anchor-0" 717 740 basechar 0
LayerCount: 2
Fore
SplineSet
717 632 m 1,0,-1
 717 517 l 1,1,2
 778 494 778 494 814.5 436.5 c 128,-1,3
 851 379 851 379 851 295 c 0,4,5
 851 222 851 222 822 165 c 128,-1,6
 793 108 793 108 736.5 76 c 128,-1,7
 680 44 680 44 600 44 c 0,8,9
 592 44 592 44 566 46 c 1,10,-1
 566 159 l 1,11,-1
 593 157 l 1,12,13
 652 157 652 157 686 194 c 128,-1,14
 720 231 720 231 720 293 c 0,15,16
 720 348 720 348 692.5 383 c 128,-1,17
 665 418 665 418 615 418 c 0,18,19
 562 418 562 418 535.5 378.5 c 128,-1,20
 509 339 509 339 509 275 c 2,21,-1
 509 254 l 1,22,-1
 401 254 l 1,23,-1
 401 275 l 2,24,25
 401 338 401 338 375 378 c 128,-1,26
 349 418 349 418 298 418 c 0,27,28
 246 418 246 418 218 383.5 c 128,-1,29
 190 349 190 349 190 293 c 0,30,31
 190 231 190 231 224 194 c 128,-1,32
 258 157 258 157 317 157 c 1,33,-1
 344 159 l 1,34,-1
 344 46 l 1,35,36
 318 44 318 44 310 44 c 0,37,38
 231 44 231 44 174 76.5 c 128,-1,39
 117 109 117 109 88 165.5 c 128,-1,40
 59 222 59 222 59 295 c 0,41,42
 59 371 59 371 88 424 c 128,-1,43
 117 477 117 477 167.5 504 c 128,-1,44
 218 531 218 531 280 531 c 0,45,46
 349 531 349 531 391.5 496 c 128,-1,47
 434 461 434 461 453 406 c 1,48,-1
 456 406 l 1,49,50
 473 452 473 452 505.5 484 c 128,-1,51
 538 516 538 516 590 527 c 1,52,-1
 590 632 l 1,53,-1
 -21 632 l 1,54,-1
 -21 740 l 1,55,-1
 930 740 l 1,56,-1
 930 632 l 1,57,-1
 717 632 l 1,0,-1
EndSplineSet
EndChar

StartChar: dvVA
Encoding: 2357 2357 64
Width: 670
Flags: W
AnchorPoint: "Anchor-1" 568 709 basechar 0
LayerCount: 2
Fore
SplineSet
690 740 m 1,0,-1
 690 632 l 1,1,-1
 580 632 l 1,2,-1
 580 0 l 1,3,-1
 454 0 l 1,4,-1
 454 158 l 1,5,6
 428 119 428 119 384.5 97 c 128,-1,7
 341 75 341 75 285 75 c 0,8,9
 217 75 217 75 165.5 105.5 c 128,-1,10
 114 136 114 136 86.5 190 c 128,-1,11
 59 244 59 244 59 314 c 0,12,13
 59 381 59 381 87 434 c 128,-1,14
 115 487 115 487 166.5 516.5 c 128,-1,15
 218 546 218 546 285 546 c 0,16,17
 342 546 342 546 385 524 c 128,-1,18
 428 502 428 502 454 463 c 1,19,-1
 454 632 l 1,20,-1
 -21 632 l 1,21,-1
 -21 740 l 1,22,-1
 690 740 l 1,0,-1
392.5 197 m 128,-1,24
 423 216 423 216 438.5 246 c 128,-1,25
 454 276 454 276 454 309 c 2,26,-1
 454 310 l 2,27,28
 454 364 454 364 418.5 403 c 128,-1,29
 383 442 383 442 319 442 c 0,30,31
 261 442 261 442 223.5 406 c 128,-1,32
 186 370 186 370 186 311 c 0,33,34
 186 251 186 251 223.5 214.5 c 128,-1,35
 261 178 261 178 319 178 c 0,36,23
 362 178 362 178 392.5 197 c 128,-1,24
EndSplineSet
EndChar

StartChar: dvSHA
Encoding: 2358 2358 65
Width: 840
Flags: W
AnchorPoint: "Anchor-1" 734 705 basechar 0
LayerCount: 2
Fore
SplineSet
206 299 m 1,0,-1
 206 214 l 2,1,2
 206 164 206 164 229 134 c 128,-1,3
 252 104 252 104 302 104 c 0,4,5
 344 104 344 104 368 131.5 c 128,-1,6
 392 159 392 159 392 205 c 2,7,-1
 392 219 l 1,8,-1
 518 219 l 1,9,-1
 518 203 l 2,10,11
 518 104 518 104 461 48 c 128,-1,12
 404 -8 404 -8 305 -8 c 0,13,14
 197 -8 197 -8 136 54.5 c 128,-1,15
 75 117 75 117 75 223 c 2,16,-1
 75 408 l 1,17,-1
 217 408 l 2,18,19
 296 408 296 408 347 439.5 c 128,-1,20
 398 471 398 471 398 538 c 0,21,22
 398 583 398 583 373.5 610 c 128,-1,23
 349 637 349 637 307 637 c 256,24,25
 265 637 265 637 241 610 c 128,-1,26
 217 583 217 583 217 538 c 2,27,-1
 218 500 l 1,28,-1
 90 500 l 1,29,30
 87 521 87 521 87 542 c 0,31,32
 87 603 87 603 114 650 c 128,-1,33
 141 697 141 697 191 723 c 128,-1,34
 241 749 241 749 307 749 c 0,35,36
 407 749 407 749 467.5 691.5 c 128,-1,37
 528 634 528 634 528 530 c 0,38,39
 528 417 528 417 454.5 358 c 128,-1,40
 381 299 381 299 264 299 c 2,41,-1
 206 299 l 1,0,-1
861 740 m 1,42,-1
 861 632 l 1,43,-1
 750 632 l 1,44,-1
 750 0 l 1,45,-1
 619 0 l 1,46,-1
 619 740 l 1,47,-1
 861 740 l 1,42,-1
EndSplineSet
EndChar

StartChar: dvSSA
Encoding: 2359 2359 66
Width: 680
Flags: W
AnchorPoint: "Anchor-1" 568 709 basechar 0
LayerCount: 2
Fore
SplineSet
701 632 m 1,0,-1
 590 632 l 1,1,-1
 590 0 l 1,2,-1
 463 0 l 1,3,-1
 463 235 l 1,4,5
 411 165 411 165 302 165 c 0,6,7
 192 165 192 165 133 237 c 128,-1,8
 74 309 74 309 74 428 c 2,9,-1
 74 632 l 1,10,-1
 -21 632 l 1,11,-1
 -21 740 l 1,12,-1
 701 740 l 1,13,-1
 701 632 l 1,0,-1
463 632 m 1,14,-1
 201 632 l 1,15,-1
 463 440 l 1,16,-1
 463 632 l 1,14,-1
407 296 m 128,-1,18
 439 318 439 318 453 355 c 1,19,-1
 199 539 l 1,20,-1
 199 424 l 2,21,22
 199 355 199 355 231.5 314.5 c 128,-1,23
 264 274 264 274 329 274 c 0,24,17
 375 274 375 274 407 296 c 128,-1,18
EndSplineSet
EndChar

StartChar: dvSA
Encoding: 2360 2360 67
Width: 825
Flags: W
AnchorPoint: "Anchor-1" 734 705 basechar 0
LayerCount: 2
Fore
SplineSet
846 632 m 1,0,-1
 734 632 l 1,1,-1
 734 0 l 1,2,-1
 606 0 l 1,3,-1
 606 319 l 1,4,-1
 198 319 l 1,5,-1
 198 203 l 2,6,7
 198 157 198 157 219 129 c 128,-1,8
 240 101 240 101 282 101 c 0,9,10
 321 101 321 101 343 127 c 128,-1,11
 365 153 365 153 365 194 c 2,12,-1
 365 207 l 1,13,-1
 489 207 l 1,14,15
 490 199 490 199 490 188 c 0,16,17
 490 97 490 97 435 44 c 128,-1,18
 380 -9 380 -9 284 -9 c 0,19,20
 182 -9 182 -9 126 51.5 c 128,-1,21
 70 112 70 112 70 209 c 2,22,-1
 70 411 l 1,23,-1
 151 411 l 2,24,25
 231 411 231 411 268 449.5 c 128,-1,26
 305 488 305 488 305 556 c 2,27,-1
 305 632 l 1,28,-1
 -21 632 l 1,29,-1
 -21 740 l 1,30,-1
 846 740 l 1,31,-1
 846 632 l 1,0,-1
606 632 m 1,32,-1
 433 632 l 1,33,-1
 433 556 l 2,34,35
 433 480 433 480 398 424 c 1,36,-1
 606 424 l 1,37,-1
 606 632 l 1,32,-1
EndSplineSet
EndChar

StartChar: dvHA
Encoding: 2361 2361 68
Width: 586
Flags: W
AnchorPoint: "Anchor-3" 376 -109 basechar 0
AnchorPoint: "Anchor-2" 386 -201 basechar 0
AnchorPoint: "Anchor-1" 456 711 basechar 0
AnchorPoint: "Anchor-0" 473 740 basechar 0
LayerCount: 2
Fore
SplineSet
239 438 m 128,-1,1
 217 424 217 424 217 392 c 0,2,3
 217 372 217 372 228 357 c 128,-1,4
 239 342 239 342 258 334 c 1,5,6
 279 338 279 338 308 338 c 0,7,8
 411 338 411 338 469 288 c 128,-1,9
 527 238 527 238 537 160 c 1,10,-1
 413 160 l 1,11,12
 406 190 406 190 378 212.5 c 128,-1,13
 350 235 350 235 306 235 c 0,14,15
 254 235 254 235 222.5 202 c 128,-1,16
 191 169 191 169 191 116 c 256,17,18
 191 63 191 63 222.5 30.5 c 128,-1,19
 254 -2 254 -2 306 -2 c 0,20,21
 348 -2 348 -2 376.5 19.5 c 128,-1,22
 405 41 405 41 413 71 c 1,23,-1
 537 71 l 1,24,25
 528 -9 528 -9 465.5 -59 c 128,-1,26
 403 -109 403 -109 306 -109 c 0,27,28
 232 -109 232 -109 177.5 -80 c 128,-1,29
 123 -51 123 -51 94 0.5 c 128,-1,30
 65 52 65 52 65 119 c 0,31,32
 65 178 65 178 90.5 224.5 c 128,-1,33
 116 271 116 271 162 300 c 1,34,35
 127 319 127 319 108 348.5 c 128,-1,36
 89 378 89 378 89 417 c 0,37,38
 89 477 89 477 132.5 511 c 128,-1,39
 176 545 176 545 250 545 c 2,40,-1
 350 545 l 1,41,-1
 350 632 l 1,42,-1
 -21 632 l 1,43,-1
 -21 740 l 1,44,-1
 606 740 l 1,45,-1
 606 632 l 1,46,-1
 473 632 l 1,47,-1
 473 452 l 1,48,-1
 296 452 l 2,49,0
 261 452 261 452 239 438 c 128,-1,1
EndSplineSet
EndChar

StartChar: dvLLA
Encoding: 2355 2355 69
Width: 975
Flags: W
AnchorPoint: "Anchor-3" 754 69 basechar 0
AnchorPoint: "Anchor-2" 764 -23 basechar 0
AnchorPoint: "Anchor-1" 734 705 basechar 0
AnchorPoint: "Anchor-0" 767 740 basechar 0
LayerCount: 2
Fore
SplineSet
767 632 m 1,0,-1
 767 517 l 1,1,2
 834 495 834 495 875 437 c 128,-1,3
 916 379 916 379 916 298 c 0,4,5
 916 230 916 230 886 178 c 128,-1,6
 856 126 856 126 804 97.5 c 128,-1,7
 752 69 752 69 688 69 c 0,8,9
 618 69 618 69 565.5 102.5 c 128,-1,10
 513 136 513 136 489 194 c 1,11,-1
 485 194 l 1,12,13
 462 136 462 136 409.5 102.5 c 128,-1,14
 357 69 357 69 287 69 c 0,15,16
 223 69 223 69 171 97.5 c 128,-1,17
 119 126 119 126 89 178 c 128,-1,18
 59 230 59 230 59 298 c 0,19,20
 59 367 59 367 89 420 c 128,-1,21
 119 473 119 473 171 501.5 c 128,-1,22
 223 530 223 530 286 530 c 0,23,24
 353 530 353 530 404 498.5 c 128,-1,25
 455 467 455 467 486 407 c 1,26,-1
 489 407 l 1,27,28
 538 506 538 506 642 526 c 1,29,-1
 642 632 l 1,30,-1
 -21 632 l 1,31,-1
 -21 740 l 1,32,-1
 995 740 l 1,33,-1
 995 632 l 1,34,-1
 767 632 l 1,0,-1
391 212.5 m 128,-1,36
 424 246 424 246 424 298 c 0,37,38
 424 352 424 352 391 386 c 128,-1,39
 358 420 358 420 305 420 c 256,40,41
 252 420 252 420 218.5 386 c 128,-1,42
 185 352 185 352 185 297 c 0,43,44
 185 244 185 244 219 211.5 c 128,-1,45
 253 179 253 179 305 179 c 0,46,35
 358 179 358 179 391 212.5 c 128,-1,36
755.5 211.5 m 128,-1,48
 789 244 789 244 789 297 c 0,49,50
 789 352 789 352 756 386 c 128,-1,51
 723 420 723 420 670 420 c 256,52,53
 617 420 617 420 584 386 c 128,-1,54
 551 352 551 352 551 298 c 0,55,56
 551 245 551 245 584 212 c 128,-1,57
 617 179 617 179 669 179 c 0,58,47
 722 179 722 179 755.5 211.5 c 128,-1,48
EndSplineSet
EndChar

StartChar: dvK_SSA
Encoding: 65537 -1 70
Width: 838
Flags: W
AnchorPoint: "Anchor-1" 734 705 basechar 0
LayerCount: 2
Fore
SplineSet
859 740 m 1,0,-1
 859 632 l 1,1,-1
 748 632 l 1,2,-1
 748 0 l 1,3,-1
 624 0 l 1,4,-1
 624 356 l 1,5,-1
 322 356 l 1,6,7
 279 336 279 336 253.5 320.5 c 128,-1,8
 228 305 228 305 212 282.5 c 128,-1,9
 196 260 196 260 196 228 c 0,10,11
 196 190 196 190 222 164 c 128,-1,12
 248 138 248 138 289 138 c 0,13,14
 334 138 334 138 360.5 168 c 128,-1,15
 387 198 387 198 387 239 c 1,16,-1
 494 239 l 1,17,-1
 494 -60 l 1,18,-1
 376 -60 l 1,19,-1
 376 95 l 1,20,21
 359 69 359 69 325 50 c 128,-1,22
 291 31 291 31 244 31 c 0,23,24
 164 31 164 31 113.5 78 c 128,-1,25
 63 125 63 125 63 201 c 0,26,27
 63 272 63 272 104 315 c 128,-1,28
 145 358 145 358 218 395 c 1,29,30
 162 412 162 412 126 454 c 128,-1,31
 90 496 90 496 90 561 c 0,32,33
 90 617 90 617 118 660 c 128,-1,34
 146 703 146 703 194.5 726.5 c 128,-1,35
 243 750 243 750 303 750 c 0,36,37
 388 750 388 750 444.5 704 c 128,-1,38
 501 658 501 658 501 576 c 0,39,40
 501 503 501 503 446 450 c 1,41,-1
 624 450 l 1,42,-1
 624 740 l 1,43,-1
 859 740 l 1,0,-1
239 480.5 m 128,-1,45
 272 453 272 453 327 451 c 1,46,47
 359 471 359 471 376.5 495 c 128,-1,48
 394 519 394 519 394 551 c 0,49,50
 394 589 394 589 367.5 614 c 128,-1,51
 341 639 341 639 299 639 c 0,52,53
 260 639 260 639 233 615.5 c 128,-1,54
 206 592 206 592 206 552 c 0,55,44
 206 508 206 508 239 480.5 c 128,-1,45
EndSplineSet
Ligature2: "'akhn' Akhand lookup 1 subtable" dvKA dvVirama dvSSA
EndChar

StartChar: dvJ_NYA
Encoding: 65538 -1 71
Width: 829
Flags: W
AnchorPoint: "Anchor-1" 734 705 basechar 0
LayerCount: 2
Fore
SplineSet
849 740 m 1,0,-1
 849 632 l 1,1,-1
 738 632 l 1,2,-1
 738 0 l 1,3,-1
 611 0 l 1,4,-1
 611 408 l 1,5,-1
 447 408 l 1,6,7
 520 360 520 360 520 265 c 0,8,9
 520 211 520 211 496 170.5 c 128,-1,10
 472 130 472 130 430.5 108 c 128,-1,11
 389 86 389 86 337 86 c 0,12,13
 288 86 288 86 248 104 c 128,-1,14
 208 122 208 122 184 152 c 1,15,-1
 184 14 l 1,16,-1
 59 14 l 1,17,-1
 59 296 l 1,18,-1
 179 296 l 1,19,20
 184 248 184 248 217 220 c 128,-1,21
 250 192 250 192 297 192 c 0,22,23
 346 192 346 192 374 221 c 128,-1,24
 402 250 402 250 402 295 c 0,25,26
 402 349 402 349 366 378.5 c 128,-1,27
 330 408 330 408 276 408 c 2,28,-1
 243 408 l 1,29,-1
 243 511 l 1,30,-1
 611 511 l 1,31,-1
 611 632 l 1,32,-1
 -21 632 l 1,33,-1
 -21 740 l 1,34,-1
 849 740 l 1,0,-1
EndSplineSet
Ligature2: "'akhn' Akhand lookup 1 subtable" dvJA dvVirama dvNYA
EndChar

StartChar: dvK
Encoding: 65539 -1 80
Width: 715
Flags: W
LayerCount: 2
Fore
SplineSet
557 632 m 1,0,-1
 557 459 l 1,1,2
 579 497 579 497 618.5 519.5 c 128,-1,3
 658 542 658 542 712 542 c 0,4,5
 774 542 774 542 820.5 512 c 128,-1,6
 867 482 867 482 892 429 c 128,-1,7
 917 376 917 376 917 310 c 1,8,-1
 786 310 l 1,9,10
 786 363 786 363 754 397 c 128,-1,11
 722 431 722 431 672 431 c 0,12,13
 616 431 616 431 586.5 393 c 128,-1,14
 557 355 557 355 557 301 c 2,15,-1
 557 0 l 1,16,-1
 433 0 l 1,17,-1
 433 162 l 1,18,19
 410 122 410 122 368 99.5 c 128,-1,20
 326 77 326 77 268 77 c 0,21,22
 205 77 205 77 158 106 c 128,-1,23
 111 135 111 135 85 188 c 128,-1,24
 59 241 59 241 59 310 c 256,25,26
 59 379 59 379 85.5 431.5 c 128,-1,27
 112 484 112 484 160.5 513 c 128,-1,28
 209 542 209 542 273 542 c 0,29,30
 329 542 329 542 369 520.5 c 128,-1,31
 409 499 409 499 433 461 c 1,32,-1
 433 632 l 1,33,-1
 -21 632 l 1,34,-1
 -21 740 l 1,35,-1
 917 740 l 1,36,-1
 917 632 l 1,37,-1
 557 632 l 1,0,-1
377.5 203 m 128,-1,39
 405 221 405 221 419 249.5 c 128,-1,40
 433 278 433 278 433 309 c 0,41,42
 433 359 433 359 401.5 395.5 c 128,-1,43
 370 432 370 432 312 432 c 0,44,45
 260 432 260 432 225 398 c 128,-1,46
 190 364 190 364 190 309 c 0,47,48
 190 253 190 253 224 219 c 128,-1,49
 258 185 258 185 311 185 c 0,50,38
 350 185 350 185 377.5 203 c 128,-1,39
EndSplineSet
Ligature2: "'half' Half Forms lookup 7 subtable" dvKA dvVirama
EndChar

StartChar: dvKH
Encoding: 65540 -1 81
Width: 672
Flags: W
LayerCount: 2
Fore
SplineSet
323 369 m 128,-1,1
 277 316 277 316 200 310 c 1,2,-1
 200 249 l 2,3,4
 200 185 200 185 238.5 145.5 c 128,-1,5
 277 106 277 106 345 106 c 0,6,7
 430 106 430 106 472 174 c 1,8,9
 408 230 408 230 408 325 c 0,10,11
 408 388 408 388 436.5 434 c 128,-1,12
 465 480 465 480 516 504.5 c 128,-1,13
 567 529 567 529 632 529 c 0,14,15
 731 529 731 529 792.5 474 c 128,-1,16
 854 419 854 419 854 325 c 0,17,18
 854 261 854 261 825 214.5 c 128,-1,19
 796 168 796 168 745.5 143.5 c 128,-1,20
 695 119 695 119 632 119 c 0,21,22
 597 119 597 119 569 126 c 1,23,24
 536 67 536 67 478 31 c 128,-1,25
 420 -5 420 -5 342 -5 c 0,26,27
 217 -5 217 -5 144.5 66 c 128,-1,28
 72 137 72 137 72 264 c 2,29,-1
 72 401 l 1,30,-1
 102 401 l 2,31,32
 169 401 169 401 204 433 c 128,-1,33
 239 465 239 465 239 539 c 2,34,-1
 239 632 l 1,35,-1
 -21 632 l 1,36,-1
 -21 740 l 1,37,-1
 854 740 l 1,38,-1
 854 632 l 1,39,-1
 369 632 l 1,40,-1
 369 522 l 2,41,0
 369 422 369 422 323 369 c 128,-1,1
552 403.5 m 128,-1,43
 522 374 522 374 522 325 c 256,44,45
 522 276 522 276 552 246.5 c 128,-1,46
 582 217 582 217 632 217 c 256,47,48
 682 217 682 217 711.5 246.5 c 128,-1,49
 741 276 741 276 741 325 c 256,50,51
 741 374 741 374 711.5 403.5 c 128,-1,52
 682 433 682 433 632 433 c 256,53,42
 582 433 582 433 552 403.5 c 128,-1,43
EndSplineSet
Ligature2: "'half' Half Forms lookup 7 subtable" dvKHA dvVirama
EndChar

StartChar: dvG
Encoding: 65541 -1 82
Width: 521
Flags: W
LayerCount: 2
Fore
SplineSet
542 632 m 1,0,-1
 424 632 l 1,1,-1
 424 390 l 2,2,3
 424 301 424 301 377 245.5 c 128,-1,4
 330 190 330 190 234 190 c 0,5,6
 141 190 141 190 90.5 241 c 128,-1,7
 40 292 40 292 40 383 c 0,8,9
 40 404 40 404 41 414 c 1,10,-1
 166 414 l 1,11,-1
 166 383 l 2,12,13
 166 347 166 347 181.5 323.5 c 128,-1,14
 197 300 197 300 231 300 c 0,15,16
 294 300 294 300 294 384 c 2,17,-1
 294 632 l 1,18,-1
 -21 632 l 1,19,-1
 -21 740 l 1,20,-1
 542 740 l 1,21,-1
 542 632 l 1,0,-1
EndSplineSet
Ligature2: "'half' Half Forms lookup 7 subtable" dvGA dvVirama
EndChar

StartChar: dvGH
Encoding: 65542 -1 83
Width: 398
Flags: W
LayerCount: 2
Fore
SplineSet
215 632 m 1,0,-1
 215 580 l 2,1,2
 215 533 215 533 240.5 508 c 128,-1,3
 266 483 266 483 323 483 c 2,4,-1
 365 483 l 1,5,-1
 365 379 l 1,6,-1
 313 379 l 2,7,8
 258 379 258 379 230.5 355.5 c 128,-1,9
 203 332 203 332 203 294 c 0,10,11
 203 250 203 250 236 227 c 128,-1,12
 269 204 269 204 322 204 c 0,13,14
 397 204 397 204 440.5 247 c 128,-1,15
 484 290 484 290 484 358 c 1,16,-1
 593 358 l 1,17,18
 593 286 593 286 560.5 226.5 c 128,-1,19
 528 167 528 167 466.5 132.5 c 128,-1,20
 405 98 405 98 322 98 c 0,21,22
 205 98 205 98 138.5 145 c 128,-1,23
 72 192 72 192 72 281 c 0,24,25
 72 339 72 339 106 378 c 128,-1,26
 140 417 140 417 189 428 c 1,27,-1
 189 431 l 1,28,29
 142 442 142 442 114 476.5 c 128,-1,30
 86 511 86 511 86 574 c 2,31,-1
 86 632 l 1,32,-1
 -21 632 l 1,33,-1
 -21 740 l 1,34,-1
 593 740 l 1,35,-1
 593 632 l 1,36,-1
 215 632 l 1,0,-1
EndSplineSet
Ligature2: "'half' Half Forms lookup 7 subtable" dvGHA dvVirama
EndChar

StartChar: dvC
Encoding: 65544 -1 85
Width: 447
Flags: W
LayerCount: 2
Fore
SplineSet
638 632 m 1,0,-1
 -21 632 l 1,1,-1
 -21 740 l 1,2,-1
 638 740 l 1,3,-1
 638 632 l 1,0,-1
607.5 219 m 128,-1,5
 576 157 576 157 515 122.5 c 128,-1,6
 454 88 454 88 371 88 c 0,7,8
 267 88 267 88 202.5 138.5 c 128,-1,9
 138 189 138 189 138 283 c 0,10,11
 138 324 138 324 154 358.5 c 128,-1,12
 170 393 170 393 200 416 c 1,13,-1
 50 416 l 1,14,-1
 50 518 l 1,15,-1
 417 518 l 1,16,-1
 417 416 l 1,17,-1
 378 416 l 2,18,19
 325 416 325 416 292.5 385 c 128,-1,20
 260 354 260 354 260 305 c 0,21,22
 260 254 260 254 295.5 225 c 128,-1,23
 331 196 331 196 384 196 c 0,24,25
 449 197 449 197 488 243 c 128,-1,26
 527 289 527 289 527 361 c 1,27,-1
 638 361 l 1,28,4
 639 281 639 281 607.5 219 c 128,-1,5
EndSplineSet
Ligature2: "'half' Half Forms lookup 7 subtable" dvCA dvVirama
EndChar

StartChar: dvCH
Encoding: 65545 -1 86
Width: 821
Flags: W
LayerCount: 2
Fore
SplineSet
213 632 m 1,0,-1
 213 553 l 2,1,2
 213 457 213 457 313 457 c 2,3,-1
 333 457 l 1,4,-1
 333 353 l 1,5,-1
 315 353 l 2,6,7
 257 353 257 353 227 326 c 128,-1,8
 197 299 197 299 197 256 c 0,9,10
 197 196 197 196 248.5 164.5 c 128,-1,11
 300 133 300 133 401 133 c 0,12,13
 524 133 524 133 594 186.5 c 128,-1,14
 664 240 664 240 664 337 c 0,15,16
 664 388 664 388 640.5 418 c 128,-1,17
 617 448 617 448 582 448 c 0,18,19
 549 448 549 448 526 424 c 128,-1,20
 503 400 503 400 503 355 c 0,21,22
 503 319 503 319 518 272 c 1,23,-1
 411 272 l 1,24,25
 395 315 395 315 395 369 c 0,26,27
 395 456 395 456 449 499.5 c 128,-1,28
 503 543 503 543 583 543 c 0,29,30
 669 543 669 543 723 487.5 c 128,-1,31
 777 432 777 432 777 332 c 0,32,33
 777 238 777 238 731.5 168 c 128,-1,34
 686 98 686 98 601 60.5 c 128,-1,35
 516 23 516 23 400 23 c 0,36,37
 248 23 248 23 157 79.5 c 128,-1,38
 66 136 66 136 66 244 c 0,39,40
 66 306 66 306 98.5 346 c 128,-1,41
 131 386 131 386 187 402 c 1,42,-1
 187 405 l 1,43,44
 141 415 141 415 112.5 450 c 128,-1,45
 84 485 84 485 84 548 c 2,46,-1
 84 632 l 1,47,-1
 -21 632 l 1,48,-1
 -21 740 l 1,49,-1
 842 740 l 1,50,-1
 842 632 l 1,51,-1
 213 632 l 1,0,-1
EndSplineSet
Ligature2: "'half' Half Forms lookup 7 subtable" dvCHA dvVirama
EndChar

StartChar: dvJ
Encoding: 65546 -1 87
Width: 548
Flags: W
LayerCount: 2
Fore
SplineSet
701 740 m 1,0,-1
 701 632 l 1,1,-1
 -21 632 l 1,2,-1
 -21 740 l 1,3,-1
 701 740 l 1,0,-1
701 382 m 1,4,-1
 490 382 l 1,5,-1
 490 327 l 2,6,7
 490 264 490 264 464 215.5 c 128,-1,8
 438 167 438 167 389.5 139.5 c 128,-1,9
 341 112 341 112 276 112 c 0,10,11
 173 112 173 112 116.5 171 c 128,-1,12
 60 230 60 230 60 327 c 2,13,-1
 60 492 l 1,14,-1
 191 492 l 1,15,-1
 191 330 l 2,16,17
 191 282 191 282 213.5 253.5 c 128,-1,18
 236 225 236 225 276 225 c 0,19,20
 318 225 318 225 341 253 c 128,-1,21
 364 281 364 281 364 330 c 2,22,-1
 364 492 l 1,23,-1
 701 492 l 1,24,-1
 701 382 l 1,4,-1
EndSplineSet
Ligature2: "'half' Half Forms lookup 7 subtable" dvJA dvVirama
EndChar

StartChar: dvJH
Encoding: 65547 -1 88
Width: 564
Flags: W
LayerCount: 2
Fore
SplineSet
223.5 435 m 128,-1,1
 198 421 198 421 198 388 c 0,2,3
 198 358 198 358 219.5 343.5 c 128,-1,4
 241 329 241 329 277 329 c 2,5,-1
 321 329 l 1,6,-1
 689 329 l 1,7,-1
 689 232 l 1,8,-1
 497 232 l 1,9,10
 524 195 524 195 524 140 c 0,11,12
 524 73 524 73 480 30.5 c 128,-1,13
 436 -12 436 -12 356 -12 c 0,14,15
 265 -12 265 -12 212 50 c 1,16,-1
 212 -81 l 1,17,-1
 90 -81 l 1,18,-1
 90 170 l 1,19,-1
 206 170 l 1,20,21
 210 132 210 132 239 107.5 c 128,-1,22
 268 83 268 83 317 83 c 0,23,24
 360 83 360 83 382.5 104 c 128,-1,25
 405 125 405 125 405 156 c 0,26,27
 405 195 405 195 377.5 216.5 c 128,-1,28
 350 238 350 238 297 238 c 2,29,-1
 238 238 l 2,30,31
 167 241 167 241 118 278 c 128,-1,32
 69 315 69 315 69 389 c 0,33,34
 69 467 69 467 121 504.5 c 128,-1,35
 173 542 173 542 252 542 c 2,36,-1
 343 542 l 1,37,-1
 343 632 l 1,38,-1
 -21 632 l 1,39,-1
 -21 740 l 1,40,-1
 689 740 l 1,41,-1
 689 632 l 1,42,-1
 467 632 l 1,43,-1
 467 449 l 1,44,-1
 286 449 l 2,45,0
 249 449 249 449 223.5 435 c 128,-1,1
EndSplineSet
Ligature2: "'half' Half Forms lookup 7 subtable" dvJHA dvVirama
EndChar

StartChar: dvNY
Encoding: 65548 -1 89
Width: 537
Flags: W
LayerCount: 2
Fore
SplineSet
675 740 m 1,0,-1
 675 632 l 1,1,-1
 -21 632 l 1,2,-1
 -21 740 l 1,3,-1
 675 740 l 1,0,-1
438.5 495.5 m 128,-1,5
 498 447 498 447 514 365 c 1,6,-1
 675 365 l 1,7,-1
 675 256 l 1,8,-1
 516 256 l 1,9,10
 502 169 502 169 441.5 118 c 128,-1,11
 381 67 381 67 288 67 c 0,12,13
 191 67 191 67 129 119 c 128,-1,14
 67 171 67 171 59 254 c 1,15,-1
 181 254 l 1,16,17
 190 220 190 220 218.5 198 c 128,-1,18
 247 176 247 176 289 176 c 0,19,20
 344 176 344 176 374 213 c 128,-1,21
 404 250 404 250 404 306 c 0,22,23
 404 360 404 360 373.5 397 c 128,-1,24
 343 434 343 434 289 434 c 0,25,26
 247 434 247 434 218.5 411.5 c 128,-1,27
 190 389 190 389 181 356 c 1,28,-1
 59 356 l 1,29,30
 67 440 67 440 128.5 492 c 128,-1,31
 190 544 190 544 288 544 c 0,32,4
 379 544 379 544 438.5 495.5 c 128,-1,5
EndSplineSet
Ligature2: "'half' Half Forms lookup 7 subtable" dvNYA dvVirama
EndChar

StartChar: dvNN
Encoding: 65553 -1 94
Width: 577
Flags: W
LayerCount: 2
Fore
SplineSet
597 632 m 1,0,-1
 504 632 l 1,1,-1
 504 372 l 2,2,3
 504 277 504 277 449.5 218 c 128,-1,4
 395 159 395 159 294 159 c 0,5,6
 194 159 194 159 139.5 219 c 128,-1,7
 85 279 85 279 85 372 c 2,8,-1
 85 632 l 1,9,-1
 -21 632 l 1,10,-1
 -21 740 l 1,11,-1
 597 740 l 1,12,-1
 597 632 l 1,0,-1
377 632 m 1,13,-1
 211 632 l 1,14,-1
 211 360 l 2,15,16
 211 319 211 319 233.5 293.5 c 128,-1,17
 256 268 256 268 295 268 c 256,18,19
 334 268 334 268 355.5 293 c 128,-1,20
 377 318 377 318 377 360 c 2,21,-1
 377 632 l 1,13,-1
EndSplineSet
Ligature2: "'half' Half Forms lookup 7 subtable" dvNNA dvVirama
EndChar

StartChar: dvT
Encoding: 65554 -1 95
Width: 387
Flags: W
LayerCount: 2
Fore
SplineSet
-21 632 m 1,0,-1
 -21 740 l 1,1,-1
 549 740 l 1,2,-1
 549 632 l 1,3,-1
 -21 632 l 1,0,-1
549 383 m 1,4,-1
 350 383 l 2,5,6
 276 383 276 383 233 347 c 128,-1,7
 190 311 190 311 190 244 c 0,8,9
 190 178 190 178 228 140.5 c 128,-1,10
 266 103 266 103 339 103 c 2,11,-1
 359 103 l 1,12,-1
 359 2 l 1,13,-1
 319 2 l 2,14,15
 203 2 203 2 131 64 c 128,-1,16
 59 126 59 126 59 247 c 0,17,18
 59 371 59 371 138 432.5 c 128,-1,19
 217 494 217 494 344 494 c 2,20,-1
 549 494 l 1,21,-1
 549 383 l 1,4,-1
EndSplineSet
Ligature2: "'half' Half Forms lookup 7 subtable" dvTA dvVirama
EndChar

StartChar: dvTH
Encoding: 65555 -1 96
Width: 474
Flags: W
LayerCount: 2
Fore
SplineSet
675 357 m 1,0,1
 675 275 675 275 633.5 214 c 128,-1,2
 592 153 592 153 521 120.5 c 128,-1,3
 450 88 450 88 365 88 c 0,4,5
 225 88 225 88 144.5 162.5 c 128,-1,6
 64 237 64 237 64 369 c 0,7,8
 64 406 64 406 69 433 c 1,9,-1
 160 433 l 2,10,11
 248 433 248 433 300.5 460.5 c 128,-1,12
 353 488 353 488 353 556 c 0,13,14
 353 592 353 592 332 615.5 c 128,-1,15
 311 639 311 639 275 639 c 0,16,17
 237 639 237 639 215 615.5 c 128,-1,18
 193 592 193 592 193 552 c 0,19,20
 193 538 193 538 197 514 c 1,21,-1
 80 514 l 1,22,23
 76 540 76 540 76 555 c 0,24,25
 76 616 76 616 102.5 660 c 128,-1,26
 129 704 129 704 174.5 726.5 c 128,-1,27
 220 749 220 749 276 749 c 0,28,29
 334 749 334 749 379 724.5 c 128,-1,30
 424 700 424 700 449 655 c 128,-1,31
 474 610 474 610 474 552 c 0,32,33
 474 452 474 452 404.5 396 c 128,-1,34
 335 340 335 340 210 340 c 2,35,-1
 189 340 l 1,36,37
 192 276 192 276 235.5 236 c 128,-1,38
 279 196 279 196 362 196 c 0,39,40
 451 196 451 196 507.5 239 c 128,-1,41
 564 282 564 282 564 357 c 1,42,-1
 675 357 l 1,0,1
EndSplineSet
Ligature2: "'half' Half Forms lookup 7 subtable" dvTHA dvVirama
EndChar

StartChar: dvDH
Encoding: 65557 -1 98
Width: 428
Flags: W
LayerCount: 2
Fore
SplineSet
589.5 200.5 m 128,-1,1
 553 145 553 145 485 114.5 c 128,-1,2
 417 84 417 84 327 84 c 0,3,4
 216 84 216 84 147 129.5 c 128,-1,5
 78 175 78 175 78 264 c 0,6,7
 78 324 78 324 113 361.5 c 128,-1,8
 148 399 148 399 195 408 c 1,9,-1
 195 412 l 1,10,11
 142 426 142 426 106 468 c 128,-1,12
 70 510 70 510 70 577 c 0,13,14
 70 654 70 654 120.5 701.5 c 128,-1,15
 171 749 171 749 251 749 c 0,16,17
 333 749 333 749 379.5 703.5 c 128,-1,18
 426 658 426 658 426 584 c 0,19,20
 426 568 426 568 424 546 c 1,21,-1
 328 546 l 1,22,-1
 329 568 l 2,23,24
 329 600 329 600 309 620.5 c 128,-1,25
 289 641 289 641 255 641 c 256,26,27
 221 641 221 641 200.5 619 c 128,-1,28
 180 597 180 597 180 563 c 0,29,30
 180 515 180 515 218.5 489.5 c 128,-1,31
 257 464 257 464 316 464 c 2,32,-1
 375 464 l 1,33,-1
 375 360 l 1,34,-1
 322 360 l 2,35,36
 268 360 268 360 238.5 338 c 128,-1,37
 209 316 209 316 209 278 c 0,38,39
 209 234 209 234 246.5 213 c 128,-1,40
 284 192 284 192 339 192 c 0,41,42
 422 192 422 192 467.5 229.5 c 128,-1,43
 513 267 513 267 513 329 c 1,44,-1
 626 329 l 1,45,0
 626 256 626 256 589.5 200.5 c 128,-1,1
EndSplineSet
Ligature2: "'half' Half Forms lookup 7 subtable" dvDHA dvVirama
EndChar

StartChar: dvN
Encoding: 65558 -1 99
Width: 512
Flags: W
LayerCount: 2
Fore
SplineSet
675 740 m 1,0,-1
 675 632 l 1,1,-1
 -21 632 l 1,2,-1
 -21 740 l 1,3,-1
 675 740 l 1,0,-1
85 405.5 m 128,-1,5
 115 452 115 452 166.5 475.5 c 128,-1,6
 218 499 218 499 282 499 c 2,7,-1
 675 499 l 1,8,-1
 675 391 l 1,9,-1
 440 391 l 1,10,11
 475 343 475 343 475 276 c 0,12,13
 475 217 475 217 448 174 c 128,-1,14
 421 131 421 131 374.5 109 c 128,-1,15
 328 87 328 87 271 87 c 0,16,17
 211 87 211 87 162 112 c 128,-1,18
 113 137 113 137 84 183.5 c 128,-1,19
 55 230 55 230 55 293 c 0,20,4
 55 359 55 359 85 405.5 c 128,-1,5
344 363.5 m 128,-1,22
 316 391 316 391 273 391 c 0,23,24
 228 391 228 391 199.5 363.5 c 128,-1,25
 171 336 171 336 171 293 c 256,26,27
 171 250 171 250 199.5 223 c 128,-1,28
 228 196 228 196 273 196 c 0,29,30
 316 196 316 196 344 223.5 c 128,-1,31
 372 251 372 251 372 294 c 0,32,21
 372 336 372 336 344 363.5 c 128,-1,22
EndSplineSet
Ligature2: "'half' Half Forms lookup 7 subtable" dvNA dvVirama
EndChar

StartChar: dvP
Encoding: 65559 -1 100
Width: 358
Flags: W
LayerCount: 2
Fore
SplineSet
204 632 m 1,0,-1
 204 428 l 2,1,2
 204 360 204 360 235 321.5 c 128,-1,3
 266 283 266 283 329 283 c 0,4,5
 386 283 386 283 418 320.5 c 128,-1,6
 450 358 450 358 450 414 c 1,7,-1
 557 414 l 1,8,9
 557 345 557 345 529 290.5 c 128,-1,10
 501 236 501 236 447.5 205 c 128,-1,11
 394 174 394 174 319 174 c 0,12,13
 201 174 201 174 137.5 243.5 c 128,-1,14
 74 313 74 313 74 428 c 2,15,-1
 74 632 l 1,16,-1
 -21 632 l 1,17,-1
 -21 740 l 1,18,-1
 557 740 l 1,19,-1
 557 632 l 1,20,-1
 204 632 l 1,0,-1
EndSplineSet
Ligature2: "'half' Half Forms lookup 7 subtable" dvPA dvVirama
EndChar

StartChar: dvPH
Encoding: 65560 -1 101
Width: 714
Flags: W
LayerCount: 2
Fore
SplineSet
561 632 m 1,0,-1
 561 460 l 1,1,2
 585 498 585 498 626 520 c 128,-1,3
 667 542 667 542 723 542 c 0,4,5
 820 542 820 542 873.5 478 c 128,-1,6
 927 414 927 414 927 310 c 1,7,-1
 796 310 l 1,8,9
 796 365 796 365 766.5 398 c 128,-1,10
 737 431 737 431 682 431 c 0,11,12
 622 431 622 431 591.5 390 c 128,-1,13
 561 349 561 349 561 287 c 2,14,-1
 561 0 l 1,15,-1
 432 0 l 1,16,-1
 432 239 l 1,17,18
 383 174 383 174 286 174 c 0,19,20
 184 174 184 174 129 242 c 128,-1,21
 74 310 74 310 74 422 c 2,22,-1
 74 632 l 1,23,-1
 -21 632 l 1,24,-1
 -21 740 l 1,25,-1
 927 740 l 1,26,-1
 927 632 l 1,27,-1
 561 632 l 1,0,-1
432 632 m 1,28,-1
 204 632 l 1,29,-1
 204 422 l 2,30,31
 204 357 204 357 232.5 320 c 128,-1,32
 261 283 261 283 318 283 c 0,33,34
 372 283 372 283 402 318.5 c 128,-1,35
 432 354 432 354 432 408 c 2,36,-1
 432 632 l 1,28,-1
EndSplineSet
Ligature2: "'half' Half Forms lookup 7 subtable" dvPHA dvVirama
EndChar

StartChar: dvB
Encoding: 65561 -1 102
Width: 397
Flags: W
LayerCount: 2
Fore
SplineSet
580 740 m 1,0,-1
 580 632 l 1,1,-1
 -21 632 l 1,2,-1
 -21 740 l 1,3,-1
 580 740 l 1,0,-1
461.5 519.5 m 128,-1,5
 520 486 520 486 548.5 431.5 c 128,-1,6
 577 377 577 377 577 315 c 0,7,8
 577 248 577 248 547.5 192 c 128,-1,9
 518 136 518 136 460 103 c 128,-1,10
 402 70 402 70 320 70 c 0,11,12
 241 70 241 70 182 101.5 c 128,-1,13
 123 133 123 133 91 188.5 c 128,-1,14
 59 244 59 244 59 314 c 0,15,16
 59 383 59 383 91 437.5 c 128,-1,17
 123 492 123 492 182 522.5 c 128,-1,18
 241 553 241 553 319 553 c 0,19,4
 403 553 403 553 461.5 519.5 c 128,-1,5
220 429 m 1,21,-1
 458 238 l 1,22,23
 476 273 476 273 476 311 c 0,24,25
 476 351 476 351 458 386 c 128,-1,26
 440 421 440 421 405.5 442.5 c 128,-1,27
 371 464 371 464 323 464 c 0,28,20
 265 464 265 464 220 429 c 1,21,-1
188.5 230.5 m 128,-1,30
 210 196 210 196 245.5 178 c 128,-1,31
 281 160 281 160 323 160 c 0,32,33
 382 160 382 160 424 195 c 1,34,-1
 185 386 l 1,35,36
 167 352 167 352 167 311 c 0,37,29
 167 265 167 265 188.5 230.5 c 128,-1,30
EndSplineSet
Ligature2: "'half' Half Forms lookup 7 subtable" dvBA dvVirama
EndChar

StartChar: dvBH
Encoding: 65562 -1 103
Width: 529
Flags: W
LayerCount: 2
Fore
SplineSet
672 355 m 1,0,-1
 472 355 l 1,1,-1
 472 296 l 2,2,3
 472 192 472 192 419.5 134 c 128,-1,4
 367 76 367 76 270 76 c 0,5,6
 209 76 209 76 162 100 c 128,-1,7
 115 124 115 124 89 168 c 128,-1,8
 63 212 63 212 63 269 c 0,9,10
 63 361 63 361 123 410.5 c 128,-1,11
 183 460 183 460 277 460 c 2,12,-1
 351 460 l 1,13,-1
 351 543 l 2,14,15
 351 588 351 588 334.5 613.5 c 128,-1,16
 318 639 318 639 283 639 c 0,17,18
 252 639 252 639 233 617 c 128,-1,19
 214 595 214 595 214 559 c 0,20,21
 214 541 214 541 218 525 c 1,22,-1
 88 525 l 1,23,24
 84 547 84 547 84 564 c 0,25,26
 84 647 84 647 134.5 698 c 128,-1,27
 185 749 185 749 278 749 c 0,28,29
 380 749 380 749 426 687 c 128,-1,30
 472 625 472 625 472 520 c 2,31,-1
 472 460 l 1,32,-1
 672 460 l 1,33,-1
 672 355 l 1,0,-1
351 355 m 1,34,-1
 280 355 l 2,35,36
 236 355 236 355 209.5 332.5 c 128,-1,37
 183 310 183 310 183 270 c 0,38,39
 183 231 183 231 207 208 c 128,-1,40
 231 185 231 185 268 185 c 0,41,42
 308 185 308 185 329.5 213 c 128,-1,43
 351 241 351 241 351 289 c 2,44,-1
 351 355 l 1,34,-1
EndSplineSet
Ligature2: "'half' Half Forms lookup 7 subtable" dvBHA dvVirama
EndChar

StartChar: dvM
Encoding: 65563 -1 104
Width: 522
Flags: W
LayerCount: 2
Fore
SplineSet
452 632 m 1,0,-1
 452 460 l 1,1,-1
 668 460 l 1,2,-1
 668 355 l 1,3,-1
 452 355 l 1,4,-1
 452 296 l 2,5,6
 452 192 452 192 399.5 134 c 128,-1,7
 347 76 347 76 249 76 c 0,8,9
 156 76 156 76 99.5 129 c 128,-1,10
 43 182 43 182 43 269 c 0,11,12
 43 361 43 361 102.5 410.5 c 128,-1,13
 162 460 162 460 256 460 c 2,14,-1
 332 460 l 1,15,-1
 332 632 l 1,16,-1
 -21 632 l 1,17,-1
 -21 740 l 1,18,-1
 668 740 l 1,19,-1
 668 632 l 1,20,-1
 452 632 l 1,0,-1
332 355 m 1,21,-1
 260 355 l 2,22,23
 216 355 216 355 189.5 332.5 c 128,-1,24
 163 310 163 310 163 270 c 0,25,26
 163 231 163 231 186.5 208 c 128,-1,27
 210 185 210 185 247 185 c 0,28,29
 287 185 287 185 309.5 213 c 128,-1,30
 332 241 332 241 332 289 c 2,31,-1
 332 355 l 1,21,-1
EndSplineSet
Ligature2: "'half' Half Forms lookup 7 subtable" dvMA dvVirama
EndChar

StartChar: dvY
Encoding: 65564 -1 105
Width: 436
Flags: W
LayerCount: 2
Fore
SplineSet
613.5 221 m 128,-1,1
 578 161 578 161 511 126.5 c 128,-1,2
 444 92 444 92 355 92 c 0,3,4
 264 92 264 92 197.5 126 c 128,-1,5
 131 160 131 160 95.5 223.5 c 128,-1,6
 60 287 60 287 60 375 c 0,7,8
 60 393 60 393 64 431 c 1,9,-1
 76 431 l 2,10,11
 160 431 160 431 197.5 467 c 128,-1,12
 235 503 235 503 235 578 c 2,13,-1
 235 632 l 1,14,-1
 -21 632 l 1,15,-1
 -21 740 l 1,16,-1
 648 740 l 1,17,-1
 648 632 l 1,18,-1
 363 632 l 1,19,-1
 363 555 l 2,20,21
 363 468 363 468 319.5 418.5 c 128,-1,22
 276 369 276 369 188 362 c 1,23,24
 188 286 188 286 235.5 243.5 c 128,-1,25
 283 201 283 201 360 201 c 0,26,27
 410 201 410 201 448.5 221 c 128,-1,28
 487 241 487 241 508.5 276 c 128,-1,29
 530 311 530 311 530 355 c 1,30,-1
 648 355 l 1,31,0
 649 281 649 281 613.5 221 c 128,-1,1
EndSplineSet
Ligature2: "'half' Half Forms lookup 7 subtable" dvYA dvVirama
EndChar

StartChar: dvL
Encoding: 65566 -1 107
Width: 648
Flags: W
LayerCount: 2
Fore
SplineSet
-21 632 m 1,0,-1
 -21 740 l 1,1,-1
 851 740 l 1,2,-1
 851 632 l 1,3,-1
 -21 632 l 1,0,-1
456 406 m 1,4,5
 476 461 476 461 519.5 496 c 128,-1,6
 563 531 563 531 635 531 c 0,7,8
 696 531 696 531 745 503.5 c 128,-1,9
 794 476 794 476 822.5 423 c 128,-1,10
 851 370 851 370 851 295 c 1,11,-1
 720 293 l 1,12,13
 720 348 720 348 692.5 383 c 128,-1,14
 665 418 665 418 615 418 c 0,15,16
 562 418 562 418 535.5 378.5 c 128,-1,17
 509 339 509 339 509 275 c 2,18,-1
 509 254 l 1,19,-1
 401 254 l 1,20,-1
 401 275 l 2,21,22
 401 338 401 338 375 378 c 128,-1,23
 349 418 349 418 298 418 c 0,24,25
 246 418 246 418 218 383.5 c 128,-1,26
 190 349 190 349 190 293 c 0,27,28
 190 231 190 231 224 194 c 128,-1,29
 258 157 258 157 317 157 c 1,30,-1
 344 159 l 1,31,-1
 344 46 l 1,32,33
 318 44 318 44 310 44 c 0,34,35
 231 44 231 44 174 76.5 c 128,-1,36
 117 109 117 109 88 165.5 c 128,-1,37
 59 222 59 222 59 295 c 0,38,39
 59 371 59 371 88 424 c 128,-1,40
 117 477 117 477 167.5 504 c 128,-1,41
 218 531 218 531 280 531 c 0,42,43
 349 531 349 531 391.5 496 c 128,-1,44
 434 461 434 461 453 406 c 1,45,-1
 456 406 l 1,4,5
EndSplineSet
Ligature2: "'half' Half Forms lookup 7 subtable" dvLA dvVirama
EndChar

StartChar: dvV
Encoding: 65567 -1 108
Width: 372
Flags: W
LayerCount: 2
Fore
SplineSet
-21 632 m 1,0,-1
 -21 740 l 1,1,-1
 580 740 l 1,2,-1
 580 632 l 1,3,-1
 -21 632 l 1,0,-1
550.5 194.5 m 128,-1,5
 521 141 521 141 461.5 108 c 128,-1,6
 402 75 402 75 318 75 c 0,7,8
 239 75 239 75 180.5 105.5 c 128,-1,9
 122 136 122 136 90.5 190 c 128,-1,10
 59 244 59 244 59 314 c 0,11,12
 59 381 59 381 90.5 434 c 128,-1,13
 122 487 122 487 181 516.5 c 128,-1,14
 240 546 240 546 318 546 c 0,15,16
 404 546 404 546 463 512.5 c 128,-1,17
 522 479 522 479 551 425 c 128,-1,18
 580 371 580 371 580 309 c 0,19,4
 580 248 580 248 550.5 194.5 c 128,-1,5
222 213.5 m 128,-1,21
 260 177 260 177 321 177 c 0,22,23
 364 177 364 177 394.5 196 c 128,-1,24
 425 215 425 215 440.5 245.5 c 128,-1,25
 456 276 456 276 456 310 c 0,26,27
 456 365 456 365 420.5 404 c 128,-1,28
 385 443 385 443 321 443 c 0,29,30
 262 443 262 443 223 406.5 c 128,-1,31
 184 370 184 370 184 311 c 0,32,20
 184 250 184 250 222 213.5 c 128,-1,21
EndSplineSet
Ligature2: "'half' Half Forms lookup 7 subtable" dvVA dvVirama
EndChar

StartChar: dvSH
Encoding: 65568 -1 109
Width: 547
Flags: W
LayerCount: 2
Fore
SplineSet
392 219 m 1,0,-1
 518 219 l 1,1,-1
 518 203 l 2,2,3
 518 104 518 104 461 48 c 128,-1,4
 404 -8 404 -8 305 -8 c 0,5,6
 197 -8 197 -8 136 54.5 c 128,-1,7
 75 117 75 117 75 223 c 2,8,-1
 75 408 l 1,9,-1
 217 408 l 2,10,11
 296 408 296 408 347 439.5 c 128,-1,12
 398 471 398 471 398 538 c 0,13,14
 398 583 398 583 373.5 610 c 128,-1,15
 349 637 349 637 307 637 c 256,16,17
 265 637 265 637 241 610 c 128,-1,18
 217 583 217 583 217 538 c 2,19,-1
 218 500 l 1,20,-1
 90 500 l 1,21,22
 87 521 87 521 87 542 c 0,23,24
 87 603 87 603 114 650 c 128,-1,25
 141 697 141 697 191 723 c 128,-1,26
 241 749 241 749 307 749 c 0,27,28
 407 749 407 749 467.5 691.5 c 128,-1,29
 528 634 528 634 528 530 c 0,30,31
 528 417 528 417 454.5 358 c 128,-1,32
 381 299 381 299 264 299 c 2,33,-1
 206 299 l 1,34,-1
 206 214 l 2,35,36
 206 164 206 164 229 134 c 128,-1,37
 252 104 252 104 302 104 c 0,38,39
 344 104 344 104 368 131.5 c 128,-1,40
 392 159 392 159 392 205 c 2,41,-1
 392 219 l 1,0,-1
EndSplineSet
Ligature2: "'half' Half Forms lookup 7 subtable" dvSHA dvVirama
EndChar

StartChar: dvSS
Encoding: 65569 -1 110
Width: 385
Flags: W
LayerCount: 2
Fore
SplineSet
570 632 m 1,0,-1
 200 632 l 1,1,-1
 570 367 l 1,2,3
 570 317 570 317 542 270.5 c 128,-1,4
 514 224 514 224 458.5 194.5 c 128,-1,5
 403 165 403 165 326 165 c 0,6,7
 204 165 204 165 139 237 c 128,-1,8
 74 309 74 309 74 428 c 2,9,-1
 74 632 l 1,10,-1
 -21 632 l 1,11,-1
 -21 740 l 1,12,-1
 570 740 l 1,13,-1
 570 632 l 1,0,-1
412 296.5 m 128,-1,15
 444 319 444 319 455 353 c 1,16,-1
 199 540 l 1,17,-1
 199 424 l 2,18,19
 199 352 199 352 231.5 313 c 128,-1,20
 264 274 264 274 331 274 c 0,21,14
 380 274 380 274 412 296.5 c 128,-1,15
EndSplineSet
Ligature2: "'half' Half Forms lookup 7 subtable" dvSSA dvVirama
EndChar

StartChar: dvS
Encoding: 65570 -1 111
Width: 516
Flags: W
LayerCount: 2
Fore
SplineSet
433 556 m 2,0,1
 433 480 433 480 398 424 c 1,2,-1
 630 424 l 1,3,-1
 630 319 l 1,4,-1
 198 319 l 1,5,-1
 198 203 l 2,6,7
 198 157 198 157 219 129 c 128,-1,8
 240 101 240 101 282 101 c 0,9,10
 321 101 321 101 343 127 c 128,-1,11
 365 153 365 153 365 194 c 2,12,-1
 365 207 l 1,13,-1
 489 207 l 1,14,15
 490 199 490 199 490 188 c 0,16,17
 490 97 490 97 435 44 c 128,-1,18
 380 -9 380 -9 284 -9 c 0,19,20
 182 -9 182 -9 126 51.5 c 128,-1,21
 70 112 70 112 70 209 c 2,22,-1
 70 411 l 1,23,-1
 151 411 l 2,24,25
 231 411 231 411 268 449.5 c 128,-1,26
 305 488 305 488 305 556 c 2,27,-1
 305 632 l 1,28,-1
 -21 632 l 1,29,-1
 -21 740 l 1,30,-1
 630 740 l 1,31,-1
 630 632 l 1,32,-1
 433 632 l 1,33,-1
 433 556 l 2,0,1
EndSplineSet
Ligature2: "'half' Half Forms lookup 7 subtable" dvSA dvVirama
EndChar

StartChar: dvLL
Encoding: 65572 -1 113
Width: 975
Flags: W
LayerCount: 2
Fore
SplineSet
-21 632 m 1,0,-1
 -21 740 l 1,1,-1
 995 740 l 1,2,-1
 995 632 l 1,3,-1
 -21 632 l 1,0,-1
409.5 102.5 m 128,-1,5
 357 69 357 69 287 69 c 0,6,7
 223 69 223 69 171 97.5 c 128,-1,8
 119 126 119 126 89 178 c 128,-1,9
 59 230 59 230 59 298 c 0,10,11
 59 367 59 367 89 420 c 128,-1,12
 119 473 119 473 171 501.5 c 128,-1,13
 223 530 223 530 286 530 c 0,14,15
 353 530 353 530 404 498.5 c 128,-1,16
 455 467 455 467 486 407 c 1,17,-1
 489 407 l 1,18,19
 519 467 519 467 570 498.5 c 128,-1,20
 621 530 621 530 688 530 c 0,21,22
 751 530 751 530 803 501.5 c 128,-1,23
 855 473 855 473 885.5 420 c 128,-1,24
 916 367 916 367 916 298 c 0,25,26
 916 230 916 230 886 178 c 128,-1,27
 856 126 856 126 804 97.5 c 128,-1,28
 752 69 752 69 688 69 c 0,29,30
 618 69 618 69 565.5 102.5 c 128,-1,31
 513 136 513 136 489 194 c 1,32,-1
 485 194 l 1,33,4
 462 136 462 136 409.5 102.5 c 128,-1,5
219 211.5 m 128,-1,35
 253 179 253 179 305 179 c 0,36,37
 358 179 358 179 391 212.5 c 128,-1,38
 424 246 424 246 424 298 c 0,39,40
 424 352 424 352 391 386 c 128,-1,41
 358 420 358 420 305 420 c 256,42,43
 252 420 252 420 218.5 386 c 128,-1,44
 185 352 185 352 185 297 c 0,45,34
 185 244 185 244 219 211.5 c 128,-1,35
584 212 m 128,-1,47
 617 179 617 179 669 179 c 0,48,49
 722 179 722 179 755.5 211.5 c 128,-1,50
 789 244 789 244 789 297 c 0,51,52
 789 352 789 352 756 386 c 128,-1,53
 723 420 723 420 670 420 c 256,54,55
 617 420 617 420 584 386 c 128,-1,56
 551 352 551 352 551 298 c 0,57,46
 551 245 551 245 584 212 c 128,-1,47
EndSplineSet
Ligature2: "'half' Half Forms lookup 7 subtable" dvLLA dvVirama
EndChar

StartChar: dvK_SS
Encoding: 65573 -1 114
Width: 548
Flags: W
LayerCount: 2
Fore
SplineSet
253.5 320.5 m 128,-1,1
 228 305 228 305 212 282.5 c 128,-1,2
 196 260 196 260 196 228 c 0,3,4
 196 190 196 190 222 164 c 128,-1,5
 248 138 248 138 289 138 c 0,6,7
 334 138 334 138 360.5 168 c 128,-1,8
 387 198 387 198 387 239 c 1,9,-1
 494 239 l 1,10,-1
 494 -60 l 1,11,-1
 376 -60 l 1,12,-1
 376 95 l 1,13,14
 359 69 359 69 325 50 c 128,-1,15
 291 31 291 31 244 31 c 0,16,17
 164 31 164 31 113.5 78 c 128,-1,18
 63 125 63 125 63 201 c 0,19,20
 63 272 63 272 104 315 c 128,-1,21
 145 358 145 358 218 395 c 1,22,23
 162 412 162 412 126 454 c 128,-1,24
 90 496 90 496 90 561 c 0,25,26
 90 617 90 617 118 660 c 128,-1,27
 146 703 146 703 194.5 726.5 c 128,-1,28
 243 750 243 750 303 750 c 0,29,30
 388 750 388 750 444.5 704 c 128,-1,31
 501 658 501 658 501 576 c 0,32,33
 501 503 501 503 446 450 c 1,34,-1
 672 450 l 1,35,-1
 672 356 l 1,36,-1
 322 356 l 1,37,0
 279 336 279 336 253.5 320.5 c 128,-1,1
239 480.5 m 128,-1,39
 272 453 272 453 327 451 c 1,40,41
 359 471 359 471 376.5 495 c 128,-1,42
 394 519 394 519 394 551 c 0,43,44
 394 589 394 589 367.5 614 c 128,-1,45
 341 639 341 639 299 639 c 0,46,47
 260 639 260 639 233 615.5 c 128,-1,48
 206 592 206 592 206 552 c 0,49,38
 206 508 206 508 239 480.5 c 128,-1,39
EndSplineSet
Ligature2: "'half' Half Forms lookup 7 subtable" dvK_SSA dvVirama
EndChar

StartChar: dvJ_NY
Encoding: 65574 -1 115
Width: 541
Flags: W
LayerCount: 2
Fore
SplineSet
710 740 m 1,0,-1
 710 632 l 1,1,-1
 -21 632 l 1,2,-1
 -21 740 l 1,3,-1
 710 740 l 1,0,-1
243 511 m 1,4,-1
 710 511 l 1,5,-1
 710 408 l 1,6,-1
 447 408 l 1,7,8
 520 360 520 360 520 265 c 0,9,10
 520 211 520 211 496 170.5 c 128,-1,11
 472 130 472 130 430.5 108 c 128,-1,12
 389 86 389 86 337 86 c 0,13,14
 288 86 288 86 248 104 c 128,-1,15
 208 122 208 122 184 152 c 1,16,-1
 184 14 l 1,17,-1
 59 14 l 1,18,-1
 59 296 l 1,19,-1
 179 296 l 1,20,21
 184 248 184 248 217 220 c 128,-1,22
 250 192 250 192 297 192 c 0,23,24
 346 192 346 192 374 221 c 128,-1,25
 402 250 402 250 402 295 c 0,26,27
 402 349 402 349 366 378.5 c 128,-1,28
 330 408 330 408 276 408 c 2,29,-1
 243 408 l 1,30,-1
 243 511 l 1,4,-1
EndSplineSet
Ligature2: "'half' Half Forms lookup 7 subtable" dvJ_NYA dvVirama
EndChar

StartChar: dvAnusvara
Encoding: 2306 2306 121
Width: 0
GlyphClass: 4
Flags: W
AnchorPoint: "Anchor-0" -90 740 mark 0
LayerCount: 2
Fore
SplineSet
-100.5 844.5 m 128,-1,1
 -123 822 -123 822 -156 822 c 256,2,3
 -189 822 -189 822 -211.5 844.5 c 128,-1,4
 -234 867 -234 867 -234 899 c 0,5,6
 -234 932 -234 932 -211.5 954.5 c 128,-1,7
 -189 977 -189 977 -156 977 c 256,8,9
 -123 977 -123 977 -100.5 954.5 c 128,-1,10
 -78 932 -78 932 -78 899 c 0,11,0
 -78 867 -78 867 -100.5 844.5 c 128,-1,1
EndSplineSet
Substitution2: "Single Substitution lookup 51 subtable" dvAnusvara.amI
EndChar

StartChar: dvCandrabindu
Encoding: 2305 2305 122
Width: 0
GlyphClass: 4
Flags: W
AnchorPoint: "Anchor-0" -90 740 mark 0
LayerCount: 2
Fore
SplineSet
-123.5 999.5 m 128,-1,1
 -139 984 -139 984 -162 984 c 0,2,3
 -184 984 -184 984 -199.5 1000 c 128,-1,4
 -215 1016 -215 1016 -215 1038 c 256,5,6
 -215 1060 -215 1060 -199.5 1075.5 c 128,-1,7
 -184 1091 -184 1091 -162 1091 c 0,8,9
 -139 1091 -139 1091 -123.5 1075.5 c 128,-1,10
 -108 1060 -108 1060 -108 1038 c 0,11,0
 -108 1015 -108 1015 -123.5 999.5 c 128,-1,1
5.5 867.5 m 128,-1,13
 -53 814 -53 814 -161 814 c 0,14,15
 -270 814 -270 814 -328.5 867.5 c 128,-1,16
 -387 921 -387 921 -387 1011 c 1,17,-1
 -284 1011 l 1,18,19
 -284 968 -284 968 -251.5 937 c 128,-1,20
 -219 906 -219 906 -161 906 c 0,21,22
 -104 906 -104 906 -72 937 c 128,-1,23
 -40 968 -40 968 -40 1011 c 1,24,-1
 64 1011 l 1,25,12
 64 921 64 921 5.5 867.5 c 128,-1,13
EndSplineSet
EndChar

StartChar: dvVisarga
Encoding: 2307 2307 123
Width: 262
Flags: W
LayerCount: 2
Fore
SplineSet
186 422.5 m 128,-1,1
 163 400 163 400 131 400 c 0,2,3
 98 400 98 400 75 422.5 c 128,-1,4
 52 445 52 445 52 477 c 0,5,6
 52 510 52 510 75 532.5 c 128,-1,7
 98 555 98 555 131 555 c 0,8,9
 163 555 163 555 186 532.5 c 128,-1,10
 209 510 209 510 209 477 c 0,11,0
 209 445 209 445 186 422.5 c 128,-1,1
186 126.5 m 128,-1,13
 163 104 163 104 131 104 c 0,14,15
 98 104 98 104 75 126.5 c 128,-1,16
 52 149 52 149 52 182 c 0,17,18
 52 214 52 214 75 236.5 c 128,-1,19
 98 259 98 259 131 259 c 0,20,21
 163 259 163 259 186 236.5 c 128,-1,22
 209 214 209 214 209 182 c 0,23,12
 209 149 209 149 186 126.5 c 128,-1,13
EndSplineSet
EndChar

StartChar: dvAvagraha
Encoding: 2365 2365 124
Width: 589
Flags: W
LayerCount: 2
Fore
SplineSet
64 52 m 1,0,-1
 64 161 l 1,1,-1
 299 161 l 2,2,3
 330 161 330 161 347 174 c 128,-1,4
 364 187 364 187 364 209 c 0,5,6
 364 235 364 235 342 259 c 128,-1,7
 320 283 320 283 273 320 c 0,8,9
 227 357 227 357 197 385.5 c 128,-1,10
 167 414 167 414 146 453 c 128,-1,11
 125 492 125 492 125 538 c 0,12,13
 125 605 125 605 169.5 638.5 c 128,-1,14
 214 672 214 672 287 672 c 2,15,-1
 505 672 l 1,16,-1
 505 563 l 1,17,-1
 319 563 l 2,18,19
 291 563 291 563 274 553.5 c 128,-1,20
 257 544 257 544 257 518 c 256,21,22
 257 492 257 492 279 468 c 128,-1,23
 301 444 301 444 348 407 c 0,24,25
 394 370 394 370 423.5 341.5 c 128,-1,26
 453 313 453 313 474 274 c 128,-1,27
 495 235 495 235 495 190 c 0,28,29
 495 127 495 127 450.5 89.5 c 128,-1,30
 406 52 406 52 331 52 c 2,31,-1
 64 52 l 1,0,-1
EndSplineSet
EndChar

StartChar: dvVirama
Encoding: 2381 2381 125
Width: 0
GlyphClass: 4
Flags: W
AnchorPoint: "Anchor-3" -90 0 mark 0
LayerCount: 2
Fore
SplineSet
-90 -271 m 1,0,-1
 -216 -57 l 1,1,-1
 -87 -57 l 1,2,-1
 43 -271 l 1,3,-1
 -90 -271 l 1,0,-1
EndSplineSet
EndChar

StartChar: dvNukta
Encoding: 2364 2364 126
Width: 0
Flags: W
LayerCount: 2
Fore
SplineSet
-256 -196.5 m 128,-1,1
 -279 -219 -279 -219 -312 -219 c 0,2,3
 -344 -219 -344 -219 -367 -196.5 c 128,-1,4
 -390 -174 -390 -174 -390 -142 c 0,5,6
 -390 -109 -390 -109 -367 -86 c 128,-1,7
 -344 -63 -344 -63 -312 -63 c 0,8,9
 -279 -63 -279 -63 -256 -86 c 128,-1,10
 -233 -109 -233 -109 -233 -142 c 0,11,0
 -233 -174 -233 -174 -256 -196.5 c 128,-1,1
EndSplineSet
EndChar

StartChar: dvOm
Encoding: 2384 2384 137
Width: 1066
Flags: W
LayerCount: 2
Fore
SplineSet
529 919 m 128,-1,1
 514 934 514 934 514 957 c 256,2,3
 514 980 514 980 529.5 995.5 c 128,-1,4
 545 1011 545 1011 567 1011 c 0,5,6
 590 1011 590 1011 605 995.5 c 128,-1,7
 620 980 620 980 620 957 c 256,8,9
 620 934 620 934 605 919 c 128,-1,10
 590 904 590 904 567 904 c 256,11,0
 544 904 544 904 529 919 c 128,-1,1
400 786.5 m 128,-1,13
 342 840 342 840 342 930 c 1,14,-1
 444 930 l 1,15,16
 444 887 444 887 476.5 856.5 c 128,-1,17
 509 826 509 826 567 826 c 0,18,19
 624 826 624 826 656.5 856.5 c 128,-1,20
 689 887 689 887 689 930 c 1,21,-1
 793 930 l 1,22,23
 793 840 793 840 734.5 786.5 c 128,-1,24
 676 733 676 733 567 733 c 256,25,12
 458 733 458 733 400 786.5 c 128,-1,13
939.5 621.5 m 128,-1,27
 989 559 989 559 989 437 c 2,28,-1
 989 310 l 2,29,30
 989 167 989 167 923 93 c 128,-1,31
 857 19 857 19 725 19 c 0,32,33
 685 19 685 19 625 29 c 1,34,-1
 625 137 l 1,35,36
 670 129 670 129 702 129 c 0,37,38
 792 129 792 129 828 175.5 c 128,-1,39
 864 222 864 222 864 314 c 2,40,-1
 864 453 l 2,41,42
 864 512 864 512 844.5 543 c 128,-1,43
 825 574 825 574 779 574 c 0,44,45
 697 574 697 574 697 473 c 0,46,47
 697 400 697 400 678 356 c 128,-1,48
 659 312 659 312 616.5 291.5 c 128,-1,49
 574 271 574 271 502 269 c 1,50,51
 511 241 511 241 511 209 c 0,52,53
 511 149 511 149 484.5 104.5 c 128,-1,54
 458 60 458 60 410.5 35.5 c 128,-1,55
 363 11 363 11 301 11 c 0,56,57
 233 11 233 11 181 37 c 128,-1,58
 129 63 129 63 100.5 110 c 128,-1,59
 72 157 72 157 72 219 c 1,60,-1
 194 219 l 1,61,62
 194 177 194 177 221.5 149.5 c 128,-1,63
 249 122 249 122 294 122 c 256,64,65
 339 122 339 122 365.5 149.5 c 128,-1,66
 392 177 392 177 392 221 c 0,67,68
 392 263 392 263 364 292.5 c 128,-1,69
 336 322 336 322 280 322 c 2,70,-1
 237 322 l 1,71,-1
 237 431 l 1,72,-1
 280 431 l 2,73,74
 328 431 328 431 355.5 456.5 c 128,-1,75
 383 482 383 482 383 521 c 0,76,77
 383 563 383 563 357 588 c 128,-1,78
 331 613 331 613 292 613 c 0,79,80
 251 613 251 613 225 589.5 c 128,-1,81
 199 566 199 566 199 527 c 1,82,-1
 79 527 l 1,83,84
 79 585 79 585 106 629.5 c 128,-1,85
 133 674 133 674 181.5 698 c 128,-1,86
 230 722 230 722 293 722 c 0,87,88
 387 722 387 722 443.5 672 c 128,-1,89
 500 622 500 622 500 538 c 0,90,91
 500 480 500 480 471 439 c 128,-1,92
 442 398 442 398 388 382 c 1,93,-1
 388 378 l 1,94,95
 397 376 397 376 413 370 c 1,96,-1
 472 370 l 2,97,98
 527 370 527 370 552 392.5 c 128,-1,99
 577 415 577 415 577 474 c 0,100,101
 577 576 577 576 624 630 c 128,-1,102
 671 684 671 684 779 684 c 0,103,26
 890 684 890 684 939.5 621.5 c 128,-1,27
EndSplineSet
EndChar

StartChar: dvAbbreviationsign
Encoding: 2416 2416 138
Width: 482
Flags: W
LayerCount: 2
Fore
SplineSet
364 459.5 m 128,-1,1
 411 413 411 413 411 340 c 0,2,3
 411 268 411 268 364 222 c 128,-1,4
 317 176 317 176 243 176 c 0,5,6
 194 176 194 176 155 197 c 128,-1,7
 116 218 116 218 94 256 c 128,-1,8
 72 294 72 294 72 341 c 0,9,10
 72 414 72 414 120 460 c 128,-1,11
 168 506 168 506 243 506 c 0,12,0
 317 506 317 506 364 459.5 c 128,-1,1
177 404 m 128,-1,14
 151 379 151 379 151 341 c 0,15,16
 151 302 151 302 177 277.5 c 128,-1,17
 203 253 203 253 243 253 c 0,18,19
 281 253 281 253 306 277.5 c 128,-1,20
 331 302 331 302 331 340 c 256,21,22
 331 378 331 378 306 403.5 c 128,-1,23
 281 429 281 429 243 429 c 0,24,13
 203 429 203 429 177 404 c 128,-1,14
EndSplineSet
EndChar

StartChar: danda
Encoding: 2404 2404 139
Width: 320
Flags: W
LayerCount: 2
Fore
SplineSet
279 741 m 1,0,-1
 279 0 l 1,1,-1
 151 0 l 1,2,-1
 151 741 l 1,3,-1
 279 741 l 1,0,-1
EndSplineSet
EndChar

StartChar: doubledanda
Encoding: 2405 2405 140
Width: 570
Flags: W
LayerCount: 2
Fore
SplineSet
279 741 m 1,0,-1
 279 0 l 1,1,-1
 151 0 l 1,2,-1
 151 741 l 1,3,-1
 279 741 l 1,0,-1
527 741 m 1,4,-1
 527 0 l 1,5,-1
 399 0 l 1,6,-1
 399 741 l 1,7,-1
 527 741 l 1,4,-1
EndSplineSet
EndChar

StartChar: rupee
Encoding: 8360 8360 141
Width: 1167
Flags: W
LayerCount: 2
Fore
SplineSet
541 358.5 m 128,-1,1
 499 303 499 303 415 284 c 1,2,-1
 591 0 l 1,3,-1
 426 0 l 1,4,-1
 263 275 l 1,5,-1
 209 275 l 1,6,-1
 209 0 l 1,7,-1
 69 0 l 1,8,-1
 69 698 l 1,9,-1
 331 698 l 2,10,11
 412 698 412 698 469 670 c 128,-1,12
 526 642 526 642 554.5 593.5 c 128,-1,13
 583 545 583 545 583 485 c 0,14,0
 583 414 583 414 541 358.5 c 128,-1,1
209 379 m 1,15,-1
 326 379 l 2,16,17
 383 379 383 379 411 406 c 128,-1,18
 439 433 439 433 439 482 c 256,19,20
 439 531 439 531 411 558 c 128,-1,21
 383 585 383 585 326 585 c 2,22,-1
 209 585 l 1,23,-1
 209 379 l 1,15,-1
800 347.5 m 128,-1,25
 831 333 831 333 895 320 c 0,26,27
 958 306 958 306 998 291.5 c 128,-1,28
 1038 277 1038 277 1066.5 245 c 128,-1,29
 1095 213 1095 213 1095 158 c 0,30,31
 1095 110 1095 110 1067.5 72 c 128,-1,32
 1040 34 1040 34 990 12.5 c 128,-1,33
 940 -9 940 -9 875 -9 c 0,34,35
 772 -9 772 -9 708.5 39 c 128,-1,36
 645 87 645 87 637 175 c 1,37,-1
 779 175 l 1,38,39
 782 139 782 139 807.5 119 c 128,-1,40
 833 99 833 99 874 99 c 0,41,42
 916 99 916 99 938.5 116 c 128,-1,43
 961 133 961 133 961 161 c 0,44,45
 961 193 961 193 929.5 208 c 128,-1,46
 898 223 898 223 833 236 c 0,47,48
 771 249 771 249 731.5 263 c 128,-1,49
 692 277 692 277 664 308 c 128,-1,50
 636 339 636 339 636 393 c 0,51,52
 636 439 636 439 662.5 478 c 128,-1,53
 689 517 689 517 740 540 c 128,-1,54
 791 563 791 563 860 563 c 0,55,56
 960 563 960 563 1020 513.5 c 128,-1,57
 1080 464 1080 464 1088 380 c 1,58,-1
 947 380 l 1,59,60
 943 415 943 415 918.5 435 c 128,-1,61
 894 455 894 455 854 455 c 256,62,63
 814 455 814 455 791.5 438 c 128,-1,64
 769 421 769 421 769 394 c 0,65,24
 769 362 769 362 800 347.5 c 128,-1,25
EndSplineSet
EndChar

StartChar: indianrupee
Encoding: 8377 8377 142
Width: 611
Flags: W
LayerCount: 2
Fore
SplineSet
478 601 m 1,0,-1
 478 525 l 1,1,-1
 579 525 l 1,2,-1
 579 433 l 1,3,-1
 472 433 l 1,4,5
 456 338 456 338 393.5 295 c 128,-1,6
 331 252 331 252 205 252 c 1,7,-1
 205 199 l 2,8,9
 205 152 205 152 224.5 125 c 128,-1,10
 244 98 244 98 291 98 c 0,11,12
 336 98 336 98 356 123.5 c 128,-1,13
 376 149 376 149 376 198 c 1,14,-1
 506 198 l 1,15,16
 504 97 504 97 449 43.5 c 128,-1,17
 394 -10 394 -10 292 -10 c 0,18,19
 186 -10 186 -10 130 47 c 128,-1,20
 74 104 74 104 74 213 c 2,21,-1
 74 346 l 1,22,23
 181 346 181 346 232 351.5 c 128,-1,24
 283 357 283 357 308 375 c 128,-1,25
 333 393 333 393 341 433 c 1,26,-1
 42 433 l 1,27,-1
 42 525 l 1,28,-1
 346 525 l 1,29,-1
 346 601 l 1,30,-1
 42 601 l 1,31,-1
 42 699 l 1,32,-1
 579 699 l 1,33,-1
 579 601 l 1,34,-1
 478 601 l 1,0,-1
EndSplineSet
EndChar

StartChar: zerowidthnonjoiner
Encoding: 8204 8204 143
Width: 0
Flags: W
LayerCount: 2
Fore
SplineSet
-23 -230 m 1,0,-1
 -23 811 l 1,1,-1
 24 811 l 1,2,-1
 24 -230 l 1,3,-1
 -23 -230 l 1,0,-1
EndSplineSet
EndChar

StartChar: zerowidthjoiner
Encoding: 8205 8205 144
Width: 0
Flags: W
LayerCount: 2
Fore
SplineSet
95 560 m 1,0,-1
 23 635 l 1,1,-1
 23 -230 l 1,2,-1
 -24 -230 l 1,3,-1
 -24 635 l 1,4,-1
 -93 562 l 1,5,-1
 -126 595 l 1,6,-1
 -33 688 l 1,7,-1
 -128 783 l 1,8,-1
 -95 816 l 1,9,-1
 0 721 l 1,10,-1
 96 816 l 1,11,-1
 128 784 l 1,12,-1
 32 688 l 1,13,-1
 128 593 l 1,14,-1
 95 560 l 1,0,-1
EndSplineSet
EndChar

StartChar: dottedcircle
Encoding: 9676 9676 145
Width: 651
Flags: W
LayerCount: 2
Fore
SplineSet
332 467.5 m 128,-1,1
 320 456 320 456 301 456 c 256,2,3
 282 456 282 456 270 467.5 c 128,-1,4
 258 479 258 479 258 498 c 256,5,6
 258 517 258 517 270 528.5 c 128,-1,7
 282 540 282 540 301 540 c 256,8,9
 320 540 320 540 332 528.5 c 128,-1,10
 344 517 344 517 344 498 c 256,11,0
 344 479 344 479 332 467.5 c 128,-1,1
453 452.5 m 128,-1,13
 441 441 441 441 422 441 c 256,14,15
 403 441 403 441 391 452.5 c 128,-1,16
 379 464 379 464 379 483 c 256,17,18
 379 502 379 502 391 513.5 c 128,-1,19
 403 525 403 525 422 525 c 256,20,21
 441 525 441 525 453 513.5 c 128,-1,22
 465 502 465 502 465 483 c 256,23,12
 465 464 465 464 453 452.5 c 128,-1,13
215 425.5 m 128,-1,25
 203 414 203 414 184 414 c 256,26,27
 165 414 165 414 153 425.5 c 128,-1,28
 141 437 141 437 141 456 c 256,29,30
 141 475 141 475 153 486.5 c 128,-1,31
 165 498 165 498 184 498 c 256,32,33
 203 498 203 498 215 486.5 c 128,-1,34
 227 475 227 475 227 456 c 256,35,24
 227 437 227 437 215 425.5 c 128,-1,25
545 378.5 m 128,-1,37
 533 367 533 367 514 367 c 256,38,39
 495 367 495 367 483 378.5 c 128,-1,40
 471 390 471 390 471 409 c 256,41,42
 471 428 471 428 483 439.5 c 128,-1,43
 495 451 495 451 514 451 c 256,44,45
 533 451 533 451 545 439.5 c 128,-1,46
 557 428 557 428 557 409 c 256,47,36
 557 390 557 390 545 378.5 c 128,-1,37
139 326.5 m 128,-1,49
 127 315 127 315 108 315 c 256,50,51
 89 315 89 315 77 326.5 c 128,-1,52
 65 338 65 338 65 357 c 256,53,54
 65 376 65 376 77 387.5 c 128,-1,55
 89 399 89 399 108 399 c 256,56,57
 127 399 127 399 139 387.5 c 128,-1,58
 151 376 151 376 151 357 c 256,59,48
 151 338 151 338 139 326.5 c 128,-1,49
589 264.5 m 128,-1,61
 577 253 577 253 558 253 c 256,62,63
 539 253 539 253 527 264.5 c 128,-1,64
 515 276 515 276 515 295 c 256,65,66
 515 314 515 314 527 325.5 c 128,-1,67
 539 337 539 337 558 337 c 256,68,69
 577 337 577 337 589 325.5 c 128,-1,70
 601 314 601 314 601 295 c 256,71,60
 601 276 601 276 589 264.5 c 128,-1,61
124 205.5 m 128,-1,73
 112 194 112 194 93 194 c 256,74,75
 74 194 74 194 62 205.5 c 128,-1,76
 50 217 50 217 50 236 c 256,77,78
 50 255 50 255 62 266.5 c 128,-1,79
 74 278 74 278 93 278 c 256,80,81
 112 278 112 278 124 266.5 c 128,-1,82
 136 255 136 255 136 236 c 256,83,72
 136 217 136 217 124 205.5 c 128,-1,73
579 144.5 m 128,-1,85
 567 133 567 133 548 133 c 256,86,87
 529 133 529 133 517 144.5 c 128,-1,88
 505 156 505 156 505 175 c 256,89,90
 505 194 505 194 517 205.5 c 128,-1,91
 529 217 529 217 548 217 c 256,92,93
 567 217 567 217 579 205.5 c 128,-1,94
 591 194 591 194 591 175 c 256,95,84
 591 156 591 156 579 144.5 c 128,-1,85
169 92.5 m 128,-1,97
 157 81 157 81 138 81 c 256,98,99
 119 81 119 81 107 92.5 c 128,-1,100
 95 104 95 104 95 123 c 256,101,102
 95 142 95 142 107 153.5 c 128,-1,103
 119 165 119 165 138 165 c 256,104,105
 157 165 157 165 169 153.5 c 128,-1,106
 181 142 181 142 181 123 c 256,107,96
 181 104 181 104 169 92.5 c 128,-1,97
506 48.5 m 128,-1,109
 494 37 494 37 475 37 c 256,110,111
 456 37 456 37 444 48.5 c 128,-1,112
 432 60 432 60 432 79 c 256,113,114
 432 98 432 98 444 109.5 c 128,-1,115
 456 121 456 121 475 121 c 256,116,117
 494 121 494 121 506 109.5 c 128,-1,118
 518 98 518 98 518 79 c 256,119,108
 518 60 518 60 506 48.5 c 128,-1,109
267 16.5 m 128,-1,121
 255 5 255 5 236 5 c 256,122,123
 217 5 217 5 205 16.5 c 128,-1,124
 193 28 193 28 193 47 c 256,125,126
 193 66 193 66 205 77.5 c 128,-1,127
 217 89 217 89 236 89 c 256,128,129
 255 89 255 89 267 77.5 c 128,-1,130
 279 66 279 66 279 47 c 256,131,120
 279 28 279 28 267 16.5 c 128,-1,121
391 2.5 m 128,-1,133
 379 -9 379 -9 360 -9 c 256,134,135
 341 -9 341 -9 329 2.5 c 128,-1,136
 317 14 317 14 317 33 c 256,137,138
 317 52 317 52 329 63.5 c 128,-1,139
 341 75 341 75 360 75 c 256,140,141
 379 75 379 75 391 63.5 c 128,-1,142
 403 52 403 52 403 33 c 256,143,132
 403 14 403 14 391 2.5 c 128,-1,133
EndSplineSet
EndChar

StartChar: dvReph
Encoding: 65580 -1 146
Width: 0
GlyphClass: 4
Flags: W
AnchorPoint: "Anchor-0" -90 740 mark 0
LayerCount: 2
Fore
SplineSet
-210 719 m 1,0,-1
 -210 808 l 2,1,2
 -210 898 -210 898 -166 957 c 128,-1,3
 -122 1016 -122 1016 -24 1016 c 0,4,5
 65 1016 65 1016 113 964.5 c 128,-1,6
 161 913 161 913 157 825 c 1,7,-1
 44 825 l 1,8,9
 45 863 45 863 27.5 885.5 c 128,-1,10
 10 908 10 908 -21 908 c 0,11,12
 -56 908 -56 908 -73 883 c 128,-1,13
 -90 858 -90 858 -90 809 c 2,14,-1
 -90 719 l 1,15,-1
 -210 719 l 1,0,-1
EndSplineSet
Substitution2: "Single Substitution lookup 51 subtable" dvReph.amI
Ligature2: "'rphf' Reph Form lookup 3 subtable" dvRA dvVirama
EndChar

StartChar: dvEyelash
Encoding: 65581 -1 147
Width: 331
Flags: W
LayerCount: 2
Fore
SplineSet
-21 632 m 1,0,-1
 -21 740 l 1,1,-1
 413 740 l 1,2,-1
 413 632 l 1,3,-1
 -21 632 l 1,0,-1
424 361 m 1,4,5
 397 344 397 344 357 333 c 128,-1,6
 317 322 317 322 274 322 c 0,7,8
 173 322 173 322 103 373 c 128,-1,9
 33 424 33 424 30 532 c 1,10,-1
 153 532 l 1,11,12
 155 472 155 472 194.5 444 c 128,-1,13
 234 416 234 416 292 416 c 0,14,15
 333 416 333 416 375 433 c 1,16,-1
 424 361 l 1,4,5
EndSplineSet
Ligature2: "Ligature Substitution lookup 24 subtable" dvRA dvVirama
Ligature2: "'half' Half Forms lookup 7 subtable" dvRxA dvVirama
Ligature2: "'half' Half Forms lookup 7 subtable" dvRA dvVirama
EndChar

StartChar: dvRashtrasign
Encoding: 65582 -1 148
Width: 0
Flags: W
LayerCount: 2
Fore
SplineSet
-177 -97 m 1,0,-1
 -285 33 l 1,1,-1
 -393 -97 l 1,2,-1
 -524 -97 l 1,3,-1
 -371 82 l 1,4,-1
 -199 82 l 1,5,-1
 -44 -97 l 1,6,-1
 -177 -97 l 1,0,-1
EndSplineSet
Ligature2: "'blwf' Below Base Forms in Devanagari lookup 6 subtable" dvRA dvVirama
Ligature2: "'blwf' Below Base Forms in Devanagari2 lookup 5 subtable" dvVirama dvRA
EndChar

StartChar: dvK_RA
Encoding: 65583 -1 149
Width: 976
Flags: W
AnchorPoint: "Anchor-3" 557 0 basechar 0
AnchorPoint: "Anchor-2" 557 -40 basechar 0
AnchorPoint: "Anchor-1" 568 709 basechar 0
AnchorPoint: "Anchor-0" 557 740 basechar 0
LayerCount: 2
Fore
SplineSet
557 632 m 1,0,-1
 557 459 l 1,1,2
 579 497 579 497 618.5 519.5 c 128,-1,3
 658 542 658 542 712 542 c 0,4,5
 774 542 774 542 820.5 512 c 128,-1,6
 867 482 867 482 892 430 c 128,-1,7
 917 378 917 378 917 313 c 0,8,9
 917 242 917 242 890.5 190.5 c 128,-1,10
 864 139 864 139 817 112 c 128,-1,11
 770 85 770 85 710 85 c 0,12,13
 675 85 675 85 644 92 c 1,14,-1
 644 194 l 1,15,16
 656 190 656 190 675 190 c 0,17,18
 724 190 724 190 755 222 c 128,-1,19
 786 254 786 254 786 310 c 0,20,21
 786 363 786 363 754 397 c 128,-1,22
 722 431 722 431 672 431 c 0,23,24
 616 431 616 431 587.5 393 c 128,-1,25
 559 355 559 355 557 301 c 2,26,-1
 557 0 l 1,27,-1
 433 0 l 1,28,-1
 433 169 l 1,29,30
 425 155 425 155 415 145 c 2,31,-1
 240 -46 l 1,32,-1
 101 -46 l 1,33,-1
 231 91 l 1,34,35
 154 103 154 103 106.5 162.5 c 128,-1,36
 59 222 59 222 59 310 c 0,37,38
 59 379 59 379 85.5 431.5 c 128,-1,39
 112 484 112 484 160.5 513 c 128,-1,40
 209 542 209 542 273 542 c 0,41,42
 329 542 329 542 369 520.5 c 128,-1,43
 409 499 409 499 433 461 c 1,44,-1
 433 632 l 1,45,-1
 -21 632 l 1,46,-1
 -21 740 l 1,47,-1
 996 740 l 1,48,-1
 996 632 l 1,49,-1
 557 632 l 1,0,-1
377.5 203 m 128,-1,51
 405 221 405 221 419 249.5 c 128,-1,52
 433 278 433 278 433 309 c 0,53,54
 433 359 433 359 401.5 395.5 c 128,-1,55
 370 432 370 432 312 432 c 0,56,57
 260 432 260 432 225 398 c 128,-1,58
 190 364 190 364 190 309 c 0,59,60
 190 253 190 253 224 219 c 128,-1,61
 258 185 258 185 311 185 c 0,62,50
 350 185 350 185 377.5 203 c 128,-1,51
EndSplineSet
Ligature2: "'vatu' Vattu Variants in Devanagari lookup 9 subtable" dvKA dvRashtrasign
Ligature2: "'rkrf' Rakar Forms in Devanagari2 lookup 4 subtable" dvKA dvVirama dvRA
EndChar

StartChar: dvKH_RA
Encoding: 65584 -1 150
Width: 950
Flags: W
AnchorPoint: "Anchor-1" 845 704 basechar 0
LayerCount: 2
Fore
SplineSet
971 740 m 1,0,-1
 971 632 l 1,1,-1
 860 632 l 1,2,-1
 860 0 l 1,3,-1
 732 0 l 1,4,-1
 732 181 l 1,5,6
 689 121 689 121 601 121 c 0,7,8
 584 121 584 121 567 124 c 1,9,10
 559 111 559 111 541 87 c 2,11,-1
 344 -138 l 1,12,-1
 206 -138 l 1,13,-1
 206 -131 l 1,14,-1
 327 0 l 1,15,16
 209 5 209 5 140.5 74 c 128,-1,17
 72 143 72 143 72 264 c 2,18,-1
 72 401 l 1,19,-1
 102 401 l 2,20,21
 169 401 169 401 204 433 c 128,-1,22
 239 465 239 465 239 539 c 2,23,-1
 239 632 l 1,24,-1
 -21 632 l 1,25,-1
 -21 740 l 1,26,-1
 971 740 l 1,0,-1
469 170 m 1,28,29
 439 198 439 198 423 238.5 c 128,-1,30
 407 279 407 279 407 328 c 0,31,32
 407 387 407 387 432 433.5 c 128,-1,33
 457 480 457 480 501.5 506 c 128,-1,34
 546 532 546 532 601 532 c 0,35,36
 687 532 687 532 732 472 c 1,37,-1
 732 632 l 1,38,-1
 369 632 l 1,39,-1
 369 522 l 2,40,41
 369 422 369 422 323 369 c 128,-1,42
 277 316 277 316 200 310 c 1,43,-1
 200 249 l 2,44,45
 200 185 200 185 238.5 145.5 c 128,-1,46
 277 106 277 106 345 106 c 0,47,27
 428 106 428 106 469 170 c 1,28,29
705 252 m 128,-1,49
 732 284 732 284 732 327 c 256,50,51
 732 370 732 370 705.5 401.5 c 128,-1,52
 679 433 679 433 629 433 c 0,53,54
 583 433 583 433 552.5 404.5 c 128,-1,55
 522 376 522 376 522 328 c 0,56,57
 522 277 522 277 552.5 248.5 c 128,-1,58
 583 220 583 220 629 220 c 0,59,48
 678 220 678 220 705 252 c 128,-1,49
EndSplineSet
Ligature2: "'vatu' Vattu Variants in Devanagari lookup 9 subtable" dvKHA dvRashtrasign
Ligature2: "'rkrf' Rakar Forms in Devanagari2 lookup 4 subtable" dvKHA dvVirama dvRA
EndChar

StartChar: dvG_RA
Encoding: 65585 -1 151
Width: 788
Flags: W
AnchorPoint: "Anchor-1" 679 706 basechar 0
LayerCount: 2
Fore
SplineSet
809 740 m 1,0,-1
 809 632 l 1,1,-1
 698 632 l 1,2,-1
 698 0 l 1,3,-1
 572 0 l 1,4,-1
 572 209 l 1,5,-1
 344 -20 l 1,6,-1
 195 -20 l 1,7,-1
 569 340 l 1,8,-1
 569 632 l 1,9,-1
 424 632 l 1,10,-1
 424 453 l 2,11,12
 424 364 424 364 377 308.5 c 128,-1,13
 330 253 330 253 234 253 c 0,14,15
 141 253 141 253 90.5 304 c 128,-1,16
 40 355 40 355 40 446 c 0,17,18
 40 467 40 467 41 477 c 1,19,-1
 166 477 l 1,20,-1
 166 446 l 2,21,22
 166 410 166 410 181.5 387 c 128,-1,23
 197 364 197 364 231 364 c 0,24,25
 294 364 294 364 294 447 c 2,26,-1
 294 632 l 1,27,-1
 -21 632 l 1,28,-1
 -21 740 l 1,29,-1
 809 740 l 1,0,-1
EndSplineSet
Ligature2: "'vatu' Vattu Variants in Devanagari lookup 9 subtable" dvGA dvRashtrasign
Ligature2: "'rkrf' Rakar Forms in Devanagari2 lookup 4 subtable" dvGA dvVirama dvRA
EndChar

StartChar: dvGH_RA
Encoding: 65586 -1 152
Width: 703
Flags: W
AnchorPoint: "Anchor-1" 623 708 basechar 0
LayerCount: 2
Fore
SplineSet
724 632 m 1,0,-1
 614 632 l 1,1,-1
 614 0 l 1,2,-1
 484 0 l 1,3,-1
 484 192 l 1,4,-1
 473 178 l 1,5,-1
 474 178 l 1,6,-1
 270 -51 l 1,7,-1
 130 -51 l 1,8,-1
 280 105 l 1,9,10
 188 108 188 108 130 153.5 c 128,-1,11
 72 199 72 199 72 281 c 0,12,13
 72 339 72 339 106 378 c 128,-1,14
 140 417 140 417 189 428 c 1,15,-1
 189 431 l 1,16,17
 142 442 142 442 114 476.5 c 128,-1,18
 86 511 86 511 86 574 c 2,19,-1
 86 632 l 1,20,-1
 -21 632 l 1,21,-1
 -21 740 l 1,22,-1
 724 740 l 1,23,-1
 724 632 l 1,0,-1
484 632 m 1,24,-1
 215 632 l 1,25,-1
 215 583 l 2,26,27
 215 483 215 483 323 483 c 2,28,-1
 365 483 l 1,29,-1
 365 379 l 1,30,-1
 313 379 l 2,31,32
 258 379 258 379 230.5 355.5 c 128,-1,33
 203 332 203 332 203 294 c 0,34,35
 203 250 203 250 236 227 c 128,-1,36
 269 204 269 204 322 204 c 0,37,38
 367 204 367 204 404 223 c 128,-1,39
 441 242 441 242 462.5 277.5 c 128,-1,40
 484 313 484 313 484 358 c 2,41,-1
 484 632 l 1,24,-1
EndSplineSet
Ligature2: "'vatu' Vattu Variants in Devanagari lookup 9 subtable" dvGHA dvRashtrasign
Ligature2: "'rkrf' Rakar Forms in Devanagari2 lookup 4 subtable" dvGHA dvVirama dvRA
EndChar

StartChar: dvNG_RA
Encoding: 65587 -1 153
Width: 686
Flags: W
AnchorPoint: "Anchor-3" 377 -115 basechar 0
AnchorPoint: "Anchor-2" 386 -210 basechar 0
AnchorPoint: "Anchor-1" 456 711 basechar 0
AnchorPoint: "Anchor-0" 471 740 basechar 0
LayerCount: 2
Fore
SplineSet
707 740 m 1,0,-1
 707 632 l 1,1,-1
 471 632 l 1,2,-1
 471 449 l 1,3,-1
 289 449 l 2,4,5
 252 449 252 449 227 435.5 c 128,-1,6
 202 422 202 422 202 389 c 0,7,8
 202 358 202 358 224 343.5 c 128,-1,9
 246 329 246 329 280 329 c 2,10,-1
 325 329 l 2,11,12
 411 329 411 329 470.5 287.5 c 128,-1,13
 530 246 530 246 530 156 c 0,14,15
 530 100 530 100 501 59 c 128,-1,16
 472 18 472 18 417 -2 c 1,17,-1
 547 -152 l 1,18,-1
 414 -152 l 1,19,-1
 306 -22 l 1,20,-1
 198 -152 l 1,21,-1
 67 -152 l 1,22,-1
 196 -1 l 1,23,24
 133 21 133 21 97 66.5 c 128,-1,25
 61 112 61 112 58 175 c 1,26,-1
 187 175 l 1,27,28
 188 131 188 131 220.5 105.5 c 128,-1,29
 253 80 253 80 307 80 c 0,30,31
 355 80 355 80 381.5 101 c 128,-1,32
 408 122 408 122 408 157 c 0,33,34
 408 199 408 199 378.5 218.5 c 128,-1,35
 349 238 349 238 301 238 c 2,36,-1
 264 238 l 2,37,38
 187 238 187 238 130 272.5 c 128,-1,39
 73 307 73 307 73 393 c 0,40,41
 73 467 73 467 124.5 503.5 c 128,-1,42
 176 540 176 540 255 540 c 2,43,-1
 346 540 l 1,44,-1
 346 632 l 1,45,-1
 -21 632 l 1,46,-1
 -21 740 l 1,47,-1
 707 740 l 1,0,-1
651.5 428.5 m 128,-1,49
 672 408 672 408 672 378 c 0,50,51
 672 349 672 349 651.5 328.5 c 128,-1,52
 631 308 631 308 601 308 c 256,53,54
 571 308 571 308 550.5 328.5 c 128,-1,55
 530 349 530 349 530 378 c 0,56,57
 530 408 530 408 550.5 428.5 c 128,-1,58
 571 449 571 449 601 449 c 256,59,48
 631 449 631 449 651.5 428.5 c 128,-1,49
EndSplineSet
Ligature2: "'vatu' Vattu Variants in Devanagari lookup 9 subtable" dvNGA dvRashtrasign
Ligature2: "'rkrf' Rakar Forms in Devanagari2 lookup 4 subtable" dvNGA dvVirama dvRA
EndChar

StartChar: dvC_RA
Encoding: 65588 -1 154
Width: 746
Flags: W
AnchorPoint: "Anchor-1" 623 708 basechar 0
LayerCount: 2
Fore
SplineSet
767 632 m 1,0,-1
 656 632 l 1,1,-1
 656 0 l 1,2,-1
 527 0 l 1,3,-1
 527 180 l 1,4,5
 513 159 513 159 494 145 c 1,6,-1
 324 -46 l 1,7,-1
 184 -46 l 1,8,-1
 319 96 l 1,9,10
 239 104 239 104 188.5 153 c 128,-1,11
 138 202 138 202 138 283 c 0,12,13
 138 324 138 324 154 358.5 c 128,-1,14
 170 393 170 393 200 416 c 1,15,-1
 50 416 l 1,16,-1
 50 518 l 1,17,-1
 417 518 l 1,18,-1
 417 416 l 1,19,-1
 378 416 l 2,20,21
 325 416 325 416 292.5 385 c 128,-1,22
 260 354 260 354 260 305 c 0,23,24
 260 254 260 254 295.5 225 c 128,-1,25
 331 196 331 196 384 196 c 0,26,27
 449 197 449 197 488 243 c 128,-1,28
 527 289 527 289 527 361 c 2,29,-1
 527 632 l 1,30,-1
 -21 632 l 1,31,-1
 -21 740 l 1,32,-1
 767 740 l 1,33,-1
 767 632 l 1,0,-1
EndSplineSet
Ligature2: "'vatu' Vattu Variants in Devanagari lookup 9 subtable" dvCA dvRashtrasign
Ligature2: "'rkrf' Rakar Forms in Devanagari2 lookup 4 subtable" dvCA dvVirama dvRA
EndChar

StartChar: dvCH_RA
Encoding: 65589 -1 155
Width: 821
Flags: W
AnchorPoint: "Anchor-3" 472 -73 basechar 0
AnchorPoint: "Anchor-2" 480 -169 basechar 0
AnchorPoint: "Anchor-1" 623 708 basechar 0
AnchorPoint: "Anchor-0" 642 740 basechar 0
LayerCount: 2
Fore
SplineSet
642 632 m 1,0,-1
 642 535 l 1,1,2
 704 518 704 518 740.5 465.5 c 128,-1,3
 777 413 777 413 777 332 c 0,4,5
 777 218 777 218 712.5 141.5 c 128,-1,6
 648 65 648 65 530 37 c 1,7,-1
 659 -112 l 1,8,-1
 526 -112 l 1,9,-1
 418 18 l 1,10,-1
 310 -112 l 1,11,-1
 179 -112 l 1,12,-1
 300 30 l 1,13,14
 191 47 191 47 128.5 101.5 c 128,-1,15
 66 156 66 156 66 244 c 0,16,17
 66 306 66 306 98.5 346 c 128,-1,18
 131 386 131 386 187 402 c 1,19,-1
 187 405 l 1,20,21
 141 415 141 415 112.5 450 c 128,-1,22
 84 485 84 485 84 548 c 2,23,-1
 84 632 l 1,24,-1
 -21 632 l 1,25,-1
 -21 740 l 1,26,-1
 842 740 l 1,27,-1
 842 632 l 1,28,-1
 642 632 l 1,0,-1
523 632 m 1,29,-1
 213 632 l 1,30,-1
 213 553 l 2,31,32
 213 457 213 457 313 457 c 2,33,-1
 333 457 l 1,34,-1
 333 353 l 1,35,-1
 315 353 l 2,36,37
 257 353 257 353 227 326 c 128,-1,38
 197 299 197 299 197 256 c 0,39,40
 197 196 197 196 248.5 164.5 c 128,-1,41
 300 133 300 133 401 133 c 0,42,43
 524 133 524 133 594 186.5 c 128,-1,44
 664 240 664 240 664 337 c 0,45,46
 664 388 664 388 640.5 418 c 128,-1,47
 617 448 617 448 582 448 c 0,48,49
 549 448 549 448 526 424 c 128,-1,50
 503 400 503 400 503 355 c 0,51,52
 503 319 503 319 518 272 c 1,53,-1
 411 272 l 1,54,55
 395 315 395 315 395 369 c 0,56,57
 395 439 395 439 430 480.5 c 128,-1,58
 465 522 465 522 523 536 c 1,59,-1
 523 632 l 1,29,-1
EndSplineSet
Ligature2: "'vatu' Vattu Variants in Devanagari lookup 9 subtable" dvCHA dvRashtrasign
Ligature2: "'rkrf' Rakar Forms in Devanagari2 lookup 4 subtable" dvCHA dvVirama dvRA
EndChar

StartChar: dvJ_RA
Encoding: 65590 -1 156
Width: 852
Flags: W
AnchorPoint: "Anchor-1" 734 705 basechar 0
LayerCount: 2
Fore
SplineSet
873 632 m 1,0,-1
 762 632 l 1,1,-1
 762 0 l 1,2,-1
 642 0 l 1,3,-1
 642 192 l 1,4,-1
 428 -43 l 1,5,-1
 286 -43 l 1,6,-1
 639 323 l 1,7,-1
 639 392 l 1,8,-1
 484 392 l 1,9,10
 482 298 482 298 427 239.5 c 128,-1,11
 372 181 372 181 276 181 c 0,12,13
 173 181 173 181 116.5 240.5 c 128,-1,14
 60 300 60 300 60 397 c 2,15,-1
 60 496 l 1,16,-1
 191 496 l 1,17,-1
 191 400 l 2,18,19
 191 351 191 351 213.5 323 c 128,-1,20
 236 295 236 295 276 295 c 0,21,22
 317 295 317 295 340.5 323 c 128,-1,23
 364 351 364 351 364 400 c 2,24,-1
 364 496 l 1,25,-1
 639 496 l 1,26,-1
 639 632 l 1,27,-1
 -21 632 l 1,28,-1
 -21 740 l 1,29,-1
 873 740 l 1,30,-1
 873 632 l 1,0,-1
EndSplineSet
Ligature2: "'vatu' Vattu Variants in Devanagari lookup 9 subtable" dvJA dvRashtrasign
Ligature2: "'rkrf' Rakar Forms in Devanagari2 lookup 4 subtable" dvJA dvVirama dvRA
EndChar

StartChar: dvJH_RA
Encoding: 65591 -1 157
Width: 936
Flags: W
AnchorPoint: "Anchor-1" 845 704 basechar 0
LayerCount: 2
Fore
SplineSet
956 632 m 1,0,-1
 846 632 l 1,1,-1
 846 0 l 1,2,-1
 723 0 l 1,3,-1
 723 62 l 1,4,-1
 583 -111 l 1,5,-1
 453 -111 l 1,6,-1
 723 203 l 1,7,-1
 723 232 l 1,8,-1
 497 232 l 1,9,10
 524 195 524 195 524 140 c 0,11,12
 524 73 524 73 480 30.5 c 128,-1,13
 436 -12 436 -12 356 -12 c 0,14,15
 265 -12 265 -12 212 50 c 1,16,-1
 212 -81 l 1,17,-1
 90 -81 l 1,18,-1
 90 170 l 1,19,-1
 206 170 l 1,20,21
 210 132 210 132 239 107.5 c 128,-1,22
 268 83 268 83 317 83 c 0,23,24
 360 83 360 83 382.5 104 c 128,-1,25
 405 125 405 125 405 156 c 0,26,27
 405 195 405 195 377.5 216.5 c 128,-1,28
 350 238 350 238 297 238 c 2,29,-1
 238 238 l 2,30,31
 167 241 167 241 118 278 c 128,-1,32
 69 315 69 315 69 389 c 0,33,34
 69 467 69 467 121 504.5 c 128,-1,35
 173 542 173 542 252 542 c 2,36,-1
 343 542 l 1,37,-1
 343 632 l 1,38,-1
 -21 632 l 1,39,-1
 -21 740 l 1,40,-1
 956 740 l 1,41,-1
 956 632 l 1,0,-1
321 329 m 1,42,-1
 719 329 l 1,43,-1
 719 632 l 1,44,-1
 467 632 l 1,45,-1
 467 449 l 1,46,-1
 286 449 l 2,47,48
 249 449 249 449 223.5 435 c 128,-1,49
 198 421 198 421 198 388 c 0,50,51
 198 358 198 358 219.5 343.5 c 128,-1,52
 241 329 241 329 277 329 c 2,53,-1
 321 329 l 1,42,-1
EndSplineSet
Ligature2: "'vatu' Vattu Variants in Devanagari lookup 9 subtable" dvJHA dvRashtrasign
Ligature2: "'rkrf' Rakar Forms in Devanagari2 lookup 4 subtable" dvJHA dvVirama dvRA
EndChar

StartChar: dvNY_RA
Encoding: 65592 -1 158
Width: 825
Flags: W
AnchorPoint: "Anchor-1" 734 705 basechar 0
LayerCount: 2
Fore
SplineSet
891 632 m 1,0,-1
 780 632 l 1,1,-1
 780 0 l 1,2,-1
 654 0 l 1,3,-1
 654 100 l 1,4,-1
 489 -85 l 1,5,-1
 358 -85 l 1,6,-1
 654 231 l 1,7,-1
 654 276 l 1,8,-1
 517 276 l 1,9,10
 506 189 506 189 445 137.5 c 128,-1,11
 384 86 384 86 288 86 c 0,12,13
 223 86 223 86 172.5 110 c 128,-1,14
 122 134 122 134 92.5 176.5 c 128,-1,15
 63 219 63 219 59 273 c 1,16,-1
 181 273 l 1,17,18
 188 240 188 240 217.5 217.5 c 128,-1,19
 247 195 247 195 289 195 c 0,20,21
 344 195 344 195 374 229.5 c 128,-1,22
 404 264 404 264 404 316 c 0,23,24
 404 366 404 366 374 400 c 128,-1,25
 344 434 344 434 289 434 c 0,26,27
 247 434 247 434 218.5 411.5 c 128,-1,28
 190 389 190 389 181 356 c 1,29,-1
 59 356 l 1,30,31
 67 440 67 440 128.5 492 c 128,-1,32
 190 544 190 544 288 544 c 0,33,34
 375 544 375 544 433.5 501 c 128,-1,35
 492 458 492 458 511 385 c 1,36,-1
 651 385 l 1,37,-1
 651 632 l 1,38,-1
 -21 632 l 1,39,-1
 -21 740 l 1,40,-1
 891 740 l 1,41,-1
 891 632 l 1,0,-1
EndSplineSet
Ligature2: "'vatu' Vattu Variants in Devanagari lookup 9 subtable" dvNYA dvRashtrasign
Ligature2: "'rkrf' Rakar Forms in Devanagari2 lookup 4 subtable" dvNYA dvVirama dvRA
EndChar

StartChar: dvTT_RA
Encoding: 65593 -1 159
Width: 648
Flags: W
AnchorPoint: "Anchor-3" 407 -60 basechar 0
AnchorPoint: "Anchor-2" 415 -156 basechar 0
AnchorPoint: "Anchor-1" 456 711 basechar 0
AnchorPoint: "Anchor-0" 479 740 basechar 0
LayerCount: 2
Fore
SplineSet
236 393.5 m 128,-1,1
 189 355 189 355 189 283 c 0,2,3
 189 220 189 220 230.5 180 c 128,-1,4
 272 140 272 140 338 140 c 0,5,6
 406 140 406 140 447.5 182 c 128,-1,7
 489 224 489 224 489 290 c 1,8,-1
 612 290 l 1,9,10
 612 203 612 203 570 139 c 128,-1,11
 528 75 528 75 453 47 c 1,12,-1
 579 -98 l 1,13,-1
 446 -98 l 1,14,-1
 342 28 l 1,15,-1
 340 28 l 1,16,-1
 334 28 l 1,17,-1
 230 -98 l 1,18,-1
 99 -98 l 1,19,-1
 223 48 l 1,20,21
 147 75 147 75 103 137 c 128,-1,22
 59 199 59 199 59 283 c 0,23,24
 59 363 59 363 94.5 421 c 128,-1,25
 130 479 130 479 195.5 510 c 128,-1,26
 261 541 261 541 349 541 c 2,27,-1
 354 541 l 1,28,-1
 354 632 l 1,29,-1
 -21 632 l 1,30,-1
 -21 740 l 1,31,-1
 668 740 l 1,32,-1
 668 632 l 1,33,-1
 480 632 l 1,34,-1
 480 432 l 1,35,-1
 357 432 l 2,36,0
 283 432 283 432 236 393.5 c 128,-1,1
EndSplineSet
Ligature2: "'vatu' Vattu Variants in Devanagari lookup 9 subtable" dvTTA dvRashtrasign
Ligature2: "'rkrf' Rakar Forms in Devanagari2 lookup 4 subtable" dvTTA dvVirama dvRA
EndChar

StartChar: dvTTH_RA
Encoding: 65594 -1 160
Width: 675
Flags: W
AnchorPoint: "Anchor-3" 402 -65 basechar 0
AnchorPoint: "Anchor-2" 410 -160 basechar 0
AnchorPoint: "Anchor-1" 456 711 basechar 0
AnchorPoint: "Anchor-0" 402 740 basechar 0
LayerCount: 2
Fore
SplineSet
399 632 m 1,0,-1
 399 538 l 1,1,2
 493 521 493 521 553.5 456 c 128,-1,3
 614 391 614 391 614 290 c 0,4,5
 614 204 614 204 568.5 142.5 c 128,-1,6
 523 81 523 81 446 54 c 1,7,-1
 580 -101 l 1,8,-1
 447 -101 l 1,9,-1
 339 29 l 1,10,-1
 231 -101 l 1,11,-1
 100 -101 l 1,12,-1
 231 52 l 1,13,14
 152 78 152 78 105.5 140.5 c 128,-1,15
 59 203 59 203 59 290 c 0,16,17
 59 391 59 391 118.5 455.5 c 128,-1,18
 178 520 178 520 271 538 c 1,19,-1
 271 632 l 1,20,-1
 -21 632 l 1,21,-1
 -21 740 l 1,22,-1
 693 740 l 1,23,-1
 693 632 l 1,24,-1
 399 632 l 1,0,-1
444.5 394.5 m 128,-1,26
 403 435 403 435 336 435 c 0,27,28
 271 435 271 435 229.5 394.5 c 128,-1,29
 188 354 188 354 188 290 c 256,30,31
 188 226 188 226 229.5 185 c 128,-1,32
 271 144 271 144 336 144 c 0,33,34
 403 144 403 144 444.5 185 c 128,-1,35
 486 226 486 226 486 290 c 256,36,25
 486 354 486 354 444.5 394.5 c 128,-1,26
EndSplineSet
Ligature2: "'vatu' Vattu Variants in Devanagari lookup 9 subtable" dvTTHA dvRashtrasign
Ligature2: "'rkrf' Rakar Forms in Devanagari2 lookup 4 subtable" dvTTHA dvVirama dvRA
EndChar

StartChar: dvDD_RA
Encoding: 65595 -1 161
Width: 569
Flags: W
AnchorPoint: "Anchor-3" 377 -114 basechar 0
AnchorPoint: "Anchor-2" 385 -210 basechar 0
AnchorPoint: "Anchor-1" 456 711 basechar 0
AnchorPoint: "Anchor-0" 467 740 basechar 0
LayerCount: 2
Fore
SplineSet
227 435.5 m 128,-1,1
 202 422 202 422 202 389 c 0,2,3
 202 358 202 358 224 343.5 c 128,-1,4
 246 329 246 329 280 329 c 2,5,-1
 325 329 l 2,6,7
 411 329 411 329 470.5 287.5 c 128,-1,8
 530 246 530 246 530 156 c 0,9,10
 530 99 530 99 500 57.5 c 128,-1,11
 470 16 470 16 413 -3 c 1,12,-1
 542 -152 l 1,13,-1
 409 -152 l 1,14,-1
 301 -22 l 1,15,-1
 193 -152 l 1,16,-1
 62 -152 l 1,17,-1
 193 1 l 1,18,19
 131 23 131 23 96 67.5 c 128,-1,20
 61 112 61 112 58 175 c 1,21,-1
 187 175 l 1,22,23
 188 131 188 131 220.5 105.5 c 128,-1,24
 253 80 253 80 307 80 c 0,25,26
 355 80 355 80 381.5 101 c 128,-1,27
 408 122 408 122 408 157 c 0,28,29
 408 199 408 199 378.5 218.5 c 128,-1,30
 349 238 349 238 301 238 c 2,31,-1
 264 238 l 2,32,33
 187 238 187 238 130 272.5 c 128,-1,34
 73 307 73 307 73 393 c 0,35,36
 73 467 73 467 124.5 503.5 c 128,-1,37
 176 540 176 540 255 540 c 2,38,-1
 343 540 l 1,39,-1
 343 632 l 1,40,-1
 -21 632 l 1,41,-1
 -21 740 l 1,42,-1
 589 740 l 1,43,-1
 589 632 l 1,44,-1
 467 632 l 1,45,-1
 467 449 l 1,46,-1
 289 449 l 2,47,0
 252 449 252 449 227 435.5 c 128,-1,1
EndSplineSet
Ligature2: "'vatu' Vattu Variants in Devanagari lookup 9 subtable" dvDDA dvRashtrasign
Ligature2: "'rkrf' Rakar Forms in Devanagari2 lookup 4 subtable" dvDDA dvVirama dvRA
EndChar

StartChar: dvDDH_RA
Encoding: 65596 -1 162
Width: 650
Flags: W
AnchorPoint: "Anchor-3" 437 -99 basechar 0
AnchorPoint: "Anchor-2" 445 -195 basechar 0
AnchorPoint: "Anchor-1" 456 711 basechar 0
AnchorPoint: "Anchor-0" 497 740 basechar 0
LayerCount: 2
Fore
SplineSet
242 410 m 128,-1,1
 184 362 184 362 184 272 c 0,2,3
 184 192 184 192 235 141.5 c 128,-1,4
 286 91 286 91 376 91 c 0,5,6
 438 91 438 91 478.5 120 c 128,-1,7
 519 149 519 149 519 198 c 0,8,9
 519 230 519 230 498.5 251 c 128,-1,10
 478 272 478 272 447 272 c 0,11,12
 419 272 419 272 400 254.5 c 128,-1,13
 381 237 381 237 381 209 c 0,14,15
 381 199 381 199 384 191 c 1,16,-1
 291 191 l 1,17,18
 287 215 287 215 287 227 c 0,19,20
 287 292 287 292 333 328.5 c 128,-1,21
 379 365 379 365 452 365 c 0,22,23
 534 365 534 365 581.5 319 c 128,-1,24
 629 273 629 273 629 198 c 0,25,26
 629 125 629 125 586.5 75.5 c 128,-1,27
 544 26 544 26 466 8 c 1,28,-1
 591 -137 l 1,29,-1
 458 -137 l 1,30,-1
 350 -7 l 1,31,-1
 242 -137 l 1,32,-1
 111 -137 l 1,33,-1
 244 19 l 1,34,35
 159 48 159 48 109 115 c 128,-1,36
 59 182 59 182 59 276 c 0,37,38
 59 363 59 363 97 424 c 128,-1,39
 135 485 135 485 201 516 c 128,-1,40
 267 547 267 547 351 547 c 2,41,-1
 378 547 l 1,42,-1
 378 632 l 1,43,-1
 -21 632 l 1,44,-1
 -21 740 l 1,45,-1
 670 740 l 1,46,-1
 670 632 l 1,47,-1
 500 632 l 1,48,-1
 500 458 l 1,49,-1
 392 458 l 2,50,0
 300 458 300 458 242 410 c 128,-1,1
EndSplineSet
Ligature2: "'vatu' Vattu Variants in Devanagari lookup 9 subtable" dvDDHA dvRashtrasign
Ligature2: "'rkrf' Rakar Forms in Devanagari2 lookup 4 subtable" dvDDHA dvVirama dvRA
EndChar

StartChar: dvNN_RA
Encoding: 65597 -1 163
Width: 878
Flags: W
AnchorPoint: "Anchor-1" 790 704 basechar 0
LayerCount: 2
Fore
SplineSet
898 632 m 1,0,-1
 787 632 l 1,1,-1
 787 0 l 1,2,-1
 666 0 l 1,3,-1
 666 211 l 1,4,-1
 435 -41 l 1,5,-1
 288 -41 l 1,6,-1
 661 349 l 1,7,-1
 661 632 l 1,8,-1
 504 632 l 1,9,-1
 504 452 l 2,10,11
 504 357 504 357 449.5 298 c 128,-1,12
 395 239 395 239 294 239 c 0,13,14
 194 239 194 239 139.5 299 c 128,-1,15
 85 359 85 359 85 452 c 2,16,-1
 85 632 l 1,17,-1
 -21 632 l 1,18,-1
 -21 740 l 1,19,-1
 898 740 l 1,20,-1
 898 632 l 1,0,-1
377 632 m 1,21,-1
 211 632 l 1,22,-1
 211 441 l 2,23,24
 211 400 211 400 234 374 c 128,-1,25
 257 348 257 348 295 348 c 0,26,27
 334 348 334 348 355.5 373.5 c 128,-1,28
 377 399 377 399 377 441 c 2,29,-1
 377 632 l 1,21,-1
EndSplineSet
Ligature2: "'vatu' Vattu Variants in Devanagari lookup 9 subtable" dvNNA dvRashtrasign
Ligature2: "'rkrf' Rakar Forms in Devanagari2 lookup 4 subtable" dvNNA dvVirama dvRA
EndChar

StartChar: dvT_RA
Encoding: 65598 -1 164
Width: 704
Flags: W
AnchorPoint: "Anchor-1" 623 708 basechar 0
LayerCount: 2
Fore
SplineSet
725 632 m 1,0,-1
 614 632 l 1,1,-1
 614 0 l 1,2,-1
 490 0 l 1,3,-1
 490 215 l 1,4,-1
 272 0 l 1,5,-1
 104 0 l 1,6,-1
 104 6 l 1,7,-1
 481 347 l 1,8,9
 460 380 460 380 423 400.5 c 128,-1,10
 386 421 386 421 341 421 c 0,11,12
 275 421 275 421 232.5 382 c 128,-1,13
 190 343 190 343 190 273 c 1,14,-1
 61 273 l 1,15,16
 60 348 60 348 90 404.5 c 128,-1,17
 120 461 120 461 176.5 492 c 128,-1,18
 233 523 233 523 308 523 c 0,19,20
 367 523 367 523 412 501 c 128,-1,21
 457 479 457 479 487 444 c 1,22,-1
 487 632 l 1,23,-1
 -21 632 l 1,24,-1
 -21 740 l 1,25,-1
 725 740 l 1,26,-1
 725 632 l 1,0,-1
EndSplineSet
Ligature2: "'vatu' Vattu Variants in Devanagari lookup 9 subtable" dvTA dvRashtrasign
Ligature2: "'rkrf' Rakar Forms in Devanagari2 lookup 4 subtable" dvTA dvVirama dvRA
EndChar

StartChar: dvTH_RA
Encoding: 65599 -1 165
Width: 783
Flags: W
AnchorPoint: "Anchor-1" 679 706 basechar 0
LayerCount: 2
Fore
SplineSet
804 740 m 1,0,-1
 804 632 l 1,1,-1
 693 632 l 1,2,-1
 693 0 l 1,3,-1
 564 0 l 1,4,-1
 564 204 l 1,5,6
 547 171 547 171 518 148 c 1,7,-1
 521 148 l 1,8,-1
 268 -70 l 1,9,-1
 109 -70 l 1,10,-1
 109 -63 l 1,11,-1
 301 94 l 1,12,13
 191 107 191 107 127.5 180 c 128,-1,14
 64 253 64 253 64 369 c 0,15,16
 64 406 64 406 69 433 c 1,17,-1
 160 433 l 2,18,19
 248 433 248 433 300.5 460.5 c 128,-1,20
 353 488 353 488 353 556 c 0,21,22
 353 592 353 592 332 615.5 c 128,-1,23
 311 639 311 639 275 639 c 0,24,25
 237 639 237 639 215 615.5 c 128,-1,26
 193 592 193 592 193 552 c 0,27,28
 193 538 193 538 197 514 c 1,29,-1
 80 514 l 1,30,31
 76 540 76 540 76 555 c 0,32,33
 76 616 76 616 102.5 660 c 128,-1,34
 129 704 129 704 174.5 726.5 c 128,-1,35
 220 749 220 749 276 749 c 0,36,37
 334 749 334 749 379 724.5 c 128,-1,38
 424 700 424 700 449 655 c 128,-1,39
 474 610 474 610 474 552 c 0,40,41
 474 452 474 452 404.5 396 c 128,-1,42
 335 340 335 340 210 340 c 2,43,-1
 189 340 l 1,44,45
 192 276 192 276 235.5 236 c 128,-1,46
 279 196 279 196 362 196 c 0,47,48
 418 196 418 196 464 220 c 128,-1,49
 510 244 510 244 537 291 c 128,-1,50
 564 338 564 338 564 403 c 2,51,-1
 564 740 l 1,52,-1
 804 740 l 1,0,-1
EndSplineSet
Ligature2: "'vatu' Vattu Variants in Devanagari lookup 9 subtable" dvTHA dvRashtrasign
Ligature2: "'rkrf' Rakar Forms in Devanagari2 lookup 4 subtable" dvTHA dvVirama dvRA
EndChar

StartChar: dvD_RA
Encoding: 65600 -1 166
Width: 610
Flags: W
AnchorPoint: "Anchor-3" 541 -27 basechar 0
AnchorPoint: "Anchor-2" 541 -50 basechar 0
AnchorPoint: "Anchor-1" 511 710 basechar 0
AnchorPoint: "Anchor-0" 506 740 basechar 0
LayerCount: 2
Fore
SplineSet
232 396 m 128,-1,1
 191 362 191 362 191 301 c 0,2,3
 191 246 191 246 224 213.5 c 128,-1,4
 257 181 257 181 312 181 c 0,5,6
 357 181 357 181 389.5 209 c 128,-1,7
 422 237 422 237 422 289 c 1,8,-1
 541 289 l 1,9,-1
 541 -27 l 1,10,-1
 415 -27 l 1,11,-1
 415 140 l 1,12,-1
 400 124 l 1,13,-1
 401 124 l 1,14,-1
 226 -67 l 1,15,-1
 86 -67 l 1,16,-1
 233 86 l 1,17,18
 155 99 155 99 107 156 c 128,-1,19
 59 213 59 213 59 305 c 0,20,21
 59 380 59 380 93.5 433.5 c 128,-1,22
 128 487 128 487 188.5 514 c 128,-1,23
 249 541 249 541 326 541 c 2,24,-1
 376 541 l 1,25,-1
 376 632 l 1,26,-1
 -21 632 l 1,27,-1
 -21 740 l 1,28,-1
 631 740 l 1,29,-1
 631 632 l 1,30,-1
 506 632 l 1,31,-1
 506 430 l 1,32,-1
 339 430 l 2,33,0
 273 430 273 430 232 396 c 128,-1,1
EndSplineSet
Ligature2: "'vatu' Vattu Variants in Devanagari lookup 9 subtable" dvDA dvRashtrasign
Ligature2: "'rkrf' Rakar Forms in Devanagari2 lookup 4 subtable" dvDA dvVirama dvRA
EndChar

StartChar: dvDH_RA
Encoding: 65601 -1 167
Width: 724
Flags: W
AnchorPoint: "Anchor-1" 623 708 basechar 0
LayerCount: 2
Fore
SplineSet
751 632 m 1,0,-1
 642 632 l 1,1,-1
 642 0 l 1,2,-1
 513 0 l 1,3,-1
 513 186 l 1,4,5
 503 171 503 171 492 160 c 2,6,-1
 289 -68 l 1,7,-1
 148 -68 l 1,8,-1
 299 88 l 1,9,10
 203 88 203 88 140.5 134 c 128,-1,11
 78 180 78 180 78 264 c 0,12,13
 78 324 78 324 113 361.5 c 128,-1,14
 148 399 148 399 195 408 c 1,15,-1
 195 412 l 1,16,17
 142 426 142 426 106 468 c 128,-1,18
 70 510 70 510 70 577 c 0,19,20
 70 654 70 654 120.5 701.5 c 128,-1,21
 171 749 171 749 251 749 c 0,22,23
 333 749 333 749 379.5 703.5 c 128,-1,24
 426 658 426 658 426 584 c 0,25,26
 426 568 426 568 424 546 c 1,27,-1
 328 546 l 1,28,-1
 329 568 l 2,29,30
 329 600 329 600 309 620.5 c 128,-1,31
 289 641 289 641 255 641 c 256,32,33
 221 641 221 641 200.5 619 c 128,-1,34
 180 597 180 597 180 563 c 0,35,36
 180 515 180 515 218.5 489.5 c 128,-1,37
 257 464 257 464 316 464 c 2,38,-1
 375 464 l 1,39,-1
 375 360 l 1,40,-1
 322 360 l 2,41,42
 268 360 268 360 238.5 338 c 128,-1,43
 209 316 209 316 209 278 c 0,44,45
 209 236 209 236 242.5 214 c 128,-1,46
 276 192 276 192 332 192 c 0,47,48
 413 192 413 192 463 243 c 128,-1,49
 513 294 513 294 513 377 c 2,50,-1
 513 740 l 1,51,-1
 751 740 l 1,52,-1
 751 632 l 1,0,-1
EndSplineSet
Ligature2: "'vatu' Vattu Variants in Devanagari lookup 9 subtable" dvDHA dvRashtrasign
Ligature2: "'rkrf' Rakar Forms in Devanagari2 lookup 4 subtable" dvDHA dvVirama dvRA
EndChar

StartChar: dvN_RA
Encoding: 65602 -1 168
Width: 850
Flags: W
AnchorPoint: "Anchor-1" 734 705 basechar 0
LayerCount: 2
Fore
SplineSet
870 632 m 1,0,-1
 760 632 l 1,1,-1
 760 0 l 1,2,-1
 643 0 l 1,3,-1
 643 146 l 1,4,-1
 442 -83 l 1,5,-1
 301 -83 l 1,6,-1
 636 271 l 1,7,-1
 636 391 l 1,8,-1
 440 391 l 1,9,10
 475 343 475 343 475 276 c 0,11,12
 475 221 475 221 448.5 178 c 128,-1,13
 422 135 422 135 375.5 111 c 128,-1,14
 329 87 329 87 271 87 c 0,15,16
 211 87 211 87 162 112 c 128,-1,17
 113 137 113 137 84 183.5 c 128,-1,18
 55 230 55 230 55 293 c 0,19,20
 55 359 55 359 85 405.5 c 128,-1,21
 115 452 115 452 166.5 475.5 c 128,-1,22
 218 499 218 499 282 499 c 2,23,-1
 636 499 l 1,24,-1
 636 632 l 1,25,-1
 -21 632 l 1,26,-1
 -21 740 l 1,27,-1
 870 740 l 1,28,-1
 870 632 l 1,0,-1
344 223.5 m 128,-1,30
 372 251 372 251 372 294 c 0,31,32
 372 336 372 336 344 363.5 c 128,-1,33
 316 391 316 391 273 391 c 0,34,35
 228 391 228 391 199.5 363.5 c 128,-1,36
 171 336 171 336 171 293 c 256,37,38
 171 250 171 250 199.5 223 c 128,-1,39
 228 196 228 196 273 196 c 0,40,29
 316 196 316 196 344 223.5 c 128,-1,30
EndSplineSet
Ligature2: "'vatu' Vattu Variants in Devanagari lookup 9 subtable" dvNA dvRashtrasign
Ligature2: "'rkrf' Rakar Forms in Devanagari2 lookup 4 subtable" dvNA dvVirama dvRA
EndChar

StartChar: dvP_RA
Encoding: 65603 -1 169
Width: 668
Flags: W
AnchorPoint: "Anchor-1" 568 709 basechar 0
LayerCount: 2
Fore
SplineSet
689 632 m 1,0,-1
 578 632 l 1,1,-1
 578 0 l 1,2,-1
 450 0 l 1,3,-1
 450 246 l 1,4,-1
 439 233 l 1,5,-1
 219 -21 l 1,6,-1
 79 -21 l 1,7,-1
 267 181 l 1,8,9
 173 190 173 190 123.5 256.5 c 128,-1,10
 74 323 74 323 74 428 c 2,11,-1
 74 632 l 1,12,-1
 -21 632 l 1,13,-1
 -21 740 l 1,14,-1
 689 740 l 1,15,-1
 689 632 l 1,0,-1
450 632 m 1,16,-1
 204 632 l 1,17,-1
 204 428 l 2,18,19
 204 360 204 360 234.5 321.5 c 128,-1,20
 265 283 265 283 327 283 c 0,21,22
 385 283 385 283 417.5 320.5 c 128,-1,23
 450 358 450 358 450 414 c 2,24,-1
 450 632 l 1,16,-1
EndSplineSet
Ligature2: "'vatu' Vattu Variants in Devanagari lookup 9 subtable" dvPA dvRashtrasign
Ligature2: "'rkrf' Rakar Forms in Devanagari2 lookup 4 subtable" dvPA dvVirama dvRA
EndChar

StartChar: dvPH_RA
Encoding: 65604 -1 170
Width: 985
Flags: W
AnchorPoint: "Anchor-3" 561 0 basechar 0
AnchorPoint: "Anchor-2" 561 0 basechar 0
AnchorPoint: "Anchor-1" 568 709 basechar 0
AnchorPoint: "Anchor-0" 561 740 basechar 0
LayerCount: 2
Fore
SplineSet
561 632 m 1,0,-1
 561 460 l 1,1,2
 585 498 585 498 626 520 c 128,-1,3
 667 542 667 542 723 542 c 0,4,5
 784 542 784 542 830 512.5 c 128,-1,6
 876 483 876 483 901.5 432 c 128,-1,7
 927 381 927 381 927 317 c 0,8,9
 927 245 927 245 900.5 192.5 c 128,-1,10
 874 140 874 140 826.5 112.5 c 128,-1,11
 779 85 779 85 719 85 c 0,12,13
 681 85 681 85 649 94 c 1,14,-1
 649 194 l 1,15,16
 667 189 667 189 686 189 c 0,17,18
 735 189 735 189 765.5 222 c 128,-1,19
 796 255 796 255 796 310 c 0,20,21
 796 363 796 363 764 397 c 128,-1,22
 732 431 732 431 682 431 c 0,23,24
 622 431 622 431 591.5 390 c 128,-1,25
 561 349 561 349 561 287 c 2,26,-1
 561 0 l 1,27,-1
 432 0 l 1,28,-1
 432 243 l 1,29,30
 422 231 422 231 416 226 c 2,31,-1
 211 -21 l 1,32,-1
 71 -21 l 1,33,-1
 253 182 l 1,34,35
 166 192 166 192 120 256.5 c 128,-1,36
 74 321 74 321 74 422 c 2,37,-1
 74 632 l 1,38,-1
 -21 632 l 1,39,-1
 -21 740 l 1,40,-1
 1006 740 l 1,41,-1
 1006 632 l 1,42,-1
 561 632 l 1,0,-1
432 632 m 1,43,-1
 204 632 l 1,44,-1
 204 422 l 2,45,46
 204 357 204 357 232.5 320 c 128,-1,47
 261 283 261 283 318 283 c 0,48,49
 372 283 372 283 402 318.5 c 128,-1,50
 432 354 432 354 432 408 c 2,51,-1
 432 632 l 1,43,-1
EndSplineSet
Ligature2: "'vatu' Vattu Variants in Devanagari lookup 9 subtable" dvPHA dvRashtrasign
Ligature2: "'rkrf' Rakar Forms in Devanagari2 lookup 4 subtable" dvPHA dvVirama dvRA
EndChar

StartChar: dvB_RA
Encoding: 65605 -1 171
Width: 688
Flags: W
AnchorPoint: "Anchor-1" 568 709 basechar 0
LayerCount: 2
Fore
SplineSet
708 740 m 1,0,-1
 708 632 l 1,1,-1
 599 632 l 1,2,-1
 599 0 l 1,3,-1
 474 0 l 1,4,-1
 474 152 l 1,5,6
 459 134 459 134 458 133 c 2,7,-1
 283 -59 l 1,8,-1
 146 -59 l 1,9,-1
 282 79 l 1,10,11
 218 84 218 84 167.5 114 c 128,-1,12
 117 144 117 144 88 195.5 c 128,-1,13
 59 247 59 247 59 314 c 0,14,15
 59 384 59 384 90.5 438 c 128,-1,16
 122 492 122 492 177 522 c 128,-1,17
 232 552 232 552 301 552 c 0,18,19
 358 552 358 552 401.5 531 c 128,-1,20
 445 510 445 510 474 474 c 1,21,-1
 474 632 l 1,22,-1
 -21 632 l 1,23,-1
 -21 740 l 1,24,-1
 708 740 l 1,0,-1
227 433 m 1,26,-1
 464 242 l 1,27,28
 481 278 481 278 481 315 c 0,29,30
 481 355 481 355 463 390 c 128,-1,31
 445 425 445 425 410.5 446 c 128,-1,32
 376 467 376 467 328 467 c 0,33,25
 269 467 269 467 227 433 c 1,26,-1
193 234 m 128,-1,35
 214 200 214 200 250 182 c 128,-1,36
 286 164 286 164 328 164 c 0,37,38
 388 164 388 164 430 199 c 1,39,-1
 191 390 l 1,40,41
 172 355 172 355 172 314 c 0,42,34
 172 268 172 268 193 234 c 128,-1,35
EndSplineSet
Ligature2: "'vatu' Vattu Variants in Devanagari lookup 9 subtable" dvBA dvRashtrasign
Ligature2: "'rkrf' Rakar Forms in Devanagari2 lookup 4 subtable" dvBA dvVirama dvRA
EndChar

StartChar: dvBH_RA
Encoding: 65606 -1 172
Width: 831
Flags: W
AnchorPoint: "Anchor-1" 734 705 basechar 0
LayerCount: 2
Fore
SplineSet
872 740 m 1,0,-1
 872 632 l 1,1,-1
 760 632 l 1,2,-1
 760 0 l 1,3,-1
 643 0 l 1,4,-1
 643 148 l 1,5,-1
 413 -83 l 1,6,-1
 271 -83 l 1,7,-1
 637 264 l 1,8,-1
 637 362 l 1,9,-1
 469 362 l 1,10,-1
 469 316 l 2,11,12
 469 216 469 216 416.5 156.5 c 128,-1,13
 364 97 364 97 269 97 c 0,14,15
 177 97 177 97 120 147.5 c 128,-1,16
 63 198 63 198 63 281 c 0,17,18
 63 370 63 370 123 417.5 c 128,-1,19
 183 465 183 465 277 465 c 2,20,-1
 353 465 l 1,21,-1
 353 543 l 2,22,23
 353 639 353 639 280 639 c 0,24,25
 249 639 249 639 230 617.5 c 128,-1,26
 211 596 211 596 211 560 c 0,27,28
 211 547 211 547 214 527 c 1,29,-1
 88 527 l 1,30,31
 84 553 84 553 84 567 c 0,32,33
 84 648 84 648 134.5 698.5 c 128,-1,34
 185 749 185 749 278 749 c 0,35,36
 378 749 378 749 423.5 687 c 128,-1,37
 469 625 469 625 469 520 c 2,38,-1
 469 465 l 1,39,-1
 637 465 l 1,40,-1
 637 740 l 1,41,-1
 872 740 l 1,0,-1
353 362 m 1,42,-1
 278 362 l 2,43,44
 236 362 236 362 209 340 c 128,-1,45
 182 318 182 318 182 281 c 0,46,47
 182 246 182 246 206 225 c 128,-1,48
 230 204 230 204 268 204 c 0,49,50
 310 204 310 204 331.5 231.5 c 128,-1,51
 353 259 353 259 353 308 c 2,52,-1
 353 362 l 1,42,-1
EndSplineSet
Ligature2: "'vatu' Vattu Variants in Devanagari lookup 9 subtable" dvBHA dvRashtrasign
Ligature2: "'rkrf' Rakar Forms in Devanagari2 lookup 4 subtable" dvBHA dvVirama dvRA
EndChar

StartChar: dvM_RA
Encoding: 65607 -1 173
Width: 822
Flags: W
AnchorPoint: "Anchor-1" 734 705 basechar 0
LayerCount: 2
Fore
SplineSet
842 632 m 1,0,-1
 731 632 l 1,1,-1
 731 0 l 1,2,-1
 614 0 l 1,3,-1
 614 149 l 1,4,-1
 383 -83 l 1,5,-1
 241 -83 l 1,6,-1
 608 265 l 1,7,-1
 608 375 l 1,8,-1
 450 375 l 1,9,-1
 450 319 l 2,10,11
 450 219 450 219 397.5 160.5 c 128,-1,12
 345 102 345 102 249 102 c 0,13,14
 188 102 188 102 141.5 125.5 c 128,-1,15
 95 149 95 149 69 191.5 c 128,-1,16
 43 234 43 234 43 289 c 0,17,18
 43 380 43 380 102.5 429 c 128,-1,19
 162 478 162 478 256 478 c 2,20,-1
 333 478 l 1,21,-1
 333 632 l 1,22,-1
 -21 632 l 1,23,-1
 -21 740 l 1,24,-1
 842 740 l 1,25,-1
 842 632 l 1,0,-1
608 632 m 1,26,-1
 450 632 l 1,27,-1
 450 478 l 1,28,-1
 608 478 l 1,29,-1
 608 632 l 1,26,-1
333 375 m 1,30,-1
 257 375 l 2,31,32
 215 375 215 375 188.5 352 c 128,-1,33
 162 329 162 329 162 290 c 0,34,35
 162 253 162 253 186 230.5 c 128,-1,36
 210 208 210 208 247 208 c 0,37,38
 289 208 289 208 311 236 c 128,-1,39
 333 264 333 264 333 313 c 2,40,-1
 333 375 l 1,30,-1
EndSplineSet
Ligature2: "'vatu' Vattu Variants in Devanagari lookup 9 subtable" dvMA dvRashtrasign
Ligature2: "'rkrf' Rakar Forms in Devanagari2 lookup 4 subtable" dvMA dvVirama dvRA
EndChar

StartChar: dvY_RA
Encoding: 65608 -1 174
Width: 749
Flags: W
AnchorPoint: "Anchor-1" 623 708 basechar 0
LayerCount: 2
Fore
SplineSet
770 632 m 1,0,-1
 659 632 l 1,1,-1
 659 0 l 1,2,-1
 530 0 l 1,3,-1
 530 181 l 1,4,-1
 508 157 l 1,5,-1
 510 157 l 1,6,-1
 257 -62 l 1,7,-1
 100 -62 l 1,8,-1
 100 -55 l 1,9,-1
 287 98 l 1,10,11
 179 111 179 111 119.5 184.5 c 128,-1,12
 60 258 60 258 60 375 c 0,13,14
 60 393 60 393 64 431 c 1,15,-1
 76 431 l 2,16,17
 160 431 160 431 197.5 467 c 128,-1,18
 235 503 235 503 235 578 c 2,19,-1
 235 632 l 1,20,-1
 -21 632 l 1,21,-1
 -21 740 l 1,22,-1
 770 740 l 1,23,-1
 770 632 l 1,0,-1
530 632 m 1,24,-1
 363 632 l 1,25,-1
 363 555 l 2,26,27
 363 468 363 468 319.5 418.5 c 128,-1,28
 276 369 276 369 188 362 c 1,29,30
 188 289 188 289 232.5 245 c 128,-1,31
 277 201 277 201 356 201 c 0,32,33
 434 201 434 201 482 249 c 128,-1,34
 530 297 530 297 530 372 c 2,35,-1
 530 632 l 1,24,-1
EndSplineSet
Ligature2: "'vatu' Vattu Variants in Devanagari lookup 9 subtable" dvYA dvRashtrasign
Ligature2: "'rkrf' Rakar Forms in Devanagari2 lookup 4 subtable" dvYA dvVirama dvRA
EndChar

StartChar: dvV_RA
Encoding: 65610 -1 176
Width: 670
Flags: W
AnchorPoint: "Anchor-1" 568 709 basechar 0
LayerCount: 2
Fore
SplineSet
690 740 m 1,0,-1
 690 632 l 1,1,-1
 580 632 l 1,2,-1
 580 0 l 1,3,-1
 454 0 l 1,4,-1
 454 164 l 1,5,6
 439 142 439 142 423 129 c 2,7,-1
 261 -44 l 1,8,-1
 122 -44 l 1,9,-1
 250 85 l 1,10,11
 161 96 161 96 110 158 c 128,-1,12
 59 220 59 220 59 314 c 0,13,14
 59 381 59 381 87 434 c 128,-1,15
 115 487 115 487 166.5 516.5 c 128,-1,16
 218 546 218 546 285 546 c 0,17,18
 342 546 342 546 385 524 c 128,-1,19
 428 502 428 502 454 463 c 1,20,-1
 454 632 l 1,21,-1
 -21 632 l 1,22,-1
 -21 740 l 1,23,-1
 690 740 l 1,0,-1
392.5 197 m 128,-1,25
 423 216 423 216 438.5 246 c 128,-1,26
 454 276 454 276 454 309 c 2,27,-1
 454 310 l 2,28,29
 454 364 454 364 418.5 403 c 128,-1,30
 383 442 383 442 319 442 c 0,31,32
 261 442 261 442 223.5 406 c 128,-1,33
 186 370 186 370 186 311 c 0,34,35
 186 251 186 251 223.5 214.5 c 128,-1,36
 261 178 261 178 319 178 c 0,37,24
 362 178 362 178 392.5 197 c 128,-1,25
EndSplineSet
Ligature2: "'vatu' Vattu Variants in Devanagari lookup 9 subtable" dvVA dvRashtrasign
Ligature2: "'rkrf' Rakar Forms in Devanagari2 lookup 4 subtable" dvVA dvVirama dvRA
EndChar

StartChar: dvSH_RA
Encoding: 65611 -1 177
Width: 840
Flags: W
AnchorPoint: "Anchor-1" 734 705 basechar 0
LayerCount: 2
Fore
SplineSet
861 740 m 1,0,-1
 861 632 l 1,1,-1
 750 632 l 1,2,-1
 750 0 l 1,3,-1
 623 0 l 1,4,-1
 623 152 l 1,5,-1
 558 185 l 1,6,-1
 355 -9 l 1,7,-1
 203 -9 l 1,8,-1
 203 2 l 1,9,-1
 463 235 l 1,10,-1
 330 304 l 1,11,-1
 176 184 l 1,12,-1
 29 184 l 1,13,-1
 29 199 l 1,14,-1
 232 356 l 1,15,16
 166 397 166 397 131.5 445.5 c 128,-1,17
 97 494 97 494 97 557 c 0,18,19
 97 612 97 612 122.5 655.5 c 128,-1,20
 148 699 148 699 195.5 724 c 128,-1,21
 243 749 243 749 306 749 c 0,22,23
 371 749 371 749 419 725 c 128,-1,24
 467 701 467 701 493 659 c 128,-1,25
 519 617 519 617 519 564 c 0,26,27
 519 506 519 506 495.5 462.5 c 128,-1,28
 472 419 472 419 417 373 c 1,29,-1
 622 266 l 1,30,-1
 623 266 l 1,31,-1
 623 740 l 1,32,-1
 861 740 l 1,0,-1
303 432 m 2,34,-1
 320 423 l 1,35,36
 359 453 359 453 380 482.5 c 128,-1,37
 401 512 401 512 401 551 c 0,38,39
 401 588 401 588 376.5 614.5 c 128,-1,40
 352 641 352 641 310 642 c 0,41,42
 269 642 269 642 243.5 615.5 c 128,-1,43
 218 589 218 589 218 551 c 0,44,33
 218 478 218 478 303 432 c 2,34,-1
EndSplineSet
Ligature2: "'vatu' Vattu Variants in Devanagari lookup 9 subtable" dvSHA dvRashtrasign
Ligature2: "'rkrf' Rakar Forms in Devanagari2 lookup 4 subtable" dvSHA dvVirama dvRA
EndChar

StartChar: dvSS_RA
Encoding: 65612 -1 178
Width: 680
Flags: W
AnchorPoint: "Anchor-1" 568 709 basechar 0
LayerCount: 2
Fore
SplineSet
701 632 m 1,0,-1
 590 632 l 1,1,-1
 590 0 l 1,2,-1
 463 0 l 1,3,-1
 463 238 l 1,4,5
 453 224 453 224 438 212 c 2,6,-1
 219 -21 l 1,7,-1
 79 -21 l 1,8,-1
 272 170 l 1,9,10
 176 180 176 180 125 249.5 c 128,-1,11
 74 319 74 319 74 428 c 2,12,-1
 74 632 l 1,13,-1
 -21 632 l 1,14,-1
 -21 740 l 1,15,-1
 701 740 l 1,16,-1
 701 632 l 1,0,-1
463 632 m 1,17,-1
 200 632 l 1,18,-1
 463 440 l 1,19,-1
 463 632 l 1,17,-1
231.5 314.5 m 128,-1,21
 264 274 264 274 329 274 c 0,22,23
 375 274 375 274 407 295.5 c 128,-1,24
 439 317 439 317 453 354 c 1,25,-1
 199 538 l 1,26,-1
 199 424 l 2,27,20
 199 355 199 355 231.5 314.5 c 128,-1,21
EndSplineSet
Ligature2: "'vatu' Vattu Variants in Devanagari lookup 9 subtable" dvSSA dvRashtrasign
Ligature2: "'rkrf' Rakar Forms in Devanagari2 lookup 4 subtable" dvSSA dvVirama dvRA
EndChar

StartChar: dvS_RA
Encoding: 65613 -1 179
Width: 901
Flags: W
AnchorPoint: "Anchor-1" 790 704 basechar 0
LayerCount: 2
Fore
SplineSet
922 632 m 1,0,-1
 811 632 l 1,1,-1
 811 0 l 1,2,-1
 698 0 l 1,3,-1
 698 169 l 1,4,-1
 527 -61 l 1,5,-1
 403 -61 l 1,6,-1
 687 294 l 1,7,-1
 687 325 l 1,8,-1
 192 325 l 1,9,-1
 192 189 l 2,10,11
 192 150 192 150 211.5 125.5 c 128,-1,12
 231 101 231 101 268 101 c 0,13,14
 301 101 301 101 319.5 126 c 128,-1,15
 338 151 338 151 338 190 c 2,16,-1
 338 203 l 1,17,-1
 450 203 l 1,18,19
 451 194 451 194 451 183 c 0,20,21
 451 94 451 94 403 42.5 c 128,-1,22
 355 -9 355 -9 269 -9 c 0,23,24
 174 -9 174 -9 122 48 c 128,-1,25
 70 105 70 105 70 196 c 2,26,-1
 70 411 l 1,27,-1
 151 411 l 2,28,29
 231 411 231 411 268 449.5 c 128,-1,30
 305 488 305 488 305 556 c 2,31,-1
 305 632 l 1,32,-1
 -21 632 l 1,33,-1
 -21 740 l 1,34,-1
 922 740 l 1,35,-1
 922 632 l 1,0,-1
687 632 m 1,36,-1
 433 632 l 1,37,-1
 433 556 l 2,38,39
 433 480 433 480 398 424 c 1,40,-1
 687 424 l 1,41,-1
 687 632 l 1,36,-1
EndSplineSet
Ligature2: "'vatu' Vattu Variants in Devanagari lookup 9 subtable" dvSA dvRashtrasign
Ligature2: "'rkrf' Rakar Forms in Devanagari2 lookup 4 subtable" dvSA dvVirama dvRA
EndChar

StartChar: dvH_RA
Encoding: 65614 -1 180
Width: 586
Flags: W
AnchorPoint: "Anchor-3" 376 -137 basechar 0
AnchorPoint: "Anchor-2" 386 -230 basechar 0
AnchorPoint: "Anchor-1" 456 711 basechar 0
AnchorPoint: "Anchor-0" 473 740 basechar 0
LayerCount: 2
Fore
SplineSet
239 438 m 128,-1,1
 217 424 217 424 217 392 c 0,2,3
 217 372 217 372 228.5 357 c 128,-1,4
 240 342 240 342 260 333 c 1,5,6
 280 337 280 337 307 337 c 0,7,8
 392 337 392 337 452 295.5 c 128,-1,9
 512 254 512 254 525 191 c 1,10,-1
 431 89 l 1,11,-1
 316 89 l 1,12,-1
 410 192 l 1,13,14
 396 212 396 212 371 225.5 c 128,-1,15
 346 239 346 239 311 239 c 0,16,17
 254 239 254 239 220 199.5 c 128,-1,18
 186 160 186 160 186 99 c 256,19,20
 186 38 186 38 220.5 0.5 c 128,-1,21
 255 -37 255 -37 312 -37 c 0,22,23
 356 -37 356 -37 385 -15.5 c 128,-1,24
 414 6 414 6 424 36 c 1,25,-1
 537 36 l 1,26,27
 531 -14 531 -14 501 -53.5 c 128,-1,28
 471 -93 471 -93 421 -115.5 c 128,-1,29
 371 -138 371 -138 306 -138 c 0,30,31
 232 -138 232 -138 177.5 -107.5 c 128,-1,32
 123 -77 123 -77 94 -22 c 128,-1,33
 65 33 65 33 65 104 c 0,34,35
 65 167 65 167 91.5 217 c 128,-1,36
 118 267 118 267 165 298 c 1,37,38
 129 316 129 316 109 346.5 c 128,-1,39
 89 377 89 377 89 417 c 0,40,41
 89 477 89 477 132.5 511 c 128,-1,42
 176 545 176 545 250 545 c 2,43,-1
 350 545 l 1,44,-1
 350 632 l 1,45,-1
 -21 632 l 1,46,-1
 -21 740 l 1,47,-1
 606 740 l 1,48,-1
 606 632 l 1,49,-1
 473 632 l 1,50,-1
 473 452 l 1,51,-1
 296 452 l 2,52,0
 261 452 261 452 239 438 c 128,-1,1
EndSplineSet
Ligature2: "'vatu' Vattu Variants in Devanagari lookup 9 subtable" dvHA dvRashtrasign
Ligature2: "'rkrf' Rakar Forms in Devanagari2 lookup 4 subtable" dvHA dvVirama dvRA
EndChar

StartChar: dvLL_RA
Encoding: 65615 -1 181
Width: 975
Flags: W
AnchorPoint: "Anchor-3" 754 -27 basechar 0
AnchorPoint: "Anchor-2" 764 -120 basechar 0
AnchorPoint: "Anchor-1" 734 705 basechar 0
AnchorPoint: "Anchor-0" 767 740 basechar 0
LayerCount: 2
Fore
SplineSet
767 632 m 1,0,-1
 767 517 l 1,1,2
 834 495 834 495 875 437 c 128,-1,3
 916 379 916 379 916 298 c 0,4,5
 916 228 916 228 883.5 174.5 c 128,-1,6
 851 121 851 121 796 93 c 1,7,-1
 933 -65 l 1,8,-1
 800 -65 l 1,9,-1
 692 65 l 1,10,-1
 584 -65 l 1,11,-1
 453 -65 l 1,12,-1
 586 91 l 1,13,14
 518 123 518 123 489 194 c 1,15,-1
 485 194 l 1,16,17
 462 136 462 136 409.5 102.5 c 128,-1,18
 357 69 357 69 287 69 c 0,19,20
 223 69 223 69 171 97.5 c 128,-1,21
 119 126 119 126 89 178 c 128,-1,22
 59 230 59 230 59 298 c 0,23,24
 59 367 59 367 89 420 c 128,-1,25
 119 473 119 473 171 501.5 c 128,-1,26
 223 530 223 530 286 530 c 0,27,28
 353 530 353 530 404 498.5 c 128,-1,29
 455 467 455 467 486 407 c 1,30,-1
 489 407 l 1,31,32
 538 506 538 506 642 526 c 1,33,-1
 642 632 l 1,34,-1
 -21 632 l 1,35,-1
 -21 740 l 1,36,-1
 995 740 l 1,37,-1
 995 632 l 1,38,-1
 767 632 l 1,0,-1
391 212.5 m 128,-1,40
 424 246 424 246 424 298 c 0,41,42
 424 352 424 352 391 386 c 128,-1,43
 358 420 358 420 305 420 c 256,44,45
 252 420 252 420 218.5 386 c 128,-1,46
 185 352 185 352 185 297 c 0,47,48
 185 244 185 244 219 211.5 c 128,-1,49
 253 179 253 179 305 179 c 0,50,39
 358 179 358 179 391 212.5 c 128,-1,40
755.5 211.5 m 128,-1,52
 789 244 789 244 789 297 c 0,53,54
 789 352 789 352 756 386 c 128,-1,55
 723 420 723 420 670 420 c 256,56,57
 617 420 617 420 584 386 c 128,-1,58
 551 352 551 352 551 298 c 0,59,60
 551 245 551 245 584 212 c 128,-1,61
 617 179 617 179 669 179 c 0,62,51
 722 179 722 179 755.5 211.5 c 128,-1,52
EndSplineSet
Ligature2: "'vatu' Vattu Variants in Devanagari lookup 9 subtable" dvLLA dvRashtrasign
Ligature2: "'rkrf' Rakar Forms in Devanagari2 lookup 4 subtable" dvLLA dvVirama dvRA
EndChar

StartChar: dvKx_RA
Encoding: 65616 -1 182
Width: 1042
Flags: W
AnchorPoint: "Anchor-3" 623 0 basechar 0
AnchorPoint: "Anchor-2" 623 0 basechar 0
AnchorPoint: "Anchor-1" 623 708 basechar 0
AnchorPoint: "Anchor-0" 623 740 basechar 0
LayerCount: 2
Fore
SplineSet
623 632 m 1,0,-1
 623 460 l 1,1,2
 646 498 646 498 685.5 520 c 128,-1,3
 725 542 725 542 778 542 c 0,4,5
 840 542 840 542 886.5 512 c 128,-1,6
 933 482 933 482 958 430 c 128,-1,7
 983 378 983 378 983 313 c 0,8,9
 983 242 983 242 956.5 190.5 c 128,-1,10
 930 139 930 139 883 112 c 128,-1,11
 836 85 836 85 776 85 c 0,12,13
 741 85 741 85 710 92 c 1,14,-1
 710 194 l 1,15,16
 722 190 722 190 742 190 c 0,17,18
 790 190 790 190 821 222 c 128,-1,19
 852 254 852 254 852 310 c 0,20,21
 852 363 852 363 820.5 397 c 128,-1,22
 789 431 789 431 738 431 c 0,23,24
 682 431 682 431 653.5 393 c 128,-1,25
 625 355 625 355 623 301 c 2,26,-1
 623 0 l 1,27,-1
 499 0 l 1,28,-1
 499 168 l 1,29,30
 493 159 493 159 479 143 c 2,31,-1
 306 -46 l 1,32,-1
 167 -46 l 1,33,-1
 297 91 l 1,34,35
 220 103 220 103 172.5 162.5 c 128,-1,36
 125 222 125 222 125 310 c 0,37,38
 125 379 125 379 151.5 431.5 c 128,-1,39
 178 484 178 484 226.5 513 c 128,-1,40
 275 542 275 542 339 542 c 0,41,42
 395 542 395 542 435 520.5 c 128,-1,43
 475 499 475 499 499 462 c 1,44,-1
 499 632 l 1,45,-1
 -21 632 l 1,46,-1
 -21 740 l 1,47,-1
 1063 740 l 1,48,-1
 1063 632 l 1,49,-1
 623 632 l 1,0,-1
467 222.5 m 128,-1,51
 499 260 499 260 499 309 c 0,52,53
 499 359 499 359 467.5 395.5 c 128,-1,54
 436 432 436 432 378 432 c 0,55,56
 325 432 325 432 290.5 398 c 128,-1,57
 256 364 256 364 256 309 c 0,58,59
 256 253 256 253 290 219 c 128,-1,60
 324 185 324 185 378 185 c 0,61,50
 435 185 435 185 467 222.5 c 128,-1,51
132.5 110.5 m 128,-1,63
 153 90 153 90 153 60 c 0,64,65
 153 31 153 31 132.5 11 c 128,-1,66
 112 -9 112 -9 82 -9 c 0,67,68
 54 -9 54 -9 33.5 11.5 c 128,-1,69
 13 32 13 32 13 60 c 0,70,71
 13 90 13 90 33 110.5 c 128,-1,72
 53 131 53 131 82 131 c 0,73,62
 112 131 112 131 132.5 110.5 c 128,-1,63
EndSplineSet
Ligature2: "'vatu' Vattu Variants in Devanagari lookup 9 subtable" dvKxA dvRashtrasign
Ligature2: "'rkrf' Rakar Forms in Devanagari2 lookup 4 subtable" dvKxA dvVirama dvRA
EndChar

StartChar: dvKHx_RA
Encoding: 65617 -1 183
Width: 950
Flags: W
AnchorPoint: "Anchor-1" 845 704 basechar 0
LayerCount: 2
Fore
SplineSet
971 740 m 1,0,-1
 971 632 l 1,1,-1
 860 632 l 1,2,-1
 860 0 l 1,3,-1
 732 0 l 1,4,-1
 732 181 l 1,5,6
 689 121 689 121 601 121 c 0,7,8
 584 121 584 121 567 124 c 1,9,10
 559 111 559 111 541 87 c 2,11,-1
 344 -138 l 1,12,-1
 206 -138 l 1,13,-1
 206 -131 l 1,14,-1
 327 0 l 1,15,16
 209 5 209 5 140.5 74 c 128,-1,17
 72 143 72 143 72 264 c 2,18,-1
 72 401 l 1,19,-1
 102 401 l 2,20,21
 169 401 169 401 204 433 c 128,-1,22
 239 465 239 465 239 539 c 2,23,-1
 239 632 l 1,24,-1
 -21 632 l 1,25,-1
 -21 740 l 1,26,-1
 971 740 l 1,0,-1
469 170 m 1,28,29
 439 198 439 198 423 238.5 c 128,-1,30
 407 279 407 279 407 328 c 0,31,32
 407 387 407 387 432 433.5 c 128,-1,33
 457 480 457 480 501.5 506 c 128,-1,34
 546 532 546 532 601 532 c 0,35,36
 687 532 687 532 732 472 c 1,37,-1
 732 632 l 1,38,-1
 369 632 l 1,39,-1
 369 522 l 2,40,41
 369 422 369 422 323 369 c 128,-1,42
 277 316 277 316 200 310 c 1,43,-1
 200 249 l 2,44,45
 200 185 200 185 238.5 145.5 c 128,-1,46
 277 106 277 106 345 106 c 0,47,27
 428 106 428 106 469 170 c 1,28,29
705 252 m 128,-1,49
 732 284 732 284 732 327 c 256,50,51
 732 370 732 370 705.5 401.5 c 128,-1,52
 679 433 679 433 629 433 c 0,53,54
 583 433 583 433 552.5 404.5 c 128,-1,55
 522 376 522 376 522 328 c 0,56,57
 522 277 522 277 552.5 248.5 c 128,-1,58
 583 220 583 220 629 220 c 0,59,48
 678 220 678 220 705 252 c 128,-1,49
145.5 -21.5 m 128,-1,61
 166 -42 166 -42 166 -72 c 0,62,63
 166 -101 166 -101 145.5 -121 c 128,-1,64
 125 -141 125 -141 95 -141 c 0,65,66
 67 -141 67 -141 46.5 -121 c 128,-1,67
 26 -101 26 -101 26 -72 c 0,68,69
 26 -42 26 -42 46 -21.5 c 128,-1,70
 66 -1 66 -1 95 -1 c 0,71,60
 125 -1 125 -1 145.5 -21.5 c 128,-1,61
EndSplineSet
Ligature2: "'vatu' Vattu Variants in Devanagari lookup 9 subtable" dvKHxA dvRashtrasign
Ligature2: "'rkrf' Rakar Forms in Devanagari2 lookup 4 subtable" dvKHxA dvVirama dvRA
EndChar

StartChar: dvGx_RA
Encoding: 65618 -1 184
Width: 788
Flags: W
AnchorPoint: "Anchor-1" 679 706 basechar 0
LayerCount: 2
Fore
SplineSet
809 740 m 1,0,-1
 809 632 l 1,1,-1
 698 632 l 1,2,-1
 698 0 l 1,3,-1
 572 0 l 1,4,-1
 572 209 l 1,5,-1
 344 -20 l 1,6,-1
 195 -20 l 1,7,-1
 569 340 l 1,8,-1
 569 632 l 1,9,-1
 424 632 l 1,10,-1
 424 453 l 2,11,12
 424 364 424 364 377 308.5 c 128,-1,13
 330 253 330 253 234 253 c 0,14,15
 141 253 141 253 90.5 304 c 128,-1,16
 40 355 40 355 40 446 c 0,17,18
 40 467 40 467 41 477 c 1,19,-1
 166 477 l 1,20,-1
 166 446 l 2,21,22
 166 410 166 410 181.5 387 c 128,-1,23
 197 364 197 364 231 364 c 0,24,25
 294 364 294 364 294 447 c 2,26,-1
 294 632 l 1,27,-1
 -21 632 l 1,28,-1
 -21 740 l 1,29,-1
 809 740 l 1,0,-1
152.5 148.5 m 128,-1,31
 173 128 173 128 173 98 c 0,32,33
 173 69 173 69 152.5 49 c 128,-1,34
 132 29 132 29 102 29 c 0,35,36
 74 29 74 29 53.5 49.5 c 128,-1,37
 33 70 33 70 33 98 c 0,38,39
 33 128 33 128 53 148.5 c 128,-1,40
 73 169 73 169 102 169 c 0,41,30
 132 169 132 169 152.5 148.5 c 128,-1,31
EndSplineSet
Ligature2: "'vatu' Vattu Variants in Devanagari lookup 9 subtable" dvGxA dvRashtrasign
Ligature2: "'rkrf' Rakar Forms in Devanagari2 lookup 4 subtable" dvGxA dvVirama dvRA
EndChar

StartChar: dvJx_RA
Encoding: 65619 -1 185
Width: 852
Flags: W
AnchorPoint: "Anchor-1" 734 705 basechar 0
LayerCount: 2
Fore
SplineSet
873 632 m 1,0,-1
 762 632 l 1,1,-1
 762 0 l 1,2,-1
 642 0 l 1,3,-1
 642 192 l 1,4,-1
 428 -43 l 1,5,-1
 286 -43 l 1,6,-1
 639 323 l 1,7,-1
 639 392 l 1,8,-1
 484 392 l 1,9,10
 482 298 482 298 427 239.5 c 128,-1,11
 372 181 372 181 276 181 c 0,12,13
 173 181 173 181 116.5 240.5 c 128,-1,14
 60 300 60 300 60 397 c 2,15,-1
 60 496 l 1,16,-1
 191 496 l 1,17,-1
 191 400 l 2,18,19
 191 351 191 351 213.5 323 c 128,-1,20
 236 295 236 295 276 295 c 0,21,22
 317 295 317 295 340.5 323 c 128,-1,23
 364 351 364 351 364 400 c 2,24,-1
 364 496 l 1,25,-1
 639 496 l 1,26,-1
 639 632 l 1,27,-1
 -21 632 l 1,28,-1
 -21 740 l 1,29,-1
 873 740 l 1,30,-1
 873 632 l 1,0,-1
196.5 87.5 m 128,-1,32
 217 67 217 67 217 37 c 0,33,34
 217 8 217 8 196.5 -12 c 128,-1,35
 176 -32 176 -32 146 -32 c 0,36,37
 118 -32 118 -32 97.5 -11.5 c 128,-1,38
 77 9 77 9 77 37 c 0,39,40
 77 67 77 67 97 87.5 c 128,-1,41
 117 108 117 108 146 108 c 0,42,31
 176 108 176 108 196.5 87.5 c 128,-1,32
EndSplineSet
Ligature2: "'vatu' Vattu Variants in Devanagari lookup 9 subtable" dvJxA dvRashtrasign
Ligature2: "'rkrf' Rakar Forms in Devanagari2 lookup 4 subtable" dvJxA dvVirama dvRA
EndChar

StartChar: dvPHx_RA
Encoding: 65620 -1 186
Width: 1059
Flags: W
AnchorPoint: "Anchor-3" 636 0 basechar 0
AnchorPoint: "Anchor-2" 636 0 basechar 0
AnchorPoint: "Anchor-1" 623 708 basechar 0
AnchorPoint: "Anchor-0" 636 740 basechar 0
LayerCount: 2
Fore
SplineSet
636 632 m 1,0,-1
 636 461 l 1,1,2
 660 499 660 499 700.5 520.5 c 128,-1,3
 741 542 741 542 797 542 c 0,4,5
 858 542 858 542 904.5 512.5 c 128,-1,6
 951 483 951 483 976 432 c 128,-1,7
 1001 381 1001 381 1001 317 c 0,8,9
 1001 245 1001 245 974.5 192.5 c 128,-1,10
 948 140 948 140 901 112.5 c 128,-1,11
 854 85 854 85 794 85 c 0,12,13
 757 85 757 85 723 94 c 1,14,-1
 723 194 l 1,15,16
 745 189 745 189 761 189 c 0,17,18
 810 189 810 189 840 222 c 128,-1,19
 870 255 870 255 870 310 c 0,20,21
 870 363 870 363 838.5 397 c 128,-1,22
 807 431 807 431 757 431 c 0,23,24
 697 431 697 431 666.5 390 c 128,-1,25
 636 349 636 349 636 287 c 2,26,-1
 636 0 l 1,27,-1
 506 0 l 1,28,-1
 506 242 l 1,29,-1
 493 228 l 1,30,-1
 286 -21 l 1,31,-1
 146 -21 l 1,32,-1
 328 182 l 1,33,34
 241 192 241 192 195 256.5 c 128,-1,35
 149 321 149 321 149 422 c 2,36,-1
 149 632 l 1,37,-1
 -21 632 l 1,38,-1
 -21 740 l 1,39,-1
 1080 740 l 1,40,-1
 1080 632 l 1,41,-1
 636 632 l 1,0,-1
506 632 m 1,42,-1
 278 632 l 1,43,-1
 278 422 l 2,44,45
 278 357 278 357 306.5 320 c 128,-1,46
 335 283 335 283 392 283 c 0,47,48
 447 283 447 283 476.5 318.5 c 128,-1,49
 506 354 506 354 506 408 c 2,50,-1
 506 632 l 1,42,-1
138.5 180.5 m 128,-1,52
 159 160 159 160 159 130 c 0,53,54
 159 101 159 101 138.5 81 c 128,-1,55
 118 61 118 61 88 61 c 0,56,57
 60 61 60 61 39.5 81.5 c 128,-1,58
 19 102 19 102 19 130 c 0,59,60
 19 160 19 160 39 180.5 c 128,-1,61
 59 201 59 201 88 201 c 0,62,51
 118 201 118 201 138.5 180.5 c 128,-1,52
EndSplineSet
Ligature2: "'vatu' Vattu Variants in Devanagari lookup 9 subtable" dvPHxA dvRashtrasign
Ligature2: "'rkrf' Rakar Forms in Devanagari2 lookup 4 subtable" dvPHxA dvVirama dvRA
EndChar

StartChar: dvK_R
Encoding: 65621 -1 187
Width: 715
Flags: W
LayerCount: 2
Fore
SplineSet
557 632 m 1,0,-1
 557 459 l 1,1,2
 579 497 579 497 618.5 519.5 c 128,-1,3
 658 542 658 542 712 542 c 0,4,5
 774 542 774 542 820.5 512 c 128,-1,6
 867 482 867 482 892 429 c 128,-1,7
 917 376 917 376 917 310 c 1,8,-1
 786 310 l 1,9,10
 786 363 786 363 754 397 c 128,-1,11
 722 431 722 431 672 431 c 0,12,13
 616 431 616 431 587.5 393 c 128,-1,14
 559 355 559 355 557 301 c 2,15,-1
 557 0 l 1,16,-1
 433 0 l 1,17,-1
 433 169 l 1,18,19
 425 155 425 155 415 145 c 2,20,-1
 240 -46 l 1,21,-1
 101 -46 l 1,22,-1
 231 91 l 1,23,24
 154 103 154 103 106.5 162.5 c 128,-1,25
 59 222 59 222 59 310 c 0,26,27
 59 379 59 379 85.5 431.5 c 128,-1,28
 112 484 112 484 160.5 513 c 128,-1,29
 209 542 209 542 273 542 c 0,30,31
 329 542 329 542 369 520.5 c 128,-1,32
 409 499 409 499 433 461 c 1,33,-1
 433 632 l 1,34,-1
 -21 632 l 1,35,-1
 -21 740 l 1,36,-1
 917 740 l 1,37,-1
 917 632 l 1,38,-1
 557 632 l 1,0,-1
377.5 203 m 128,-1,40
 405 221 405 221 419 249.5 c 128,-1,41
 433 278 433 278 433 309 c 0,42,43
 433 359 433 359 401.5 395.5 c 128,-1,44
 370 432 370 432 312 432 c 0,45,46
 260 432 260 432 225 398 c 128,-1,47
 190 364 190 364 190 309 c 0,48,49
 190 253 190 253 224 219 c 128,-1,50
 258 185 258 185 311 185 c 0,51,39
 350 185 350 185 377.5 203 c 128,-1,40
EndSplineSet
Ligature2: "'vatu' Vattu Variants in Devanagari lookup 9 subtable" dvK dvRashtrasign
Ligature2: "'half' Half Forms in Devanagari2 lookup 8 subtable" dvK_RA dvVirama
EndChar

StartChar: dvKH_R
Encoding: 65622 -1 188
Width: 672
Flags: W
LayerCount: 2
Fore
SplineSet
323 369 m 128,-1,1
 277 316 277 316 200 310 c 1,2,-1
 200 249 l 2,3,4
 200 185 200 185 238.5 145.5 c 128,-1,5
 277 106 277 106 345 106 c 0,6,7
 430 106 430 106 472 174 c 1,8,9
 408 230 408 230 408 325 c 0,10,11
 408 388 408 388 436.5 434 c 128,-1,12
 465 480 465 480 516 504.5 c 128,-1,13
 567 529 567 529 632 529 c 0,14,15
 731 529 731 529 792.5 474 c 128,-1,16
 854 419 854 419 854 325 c 0,17,18
 854 261 854 261 825 214.5 c 128,-1,19
 796 168 796 168 745.5 143.5 c 128,-1,20
 695 119 695 119 632 119 c 0,21,22
 596 119 596 119 568 126 c 1,23,24
 556 105 556 105 541 87 c 2,25,-1
 344 -138 l 1,26,-1
 206 -138 l 1,27,-1
 206 -131 l 1,28,-1
 327 0 l 1,29,30
 209 5 209 5 140.5 74 c 128,-1,31
 72 143 72 143 72 264 c 2,32,-1
 72 401 l 1,33,-1
 102 401 l 2,34,35
 169 401 169 401 204 433 c 128,-1,36
 239 465 239 465 239 539 c 2,37,-1
 239 632 l 1,38,-1
 -21 632 l 1,39,-1
 -21 740 l 1,40,-1
 854 740 l 1,41,-1
 854 632 l 1,42,-1
 369 632 l 1,43,-1
 369 522 l 2,44,0
 369 422 369 422 323 369 c 128,-1,1
552 403.5 m 128,-1,46
 522 374 522 374 522 325 c 256,47,48
 522 276 522 276 552 246.5 c 128,-1,49
 582 217 582 217 632 217 c 256,50,51
 682 217 682 217 711.5 246.5 c 128,-1,52
 741 276 741 276 741 325 c 256,53,54
 741 374 741 374 711.5 403.5 c 128,-1,55
 682 433 682 433 632 433 c 256,56,45
 582 433 582 433 552 403.5 c 128,-1,46
EndSplineSet
Ligature2: "'vatu' Vattu Variants in Devanagari lookup 9 subtable" dvKH dvRashtrasign
Ligature2: "'half' Half Forms in Devanagari2 lookup 8 subtable" dvKH_RA dvVirama
EndChar

StartChar: dvG_R
Encoding: 65623 -1 189
Width: 521
Flags: W
LayerCount: 2
Fore
SplineSet
596 740 m 1,0,-1
 596 632 l 1,1,-1
 424 632 l 1,2,-1
 424 453 l 2,3,4
 424 364 424 364 377 308.5 c 128,-1,5
 330 253 330 253 234 253 c 0,6,7
 141 253 141 253 90.5 304 c 128,-1,8
 40 355 40 355 40 446 c 0,9,10
 40 467 40 467 41 477 c 1,11,-1
 166 477 l 1,12,-1
 166 446 l 2,13,14
 166 410 166 410 181.5 387 c 128,-1,15
 197 364 197 364 231 364 c 0,16,17
 294 364 294 364 294 447 c 2,18,-1
 294 632 l 1,19,-1
 -21 632 l 1,20,-1
 -21 740 l 1,21,-1
 596 740 l 1,0,-1
195 -20 m 1,22,-1
 596 366 l 1,23,-1
 596 233 l 1,24,-1
 344 -20 l 1,25,-1
 195 -20 l 1,22,-1
EndSplineSet
Ligature2: "'vatu' Vattu Variants in Devanagari lookup 9 subtable" dvG dvRashtrasign
Ligature2: "'half' Half Forms in Devanagari2 lookup 8 subtable" dvG_RA dvVirama
EndChar

StartChar: dvGH_R
Encoding: 65624 -1 190
Width: 398
Flags: W
LayerCount: 2
Fore
SplineSet
215 632 m 1,0,-1
 215 580 l 2,1,2
 215 533 215 533 240.5 508 c 128,-1,3
 266 483 266 483 323 483 c 2,4,-1
 365 483 l 1,5,-1
 365 379 l 1,6,-1
 313 379 l 2,7,8
 258 379 258 379 230.5 355.5 c 128,-1,9
 203 332 203 332 203 294 c 0,10,11
 203 250 203 250 236 227 c 128,-1,12
 269 204 269 204 322 204 c 0,13,14
 397 204 397 204 440.5 247 c 128,-1,15
 484 290 484 290 484 358 c 1,16,-1
 593 358 l 1,17,18
 593 301 593 301 572 251 c 128,-1,19
 551 201 551 201 512 166 c 1,20,-1
 320 -51 l 1,21,-1
 181 -51 l 1,22,-1
 324 98 l 1,23,-1
 322 98 l 2,24,25
 205 98 205 98 138.5 145 c 128,-1,26
 72 192 72 192 72 281 c 0,27,28
 72 339 72 339 106 378 c 128,-1,29
 140 417 140 417 189 428 c 1,30,-1
 189 431 l 1,31,32
 142 442 142 442 114 476.5 c 128,-1,33
 86 511 86 511 86 574 c 2,34,-1
 86 632 l 1,35,-1
 -21 632 l 1,36,-1
 -21 740 l 1,37,-1
 593 740 l 1,38,-1
 593 632 l 1,39,-1
 215 632 l 1,0,-1
EndSplineSet
Ligature2: "'vatu' Vattu Variants in Devanagari lookup 9 subtable" dvGH dvRashtrasign
Ligature2: "'half' Half Forms in Devanagari2 lookup 8 subtable" dvGH_RA dvVirama
EndChar

StartChar: dvC_R
Encoding: 65626 -1 192
Width: 447
Flags: W
LayerCount: 2
Fore
SplineSet
638 632 m 1,0,-1
 -21 632 l 1,1,-1
 -21 740 l 1,2,-1
 638 740 l 1,3,-1
 638 632 l 1,0,-1
617 239.5 m 128,-1,5
 595 185 595 185 552 149 c 1,6,-1
 381 -46 l 1,7,-1
 242 -46 l 1,8,-1
 369 88 l 1,9,10
 266 89 266 89 202 139.5 c 128,-1,11
 138 190 138 190 138 283 c 0,12,13
 138 324 138 324 154 358.5 c 128,-1,14
 170 393 170 393 200 416 c 1,15,-1
 50 416 l 1,16,-1
 50 518 l 1,17,-1
 417 518 l 1,18,-1
 417 416 l 1,19,-1
 378 416 l 2,20,21
 325 416 325 416 292.5 385 c 128,-1,22
 260 354 260 354 260 305 c 0,23,24
 260 254 260 254 295.5 225 c 128,-1,25
 331 196 331 196 384 196 c 0,26,27
 449 197 449 197 488 243 c 128,-1,28
 527 289 527 289 527 361 c 1,29,-1
 638 361 l 1,30,4
 639 294 639 294 617 239.5 c 128,-1,5
EndSplineSet
Ligature2: "'vatu' Vattu Variants in Devanagari lookup 9 subtable" dvC dvRashtrasign
Ligature2: "'half' Half Forms in Devanagari2 lookup 8 subtable" dvC_RA dvVirama
EndChar

StartChar: dvCH_R
Encoding: 65627 -1 193
Width: 821
Flags: W
LayerCount: 2
Fore
SplineSet
213 632 m 1,0,-1
 213 553 l 2,1,2
 213 457 213 457 313 457 c 2,3,-1
 333 457 l 1,4,-1
 333 353 l 1,5,-1
 315 353 l 2,6,7
 257 353 257 353 227 326 c 128,-1,8
 197 299 197 299 197 256 c 0,9,10
 197 196 197 196 248.5 164.5 c 128,-1,11
 300 133 300 133 401 133 c 0,12,13
 524 133 524 133 594 186.5 c 128,-1,14
 664 240 664 240 664 337 c 0,15,16
 664 388 664 388 640.5 418 c 128,-1,17
 617 448 617 448 582 448 c 0,18,19
 549 448 549 448 526 424 c 128,-1,20
 503 400 503 400 503 355 c 0,21,22
 503 319 503 319 518 272 c 1,23,-1
 411 272 l 1,24,25
 395 315 395 315 395 369 c 0,26,27
 395 456 395 456 449 499.5 c 128,-1,28
 503 543 503 543 583 543 c 0,29,30
 669 543 669 543 723 487.5 c 128,-1,31
 777 432 777 432 777 332 c 0,32,33
 777 218 777 218 712.5 141.5 c 128,-1,34
 648 65 648 65 530 37 c 1,35,-1
 659 -112 l 1,36,-1
 526 -112 l 1,37,-1
 418 18 l 1,38,-1
 310 -112 l 1,39,-1
 179 -112 l 1,40,-1
 300 30 l 1,41,42
 191 47 191 47 128.5 101.5 c 128,-1,43
 66 156 66 156 66 244 c 0,44,45
 66 306 66 306 98.5 346 c 128,-1,46
 131 386 131 386 187 402 c 1,47,-1
 187 405 l 1,48,49
 141 415 141 415 112.5 450 c 128,-1,50
 84 485 84 485 84 548 c 2,51,-1
 84 632 l 1,52,-1
 -21 632 l 1,53,-1
 -21 740 l 1,54,-1
 842 740 l 1,55,-1
 842 632 l 1,56,-1
 213 632 l 1,0,-1
EndSplineSet
Ligature2: "'vatu' Vattu Variants in Devanagari lookup 9 subtable" dvCH dvRashtrasign
Ligature2: "'half' Half Forms in Devanagari2 lookup 8 subtable" dvCH_RA dvVirama
EndChar

StartChar: dvJ_R
Encoding: 65628 -1 194
Width: 548
Flags: W
LayerCount: 2
Fore
SplineSet
701 740 m 1,0,-1
 701 632 l 1,1,-1
 -21 632 l 1,2,-1
 -21 740 l 1,3,-1
 701 740 l 1,0,-1
701 257 m 1,4,-1
 428 -43 l 1,5,-1
 286 -43 l 1,6,-1
 700 386 l 1,7,-1
 484 386 l 1,8,9
 481 294 481 294 426 237.5 c 128,-1,10
 371 181 371 181 276 181 c 0,11,12
 173 181 173 181 116.5 240.5 c 128,-1,13
 60 300 60 300 60 397 c 2,14,-1
 60 496 l 1,15,-1
 191 496 l 1,16,-1
 191 400 l 2,17,18
 191 351 191 351 213.5 323 c 128,-1,19
 236 295 236 295 276 295 c 0,20,21
 317 295 317 295 340.5 323 c 128,-1,22
 364 351 364 351 364 400 c 2,23,-1
 364 496 l 1,24,-1
 701 496 l 1,25,-1
 701 257 l 1,4,-1
EndSplineSet
Ligature2: "'vatu' Vattu Variants in Devanagari lookup 9 subtable" dvJ dvRashtrasign
Ligature2: "'half' Half Forms in Devanagari2 lookup 8 subtable" dvJ_RA dvVirama
EndChar

StartChar: dvJH_R
Encoding: 65629 -1 195
Width: 564
Flags: W
LayerCount: 2
Fore
SplineSet
223.5 435 m 128,-1,1
 198 421 198 421 198 388 c 0,2,3
 198 358 198 358 219.5 343.5 c 128,-1,4
 241 329 241 329 277 329 c 2,5,-1
 321 329 l 1,6,-1
 735 329 l 1,7,-1
 735 232 l 1,8,-1
 497 232 l 1,9,10
 524 195 524 195 524 140 c 0,11,12
 524 73 524 73 480 30.5 c 128,-1,13
 436 -12 436 -12 356 -12 c 0,14,15
 265 -12 265 -12 212 50 c 1,16,-1
 212 -81 l 1,17,-1
 90 -81 l 1,18,-1
 90 170 l 1,19,-1
 206 170 l 1,20,21
 210 132 210 132 239 107.5 c 128,-1,22
 268 83 268 83 317 83 c 0,23,24
 360 83 360 83 382.5 104 c 128,-1,25
 405 125 405 125 405 156 c 0,26,27
 405 195 405 195 377.5 216.5 c 128,-1,28
 350 238 350 238 297 238 c 2,29,-1
 238 238 l 2,30,31
 167 241 167 241 118 278 c 128,-1,32
 69 315 69 315 69 389 c 0,33,34
 69 467 69 467 121 504.5 c 128,-1,35
 173 542 173 542 252 542 c 2,36,-1
 343 542 l 1,37,-1
 343 632 l 1,38,-1
 -21 632 l 1,39,-1
 -21 740 l 1,40,-1
 735 740 l 1,41,-1
 735 632 l 1,42,-1
 467 632 l 1,43,-1
 467 449 l 1,44,-1
 286 449 l 2,45,0
 249 449 249 449 223.5 435 c 128,-1,1
453 -111 m 1,46,-1
 735 211 l 1,47,-1
 735 82 l 1,48,-1
 583 -111 l 1,49,-1
 453 -111 l 1,46,-1
EndSplineSet
Ligature2: "'vatu' Vattu Variants in Devanagari lookup 9 subtable" dvJH dvRashtrasign
Ligature2: "'half' Half Forms in Devanagari2 lookup 8 subtable" dvJH_RA dvVirama
EndChar

StartChar: dvNY_R
Encoding: 65630 -1 196
Width: 537
Flags: W
LayerCount: 2
Fore
SplineSet
692 740 m 1,0,-1
 692 632 l 1,1,-1
 -21 632 l 1,2,-1
 -21 740 l 1,3,-1
 692 740 l 1,0,-1
433.5 501 m 128,-1,5
 492 458 492 458 511 385 c 1,6,-1
 692 385 l 1,7,-1
 692 143 l 1,8,-1
 489 -85 l 1,9,-1
 358 -85 l 1,10,-1
 691 276 l 1,11,-1
 517 276 l 1,12,13
 506 189 506 189 445 137.5 c 128,-1,14
 384 86 384 86 288 86 c 0,15,16
 223 86 223 86 172.5 110 c 128,-1,17
 122 134 122 134 92.5 176.5 c 128,-1,18
 63 219 63 219 59 273 c 1,19,-1
 181 273 l 1,20,21
 188 240 188 240 217.5 217.5 c 128,-1,22
 247 195 247 195 289 195 c 0,23,24
 344 195 344 195 374 229.5 c 128,-1,25
 404 264 404 264 404 316 c 0,26,27
 404 366 404 366 374 400 c 128,-1,28
 344 434 344 434 289 434 c 0,29,30
 247 434 247 434 218.5 411.5 c 128,-1,31
 190 389 190 389 181 356 c 1,32,-1
 59 356 l 1,33,34
 67 440 67 440 128.5 492 c 128,-1,35
 190 544 190 544 288 544 c 0,36,4
 375 544 375 544 433.5 501 c 128,-1,5
EndSplineSet
Ligature2: "'vatu' Vattu Variants in Devanagari lookup 9 subtable" dvNY dvRashtrasign
Ligature2: "'half' Half Forms in Devanagari2 lookup 8 subtable" dvNY_RA dvVirama
EndChar

StartChar: dvNN_R
Encoding: 65635 -1 201
Width: 577
Flags: W
LayerCount: 2
Fore
SplineSet
671 740 m 1,0,-1
 671 632 l 1,1,-1
 504 632 l 1,2,-1
 504 452 l 2,3,4
 504 357 504 357 449.5 298 c 128,-1,5
 395 239 395 239 294 239 c 0,6,7
 194 239 194 239 139.5 299 c 128,-1,8
 85 359 85 359 85 452 c 2,9,-1
 85 632 l 1,10,-1
 -21 632 l 1,11,-1
 -21 740 l 1,12,-1
 671 740 l 1,0,-1
377 632 m 1,13,-1
 211 632 l 1,14,-1
 211 441 l 2,15,16
 211 400 211 400 234 374 c 128,-1,17
 257 348 257 348 295 348 c 0,18,19
 334 348 334 348 355.5 373.5 c 128,-1,20
 377 399 377 399 377 441 c 2,21,-1
 377 632 l 1,13,-1
288 -41 m 1,22,-1
 671 360 l 1,23,-1
 671 216 l 1,24,-1
 435 -41 l 1,25,-1
 288 -41 l 1,22,-1
EndSplineSet
Ligature2: "'vatu' Vattu Variants in Devanagari lookup 9 subtable" dvNN dvRashtrasign
Ligature2: "'half' Half Forms in Devanagari2 lookup 8 subtable" dvNN_RA dvVirama
EndChar

StartChar: dvT_R
Encoding: 65636 -1 202
Width: 417
Flags: W
LayerCount: 2
Fore
SplineSet
609 740 m 1,0,-1
 609 632 l 1,1,-1
 -21 632 l 1,2,-1
 -21 740 l 1,3,-1
 609 740 l 1,0,-1
509 471.5 m 128,-1,5
 584 419 584 419 609 329 c 1,6,-1
 272 0 l 1,7,-1
 104 0 l 1,8,-1
 104 6 l 1,9,-1
 481 347 l 1,10,11
 461 380 461 380 424.5 400.5 c 128,-1,12
 388 421 388 421 342 421 c 0,13,14
 276 421 276 421 233 382 c 128,-1,15
 190 343 190 343 190 273 c 1,16,-1
 61 273 l 1,17,18
 61 346 61 346 94.5 403 c 128,-1,19
 128 460 128 460 190 492 c 128,-1,20
 252 524 252 524 334 524 c 0,21,4
 434 524 434 524 509 471.5 c 128,-1,5
EndSplineSet
Ligature2: "'vatu' Vattu Variants in Devanagari lookup 9 subtable" dvT dvRashtrasign
Ligature2: "'half' Half Forms in Devanagari2 lookup 8 subtable" dvT_RA dvVirama
EndChar

StartChar: dvTH_R
Encoding: 65637 -1 203
Width: 474
Flags: W
LayerCount: 2
Fore
SplineSet
649 240.5 m 128,-1,1
 623 189 623 189 576 153 c 2,2,-1
 310 -80 l 1,3,-1
 150 -80 l 1,4,-1
 150 -73 l 1,5,-1
 349 88 l 1,6,7
 216 93 216 93 140 167 c 128,-1,8
 64 241 64 241 64 369 c 0,9,10
 64 406 64 406 69 433 c 1,11,-1
 160 433 l 2,12,13
 248 433 248 433 300.5 460.5 c 128,-1,14
 353 488 353 488 353 556 c 0,15,16
 353 592 353 592 332 615.5 c 128,-1,17
 311 639 311 639 275 639 c 0,18,19
 237 639 237 639 215 615.5 c 128,-1,20
 193 592 193 592 193 552 c 0,21,22
 193 538 193 538 197 514 c 1,23,-1
 80 514 l 1,24,25
 76 540 76 540 76 555 c 0,26,27
 76 616 76 616 102.5 660 c 128,-1,28
 129 704 129 704 174.5 726.5 c 128,-1,29
 220 749 220 749 276 749 c 0,30,31
 334 749 334 749 379 724.5 c 128,-1,32
 424 700 424 700 449 655 c 128,-1,33
 474 610 474 610 474 552 c 0,34,35
 474 452 474 452 404.5 396 c 128,-1,36
 335 340 335 340 210 340 c 2,37,-1
 189 340 l 1,38,39
 192 276 192 276 235.5 236 c 128,-1,40
 279 196 279 196 362 196 c 0,41,42
 451 196 451 196 507.5 239 c 128,-1,43
 564 282 564 282 564 357 c 1,44,-1
 675 357 l 1,45,0
 675 292 675 292 649 240.5 c 128,-1,1
EndSplineSet
Ligature2: "'vatu' Vattu Variants in Devanagari lookup 9 subtable" dvTH dvRashtrasign
Ligature2: "'half' Half Forms in Devanagari2 lookup 8 subtable" dvTH_RA dvVirama
EndChar

StartChar: dvDH_R
Encoding: 65639 -1 205
Width: 428
Flags: W
LayerCount: 2
Fore
SplineSet
607 233.5 m 128,-1,1
 588 190 588 190 552 157 c 1,2,-1
 355 -68 l 1,3,-1
 215 -68 l 1,4,-1
 362 85 l 1,5,6
 350 84 350 84 327 84 c 0,7,8
 216 84 216 84 147 129.5 c 128,-1,9
 78 175 78 175 78 264 c 0,10,11
 78 324 78 324 113 361.5 c 128,-1,12
 148 399 148 399 195 408 c 1,13,-1
 195 412 l 1,14,15
 142 426 142 426 106 468 c 128,-1,16
 70 510 70 510 70 577 c 0,17,18
 70 654 70 654 120.5 701.5 c 128,-1,19
 171 749 171 749 251 749 c 0,20,21
 333 749 333 749 379.5 703.5 c 128,-1,22
 426 658 426 658 426 584 c 0,23,24
 426 568 426 568 424 546 c 1,25,-1
 328 546 l 1,26,-1
 329 568 l 2,27,28
 329 600 329 600 309 620.5 c 128,-1,29
 289 641 289 641 255 641 c 256,30,31
 221 641 221 641 200.5 619 c 128,-1,32
 180 597 180 597 180 563 c 0,33,34
 180 515 180 515 218.5 489.5 c 128,-1,35
 257 464 257 464 316 464 c 2,36,-1
 375 464 l 1,37,-1
 375 360 l 1,38,-1
 322 360 l 2,39,40
 268 360 268 360 238.5 338 c 128,-1,41
 209 316 209 316 209 278 c 0,42,43
 209 234 209 234 246.5 213 c 128,-1,44
 284 192 284 192 339 192 c 0,45,46
 422 192 422 192 467.5 229.5 c 128,-1,47
 513 267 513 267 513 329 c 1,48,-1
 626 329 l 1,49,0
 626 277 626 277 607 233.5 c 128,-1,1
EndSplineSet
Ligature2: "'vatu' Vattu Variants in Devanagari lookup 9 subtable" dvDH dvRashtrasign
Ligature2: "'half' Half Forms in Devanagari2 lookup 8 subtable" dvDH_RA dvVirama
EndChar

StartChar: dvN_R
Encoding: 65640 -1 206
Width: 512
Flags: W
LayerCount: 2
Fore
SplineSet
675 740 m 1,0,-1
 675 632 l 1,1,-1
 -21 632 l 1,2,-1
 -21 740 l 1,3,-1
 675 740 l 1,0,-1
85 405.5 m 128,-1,5
 115 452 115 452 166.5 475.5 c 128,-1,6
 218 499 218 499 282 499 c 2,7,-1
 675 499 l 1,8,-1
 675 391 l 1,9,-1
 440 391 l 1,10,11
 475 343 475 343 475 276 c 0,12,13
 475 217 475 217 448 174 c 128,-1,14
 421 131 421 131 374.5 109 c 128,-1,15
 328 87 328 87 271 87 c 0,16,17
 211 87 211 87 162 112 c 128,-1,18
 113 137 113 137 84 183.5 c 128,-1,19
 55 230 55 230 55 293 c 0,20,4
 55 359 55 359 85 405.5 c 128,-1,5
344 363.5 m 128,-1,22
 316 391 316 391 273 391 c 0,23,24
 228 391 228 391 199.5 363.5 c 128,-1,25
 171 336 171 336 171 293 c 256,26,27
 171 250 171 250 199.5 223 c 128,-1,28
 228 196 228 196 273 196 c 0,29,30
 316 196 316 196 344 223.5 c 128,-1,31
 372 251 372 251 372 294 c 0,32,21
 372 336 372 336 344 363.5 c 128,-1,22
301 -83 m 1,33,-1
 675 314 l 1,34,-1
 675 179 l 1,35,-1
 442 -83 l 1,36,-1
 301 -83 l 1,33,-1
EndSplineSet
Ligature2: "'vatu' Vattu Variants in Devanagari lookup 9 subtable" dvN dvRashtrasign
Ligature2: "'half' Half Forms in Devanagari2 lookup 8 subtable" dvN_RA dvVirama
EndChar

StartChar: dvP_R
Encoding: 65641 -1 207
Width: 358
Flags: W
LayerCount: 2
Fore
SplineSet
204 632 m 1,0,-1
 204 428 l 2,1,2
 204 360 204 360 235 321.5 c 128,-1,3
 266 283 266 283 329 283 c 0,4,5
 386 283 386 283 418 320.5 c 128,-1,6
 450 358 450 358 450 414 c 1,7,-1
 557 414 l 1,8,9
 557 355 557 355 536.5 306.5 c 128,-1,10
 516 258 516 258 477 225 c 1,11,-1
 269 -21 l 1,12,-1
 129 -21 l 1,13,-1
 311 174 l 1,14,15
 197 177 197 177 135.5 246 c 128,-1,16
 74 315 74 315 74 428 c 2,17,-1
 74 632 l 1,18,-1
 -21 632 l 1,19,-1
 -21 740 l 1,20,-1
 557 740 l 1,21,-1
 557 632 l 1,22,-1
 204 632 l 1,0,-1
EndSplineSet
Ligature2: "'vatu' Vattu Variants in Devanagari lookup 9 subtable" dvP dvRashtrasign
Ligature2: "'half' Half Forms in Devanagari2 lookup 8 subtable" dvP_RA dvVirama
EndChar

StartChar: dvPH_R
Encoding: 65642 -1 208
Width: 714
Flags: W
LayerCount: 2
Fore
SplineSet
561 632 m 1,0,-1
 561 460 l 1,1,2
 585 498 585 498 626 520 c 128,-1,3
 667 542 667 542 723 542 c 0,4,5
 820 542 820 542 873.5 478 c 128,-1,6
 927 414 927 414 927 310 c 1,7,-1
 796 310 l 1,8,9
 796 365 796 365 766.5 398 c 128,-1,10
 737 431 737 431 682 431 c 0,11,12
 622 431 622 431 591.5 390 c 128,-1,13
 561 349 561 349 561 287 c 2,14,-1
 561 0 l 1,15,-1
 432 0 l 1,16,-1
 432 243 l 1,17,18
 422 231 422 231 416 226 c 2,19,-1
 211 -21 l 1,20,-1
 71 -21 l 1,21,-1
 253 182 l 1,22,23
 166 192 166 192 120 256.5 c 128,-1,24
 74 321 74 321 74 422 c 2,25,-1
 74 632 l 1,26,-1
 -21 632 l 1,27,-1
 -21 740 l 1,28,-1
 927 740 l 1,29,-1
 927 632 l 1,30,-1
 561 632 l 1,0,-1
432 632 m 1,31,-1
 204 632 l 1,32,-1
 204 422 l 2,33,34
 204 357 204 357 232.5 320 c 128,-1,35
 261 283 261 283 318 283 c 0,36,37
 372 283 372 283 402 318.5 c 128,-1,38
 432 354 432 354 432 408 c 2,39,-1
 432 632 l 1,31,-1
EndSplineSet
Ligature2: "'vatu' Vattu Variants in Devanagari lookup 9 subtable" dvPH dvRashtrasign
Ligature2: "'half' Half Forms in Devanagari2 lookup 8 subtable" dvPH_RA dvVirama
EndChar

StartChar: dvB_R
Encoding: 65643 -1 209
Width: 397
Flags: W
LayerCount: 2
Fore
SplineSet
580 740 m 1,0,-1
 580 632 l 1,1,-1
 -21 632 l 1,2,-1
 -21 740 l 1,3,-1
 580 740 l 1,0,-1
461.5 519.5 m 128,-1,5
 520 486 520 486 548.5 431.5 c 128,-1,6
 577 377 577 377 577 315 c 0,7,8
 577 263 577 263 559 217 c 128,-1,9
 541 171 541 171 507 138 c 2,10,-1
 331 -59 l 1,11,-1
 200 -59 l 1,12,-1
 327 70 l 1,13,-1
 320 70 l 2,14,15
 241 70 241 70 182 101.5 c 128,-1,16
 123 133 123 133 91 188.5 c 128,-1,17
 59 244 59 244 59 314 c 0,18,19
 59 383 59 383 91 437.5 c 128,-1,20
 123 492 123 492 182 522.5 c 128,-1,21
 241 553 241 553 319 553 c 0,22,4
 403 553 403 553 461.5 519.5 c 128,-1,5
220 429 m 1,24,-1
 458 238 l 1,25,26
 476 273 476 273 476 311 c 0,27,28
 476 351 476 351 458 386 c 128,-1,29
 440 421 440 421 405.5 442.5 c 128,-1,30
 371 464 371 464 323 464 c 0,31,23
 265 464 265 464 220 429 c 1,24,-1
188.5 230.5 m 128,-1,33
 210 196 210 196 245.5 178 c 128,-1,34
 281 160 281 160 323 160 c 0,35,36
 382 160 382 160 424 195 c 1,37,-1
 185 386 l 1,38,39
 167 352 167 352 167 311 c 0,40,32
 167 265 167 265 188.5 230.5 c 128,-1,33
EndSplineSet
Ligature2: "'vatu' Vattu Variants in Devanagari lookup 9 subtable" dvB dvRashtrasign
Ligature2: "'half' Half Forms in Devanagari2 lookup 8 subtable" dvB_RA dvVirama
EndChar

StartChar: dvBH_R
Encoding: 65644 -1 210
Width: 529
Flags: W
LayerCount: 2
Fore
SplineSet
673 465 m 1,0,-1
 673 362 l 1,1,-1
 469 362 l 1,2,-1
 469 316 l 2,3,4
 469 216 469 216 416.5 156.5 c 128,-1,5
 364 97 364 97 269 97 c 0,6,7
 177 97 177 97 120 147.5 c 128,-1,8
 63 198 63 198 63 281 c 0,9,10
 63 370 63 370 123 417.5 c 128,-1,11
 183 465 183 465 277 465 c 2,12,-1
 353 465 l 1,13,-1
 353 543 l 2,14,15
 353 639 353 639 280 639 c 0,16,17
 249 639 249 639 230 617.5 c 128,-1,18
 211 596 211 596 211 560 c 0,19,20
 211 547 211 547 214 527 c 1,21,-1
 88 527 l 1,22,23
 84 553 84 553 84 567 c 0,24,25
 84 648 84 648 134.5 698.5 c 128,-1,26
 185 749 185 749 278 749 c 0,27,28
 378 749 378 749 423.5 687 c 128,-1,29
 469 625 469 625 469 520 c 2,30,-1
 469 465 l 1,31,-1
 673 465 l 1,0,-1
353 362 m 1,32,-1
 278 362 l 2,33,34
 236 362 236 362 209 340 c 128,-1,35
 182 318 182 318 182 281 c 0,36,37
 182 246 182 246 206 225 c 128,-1,38
 230 204 230 204 268 204 c 0,39,40
 310 204 310 204 331.5 231.5 c 128,-1,41
 353 259 353 259 353 308 c 2,42,-1
 353 362 l 1,32,-1
271 -83 m 1,43,-1
 673 296 l 1,44,-1
 673 179 l 1,45,-1
 413 -83 l 1,46,-1
 271 -83 l 1,43,-1
EndSplineSet
Ligature2: "'vatu' Vattu Variants in Devanagari lookup 9 subtable" dvBH dvRashtrasign
Ligature2: "'half' Half Forms in Devanagari2 lookup 8 subtable" dvBH_RA dvVirama
EndChar

StartChar: dvM_R
Encoding: 65645 -1 211
Width: 522
Flags: W
LayerCount: 2
Fore
SplineSet
450 632 m 1,0,-1
 450 478 l 1,1,-1
 667 478 l 1,2,-1
 667 375 l 1,3,-1
 450 375 l 1,4,-1
 450 319 l 2,5,6
 450 219 450 219 397.5 160.5 c 128,-1,7
 345 102 345 102 249 102 c 0,8,9
 188 102 188 102 141.5 125.5 c 128,-1,10
 95 149 95 149 69 191.5 c 128,-1,11
 43 234 43 234 43 289 c 0,12,13
 43 380 43 380 102.5 429 c 128,-1,14
 162 478 162 478 256 478 c 2,15,-1
 333 478 l 1,16,-1
 333 632 l 1,17,-1
 -21 632 l 1,18,-1
 -21 740 l 1,19,-1
 668 740 l 1,20,-1
 668 632 l 1,21,-1
 450 632 l 1,0,-1
333 375 m 1,22,-1
 257 375 l 2,23,24
 215 375 215 375 188.5 352 c 128,-1,25
 162 329 162 329 162 290 c 0,26,27
 162 253 162 253 186 230.5 c 128,-1,28
 210 208 210 208 247 208 c 0,29,30
 289 208 289 208 311 236 c 128,-1,31
 333 264 333 264 333 313 c 2,32,-1
 333 375 l 1,22,-1
241 -83 m 1,33,-1
 666 318 l 1,34,-1
 666 201 l 1,35,-1
 383 -83 l 1,36,-1
 241 -83 l 1,33,-1
EndSplineSet
Ligature2: "'vatu' Vattu Variants in Devanagari lookup 9 subtable" dvM dvRashtrasign
Ligature2: "'half' Half Forms in Devanagari2 lookup 8 subtable" dvM_RA dvVirama
EndChar

